#N canvas 440 100 1251 960 10;
#X declare -path ../lib;
#X obj 19 4 declare -path ../lib;
#X obj 149 4 dirt-voice \$1;
#X obj 224 25 s \$0-messages;
#X obj 149 25 s \$0-gate;
#X obj 19 81 r \$0-messages;
#X obj 19 230 mtof;
#N canvas 57 100 1375 980 oscillator~ 0;
#X text 211 245 drum vibration - tone;
#X obj 408 584 outlet~;
#X text 151 154 freq*(1.37) \, freq*(-1.22) \, freq*(1.411) \, freq*(-1.054)
\, freq*(1.033) \, freq;
#X obj 351 412 blit_pulsetrain~;
#X obj 372 300 inlet~;
#X obj 201 342 *~ 1.37;
#X obj 223 366 *~ -1.22;
#X obj 408 560 *~ 0.33;
#X obj 135 411 blit_pulsetrain~;
#X obj 155 441 blit_pulsetrain~;
#X obj 248 395 *~ 1.411;
#X obj 268 416 *~ -1.054;
#X obj 288 441 *~ 1.033;
#X obj 180 471 blit_pulsetrain~;
#X obj 200 496 blit_pulsetrain~;
#X obj 220 521 blit_pulsetrain~;
#X obj 486 296 inlet;
#X obj 444 352 sig~ 0.5;
#X connect 3 1 7 0;
#X connect 4 0 5 0;
#X connect 4 0 6 0;
#X connect 4 0 3 1;
#X connect 4 0 10 0;
#X connect 4 0 11 0;
#X connect 4 0 12 0;
#X connect 5 0 8 1;
#X connect 6 0 9 1;
#X connect 7 0 1 0;
#X connect 8 1 7 0;
#X connect 9 1 7 0;
#X connect 10 0 13 1;
#X connect 11 0 14 1;
#X connect 12 0 15 1;
#X connect 13 1 7 0;
#X connect 14 1 7 0;
#X connect 15 1 7 0;
#X connect 17 0 3 2;
#X connect 17 0 15 2;
#X connect 17 0 14 2;
#X connect 17 0 13 2;
#X connect 17 0 9 2;
#X connect 17 0 8 2;
#X coords 0 0 1 1 97 21 0;
#X restore 59 347 pd oscillator~;
#X obj 133 261 r \$0-messages;
#X obj 332 552 r \$0-gate;
#X obj 467 552 r \$0-messages;
#X obj 148 465 r \$0-messages;
#X obj 19 1006 outlet~;
#X obj 248 899 outlet;
#X obj 248 876 r \$0-messages;
#X obj 118 938 r \$0-messages;
#X obj 19 983 hip~ 20;
#X obj 117 1007 outlet~;
#X obj 117 984 hip~ 20;
#X obj 227 262 r \$0-gate;
#X obj 338 262 r \$0-messages;
#X obj 502 108 inlet;
#X obj 502 181 i 1;
#X obj 502 131 t b b;
#X obj 540 188 i 0;
#X obj 502 290 s \$0-gate;
#X obj 540 165 del 1000;
#X obj 19 198 +;
#X obj 147 81 r \$0-messages;
#X obj 147 105 dirt-param octave 0;
#X obj 147 128 * 12;
#X obj 19 960 analogue.amp~ 0;
#X obj 531 780 r \$0-gate;
#X obj 531 803 sel 1;
#X obj 531 826 i 1;
#X obj 531 849 switch~;
#X obj 500 829 i 0;
#X obj 513 743 loadbang;
#X msg 588 831 stop;
#X obj 382 829 delay;
#X obj 370 761 t b 1;
#X obj 400 803 cycles-to-ms;
#X obj 19 253 sig~ 100;
#X obj 217 491 r \$0-messages;
#X obj 19 510 hip~ 2000;
#X obj 88 536 hip~ 7000;
#X obj 88 559 *~ 0.68;
#X obj 160 549 hip~ 8500;
#X obj 227 284 analogue.transient~ 0.7 150;
#X obj 332 575 perc.envelope~ 0.1 75 500;
#X obj 59 370 hip~ 8000;
#X obj 19 105 dirt-param note 72;
#X obj 333 491 r \$0-gate;
#X obj 468 491 r \$0-messages;
#X obj 333 514 perc.envelope~ 0.001 0 500;
#X obj 88 582 *~;
#X obj 19 908 *~ 0.33;
#X obj 19 931 *~;
#X obj 19 487 dirt-bandpass~ 3000 2.3;
#X obj 89 514 dirt-bandpass~ 8000 1;
#X connect 1 0 3 0;
#X connect 1 1 2 0;
#X connect 4 0 50 0;
#X connect 5 0 41 0;
#X connect 6 0 49 0;
#X connect 7 0 6 1;
#X connect 8 0 48 0;
#X connect 9 0 48 1;
#X connect 10 0 57 3;
#X connect 13 0 12 0;
#X connect 14 0 30 1;
#X connect 15 0 11 0;
#X connect 17 0 16 0;
#X connect 18 0 47 0;
#X connect 19 0 47 1;
#X connect 20 0 22 0;
#X connect 21 0 24 0;
#X connect 22 0 21 0;
#X connect 22 1 25 0;
#X connect 23 0 24 0;
#X connect 25 0 23 0;
#X connect 26 0 5 0;
#X connect 27 0 28 0;
#X connect 28 0 29 0;
#X connect 29 0 26 1;
#X connect 30 0 15 0;
#X connect 30 1 17 0;
#X connect 31 0 32 0;
#X connect 32 0 33 0;
#X connect 32 0 37 0;
#X connect 33 0 34 0;
#X connect 35 0 34 0;
#X connect 36 0 35 0;
#X connect 37 0 38 0;
#X connect 38 0 35 0;
#X connect 39 0 38 0;
#X connect 39 1 40 0;
#X connect 40 0 38 1;
#X connect 41 0 6 0;
#X connect 42 0 58 3;
#X connect 43 0 55 0;
#X connect 44 0 45 0;
#X connect 45 0 54 0;
#X connect 46 0 55 0;
#X connect 47 0 57 0;
#X connect 48 0 56 1;
#X connect 48 1 39 0;
#X connect 49 0 57 0;
#X connect 49 0 58 0;
#X connect 50 0 26 0;
#X connect 51 0 53 0;
#X connect 52 0 53 1;
#X connect 53 0 54 1;
#X connect 54 0 55 0;
#X connect 55 0 56 0;
#X connect 56 0 30 0;
#X connect 57 0 43 0;
#X connect 58 0 44 0;
#X connect 58 0 46 0;
