#N canvas 780 100 960 980 10;
#X declare -path ../lib;
#X obj 23 4 declare -path ../lib;
#X obj 153 4 dirt-voice \$1, f 26;
#X obj 228 25 s \$0-messages;
#X obj 153 25 s \$0-gate;
#X obj 23 695 outlet~;
#X obj 204 695 outlet~;
#X obj 266 665 r \$0-messages;
#X obj 266 694 outlet;
#X obj 502 108 inlet;
#X obj 502 181 i 1;
#X obj 502 131 t b b;
#X obj 540 188 i 0;
#X obj 502 220 s \$0-gate;
#X obj 540 165 del 1000;
#X obj 233 403 list prepend this;
#X obj 233 426 list trim;
#X obj 233 365 r \$0-messages;
#X obj 23 358 i 0;
#X obj 53 391 + 1;
#X msg 12 452 set \$1;
#X obj 23 381 % 4;
#X obj 23 259 r \$0-gate;
#X obj 23 282 sel 1;
#X obj 22 534 clone analogue.polysaw.voice~ 4;
#X obj 23 305 t b b;
#X msg 65 452 this bang;
#X connect 1 0 3 0;
#X connect 1 1 2 0;
#X connect 6 0 7 0;
#X connect 8 0 10 0;
#X connect 9 0 12 0;
#X connect 10 0 9 0;
#X connect 10 1 13 0;
#X connect 11 0 12 0;
#X connect 13 0 11 0;
#X connect 14 0 15 0;
#X connect 15 0 23 1;
#X connect 16 0 14 0;
#X connect 17 0 20 0;
#X connect 18 0 17 1;
#X connect 19 0 23 0;
#X connect 20 0 18 0;
#X connect 20 0 19 0;
#X connect 21 0 22 0;
#X connect 22 0 24 0;
#X connect 23 0 4 0;
#X connect 23 1 5 0;
#X connect 24 0 17 0;
#X connect 24 1 25 0;
#X connect 25 0 23 0;
