#N canvas 127 159 1618 890 10;
#X declare -path ../lib;
#X obj 38 9 declare -path ../lib;
#X obj 179 8 dirt-voice \$1;
#X obj 254 28 s \$0-messages;
#X obj 37 419 outlet~;
#X obj 112 419 outlet~;
#X obj 174 389 r \$0-messages;
#X obj 174 418 outlet;
#X obj 38 52 r \$0-messages;
#X obj 38 131 mtof;
#X obj 38 356 *~;
#X obj 38 76 dirt-param note 0;
#X obj 179 28 s \$0-gate;
#X obj 113 139 r \$0-messages;
#X obj 143 169 r \$0-messages;
#X obj 38 192 vibrato~ 0.1 0.666;
#X obj 38 162 portmento~ 20;
#X obj 167 201 r \$0-messages;
#X obj 38 104 + 36;
#X obj 105 255 r \$0-gate;
#X obj 173 255 r \$0-messages;
#X obj 38 230 analogue.osc~ 0.25 0.5;
#X obj 53 332 analogue.envelope~;
#X obj 158 311 r \$0-messages;
#X obj 53 311 r \$0-gate;
#X obj 113 360 r \$0-messages;
#X obj 38 380 analogue.amp~;
#X obj 38 275 analogue.filter~ 3000 1;
#X connect 1 0 11 0;
#X connect 1 1 2 0;
#X connect 5 0 6 0;
#X connect 7 0 10 0;
#X connect 8 0 15 0;
#X connect 9 0 25 0;
#X connect 10 0 17 0;
#X connect 12 0 15 1;
#X connect 13 0 14 1;
#X connect 14 0 20 0;
#X connect 15 0 14 0;
#X connect 16 0 20 3;
#X connect 17 0 8 0;
#X connect 18 0 26 1;
#X connect 19 0 26 2;
#X connect 20 0 26 0;
#X connect 21 0 9 1;
#X connect 22 0 21 1;
#X connect 23 0 21 0;
#X connect 24 0 25 1;
#X connect 25 0 3 0;
#X connect 25 1 4 0;
#X connect 26 0 9 0;
