#N canvas 93 184 1178 740 10;
#X declare -path ../lib;
#X obj 19 4 declare -path ../lib;
#X obj 149 4 dirt-voice \$1;
#X obj 224 25 s \$0-messages;
#X obj 149 25 s \$0-gate;
#X obj 19 81 r \$0-messages;
#X obj 19 220 mtof;
#N canvas 340 100 1375 980 oscillator~ 0;
#X obj 350 778 osc~;
#X text 211 245 drum vibration - tone;
#X obj 250 299 inlet;
#X obj 350 801 outlet~;
#X obj 431 552 delay 50;
#X obj 467 599 delay 75;
#X obj 361 358 * 2500;
#X obj 361 388 + 2500;
#X obj 357 448 f 2500;
#X obj 476 448 / 127;
#X obj 476 500 + 15;
#X obj 476 470 * 50;
#X msg 416 625 65 75;
#X obj 371 532 delay 10;
#X msg 355 625 75 \$1;
#X obj 371 554 f 15;
#X obj 350 704 vline~;
#X obj 425 414 + 10;
#X obj 425 346 expr 1 - $f1;
#X obj 425 369 pow 8;
#X obj 476 426 r size;
#X obj 425 389 * 5;
#X obj 201 298 inlet;
#X obj 487 224 inlet;
#X obj 362 306 dirt-param ramp 0.75;
#X obj 357 470 pack 2500 20;
#X obj 349 756 +~;
#X msg 466 625 0 100;
#X obj 495 307 dirt-param ramp-time 0.75;
#X msg 280 625 \$1 \, \$2 4;
#X connect 0 0 3 0;
#X connect 2 0 8 0;
#X connect 2 0 13 0;
#X connect 4 0 12 0;
#X connect 4 0 5 0;
#X connect 5 0 27 0;
#X connect 6 0 7 0;
#X connect 7 0 8 1;
#X connect 8 0 25 0;
#X connect 9 0 11 0;
#X connect 10 0 4 1;
#X connect 10 0 15 1;
#X connect 11 0 10 0;
#X connect 12 0 16 0;
#X connect 13 0 4 0;
#X connect 13 0 15 0;
#X connect 14 0 16 0;
#X connect 15 0 14 0;
#X connect 16 0 26 0;
#X connect 17 0 25 1;
#X connect 18 0 19 0;
#X connect 19 0 21 0;
#X connect 20 0 9 0;
#X connect 21 0 17 0;
#X connect 22 0 26 1;
#X connect 23 0 24 0;
#X connect 23 0 28 0;
#X connect 24 0 6 0;
#X connect 25 0 29 0;
#X connect 26 0 0 0;
#X connect 27 0 16 0;
#X connect 28 0 18 0;
#X connect 29 0 16 0;
#X coords 0 0 1 1 97 21 0;
#X restore 19 281 pd oscillator~;
#X obj 59 252 r \$0-gate;
#X obj 133 251 r \$0-messages;
#X obj 19 427 *~;
#X obj 197 362 r \$0-gate;
#X obj 332 362 r \$0-messages;
#X obj 130 455 r \$0-messages;
#X obj 19 616 outlet~;
#X obj 303 536 outlet;
#X obj 303 513 r \$0-messages;
#X obj 118 548 r \$0-messages;
#X obj 19 593 hip~ 20;
#X obj 117 617 outlet~;
#X obj 117 594 hip~ 20;
#X obj 197 294 r \$0-gate;
#X obj 362 292 r \$0-messages;
#X obj 502 108 inlet;
#X obj 502 181 i 1;
#X obj 502 131 t b b;
#X obj 540 188 i 0;
#X obj 502 220 s \$0-gate;
#X obj 540 165 del 1000;
#X obj 19 477 dirt-moog-lp~ 430 3;
#X obj 19 570 analogue.amp~ 0.2;
#X obj 19 105 dirt-param note 36;
#X obj 197 384 perc.envelope~ 0 50 500;
#X obj 197 316 analogue.transient~ 0.25 100;
#X obj 147 81 r \$0-messages;
#X obj 147 105 dirt-param octave 0;
#X obj 147 128 * 12;
#X obj 19 178 +;
#X obj 482 456 r \$0-gate;
#X obj 482 479 sel 1;
#X obj 482 502 i 1;
#X obj 482 525 switch~;
#X obj 451 505 i 0;
#X obj 454 406 loadbang;
#X connect 1 0 3 0;
#X connect 1 1 2 0;
#X connect 4 0 30 0;
#X connect 5 0 6 0;
#X connect 6 0 9 0;
#X connect 7 0 6 1;
#X connect 8 0 6 2;
#X connect 9 0 28 0;
#X connect 10 0 31 0;
#X connect 11 0 31 1;
#X connect 12 0 28 3;
#X connect 15 0 14 0;
#X connect 16 0 29 1;
#X connect 17 0 13 0;
#X connect 19 0 18 0;
#X connect 20 0 32 0;
#X connect 21 0 32 1;
#X connect 22 0 24 0;
#X connect 23 0 26 0;
#X connect 24 0 23 0;
#X connect 24 1 27 0;
#X connect 25 0 26 0;
#X connect 27 0 25 0;
#X connect 28 0 29 0;
#X connect 29 0 17 0;
#X connect 29 1 19 0;
#X connect 30 0 36 0;
#X connect 31 0 9 1;
#X connect 32 0 9 0;
#X connect 33 0 34 0;
#X connect 34 0 35 0;
#X connect 35 0 36 1;
#X connect 36 0 5 0;
#X connect 37 0 38 0;
#X connect 38 0 39 0;
#X connect 39 0 40 0;
#X connect 41 0 40 0;
#X connect 42 0 41 0;
