#N canvas 0 100 995 889 10;
#X declare -path ../lib;
#X obj 98 628 r \$0-messages;
#X obj 22 90 r \$0-messages;
#X obj 22 194 mtof;
#X obj 98 194 r \$0-messages;
#X obj 128 228 r \$0-messages;
#X obj 22 482 *~;
#X obj 214 424 r \$0-messages;
#X obj 38 436 r \$0-gate;
#X obj 22 114 dirt-param note 36;
#X obj 22 168 + 36;
#X obj 146 82 r \$0-messages;
#X obj 146 106 dirt-param octave 0;
#X obj 146 128 * 12;
#X obj 430 510 r \$0-gate;
#X obj 430 532 sel 1;
#X obj 430 556 i 1;
#X obj 430 578 switch~;
#X obj 398 558 i 0;
#X obj 398 487 loadbang;
#X obj 94 284 r \$0-messages;
#N canvas 0 100 864 849 supersaw~ 0;
#X obj 174 433 outlet~;
#X obj 87 7 inlet~;
#X obj 269 7 inlet;
#X obj 17 351 blit_saw~;
#X obj 82 351 blit_saw~;
#X obj 147 351 blit_saw~;
#X obj 212 351 blit_saw~;
#X obj 71 197 -~;
#X obj 111 143 *~;
#X obj 86 172 *~ 4;
#X obj 86 231 +~;
#X obj 146 256 +~;
#X obj 211 281 +~;
#X obj 245 67 *;
#X obj 245 87 *;
#X obj 245 48 dirt-param detune 0.25;
#X obj 137 388 *~ 0.5;
#X connect 1 0 7 0;
#X connect 1 0 8 0;
#X connect 2 0 15 0;
#X connect 3 1 16 0;
#X connect 4 1 16 0;
#X connect 5 1 16 0;
#X connect 6 1 16 0;
#X connect 7 0 10 0;
#X connect 7 0 3 1;
#X connect 8 0 9 0;
#X connect 8 0 10 1;
#X connect 8 0 11 1;
#X connect 9 0 7 1;
#X connect 10 0 11 0;
#X connect 10 0 4 1;
#X connect 11 0 12 0;
#X connect 11 0 5 1;
#X connect 12 0 6 1;
#X connect 13 0 14 0;
#X connect 13 0 14 1;
#X connect 14 0 8 1;
#X connect 15 0 13 0;
#X connect 15 0 13 1;
#X connect 16 0 0 0;
#X restore 20 310 pd supersaw~;
#X msg 486 560 stop;
#X obj 280 558 delay;
#X obj 22 650 analogue.amp~ 0;
#X obj 38 458 analogue.envelope~ 400 600 0.8 400;
#X obj 22 252 vibrato~ 0.2 0.666;
#X obj 22 218 portmento~ 100;
#X obj 144 352 r \$0-gate;
#X obj 212 354 r \$0-messages;
#X obj 24 378 analogue.filter~ 2000 1 300 250 0.95 500;
#X obj 23 4 declare -path ../lib;
#X obj 22 673 outlet~;
#X obj 92 673 outlet~;
#X obj 281 525 t b 4;
#X obj 356 38 inlet;
#X obj 356 61 s \$0-messages;
#X obj 314 202 calculate-gate;
#X obj 395 173 r \$0-messages;
#X obj 314 225 s \$0-gate;
#X floatatom 307 307 5 0 0 0 - - -, f 5;
#X obj 314 37 inlet;
#X obj 314 60 b;
#X obj 340 134 bng 15 250 50 0 empty empty empty 17 7 0 10 -262144
-1 -1;
#X connect 0 0 23 1;
#X connect 1 0 8 0;
#X connect 2 0 26 0;
#X connect 3 0 26 1;
#X connect 4 0 25 1;
#X connect 5 0 23 0;
#X connect 6 0 24 1;
#X connect 7 0 24 0;
#X connect 8 0 9 0;
#X connect 9 0 2 0;
#X connect 10 0 11 0;
#X connect 11 0 12 0;
#X connect 12 0 9 1;
#X connect 13 0 14 0;
#X connect 14 0 15 0;
#X connect 14 0 21 0;
#X connect 15 0 16 0;
#X connect 17 0 16 0;
#X connect 18 0 17 0;
#X connect 19 0 20 1;
#X connect 20 0 29 0;
#X connect 21 0 22 0;
#X connect 22 0 17 0;
#X connect 23 0 31 0;
#X connect 23 1 32 0;
#X connect 24 0 5 1;
#X connect 24 1 33 0;
#X connect 25 0 20 0;
#X connect 26 0 25 0;
#X connect 26 0 29 1;
#X connect 27 0 29 3;
#X connect 28 0 29 4;
#X connect 29 0 5 0;
#X connect 33 0 22 0;
#X connect 33 1 22 1;
#X connect 34 0 35 0;
#X connect 36 0 38 0;
#X connect 37 0 36 1;
#X connect 40 0 41 0;
#X connect 41 0 42 0;
#X connect 42 0 36 0;
