#N canvas 0 100 960 980 10;
#X declare -path ../lib;
#X obj 38 9 declare -path ../lib;
#X obj 179 8 dirt-voice \$1;
#X obj 254 28 s \$0-messages;
#X obj 37 509 outlet~;
#X obj 112 509 outlet~;
#X obj 174 479 r \$0-messages;
#X obj 174 508 outlet;
#X obj 38 52 r \$0-messages;
#X obj 38 221 mtof;
#X obj 38 446 *~;
#X obj 38 76 dirt-param note 0;
#X obj 179 28 s \$0-gate;
#X obj 113 229 r \$0-messages;
#X obj 143 259 r \$0-messages;
#X obj 38 282 vibrato~ 0.1 0.666;
#X obj 38 252 portmento~ 20;
#X obj 167 291 r \$0-messages;
#X obj 38 194 + 36;
#X obj 175 345 r \$0-gate;
#X obj 303 345 r \$0-messages;
#X obj 38 320 analogue.osc~ 0.25 0.5;
#X obj 53 422 analogue.envelope~;
#X obj 158 401 r \$0-messages;
#X obj 53 401 r \$0-gate;
#X obj 113 450 r \$0-messages;
#X obj 38 470 analogue.amp~;
#X obj 502 108 inlet;
#X obj 502 181 i 1;
#X obj 502 131 t b b;
#X obj 540 188 i 0;
#X obj 502 220 s \$0-gate;
#X obj 540 165 del 1000;
#X obj 147 52 r \$0-messages;
#X obj 147 76 dirt-param octave 0;
#X obj 147 99 * 12;
#X obj 38 365 analogue.filter~ 3000 1 0.125 0.666 0.75 500;
#X obj 310 440 r \$0-gate;
#X obj 310 463 sel 1;
#X obj 310 486 i 1;
#X obj 310 509 switch~;
#X obj 279 489 i 0;
#X obj 281 420 loadbang;
#X connect 1 0 11 0;
#X connect 1 1 2 0;
#X connect 5 0 6 0;
#X connect 7 0 10 0;
#X connect 8 0 15 0;
#X connect 9 0 25 0;
#X connect 10 0 17 0;
#X connect 12 0 15 1;
#X connect 13 0 14 1;
#X connect 14 0 20 0;
#X connect 15 0 14 0;
#X connect 16 0 20 3;
#X connect 17 0 8 0;
#X connect 18 0 35 1;
#X connect 19 0 35 2;
#X connect 20 0 35 0;
#X connect 21 0 9 1;
#X connect 22 0 21 1;
#X connect 23 0 21 0;
#X connect 24 0 25 1;
#X connect 25 0 3 0;
#X connect 25 1 4 0;
#X connect 26 0 28 0;
#X connect 27 0 30 0;
#X connect 28 0 27 0;
#X connect 28 1 31 0;
#X connect 29 0 30 0;
#X connect 31 0 29 0;
#X connect 32 0 33 0;
#X connect 33 0 34 0;
#X connect 34 0 17 1;
#X connect 35 0 9 0;
#X connect 36 0 37 0;
#X connect 37 0 38 0;
#X connect 38 0 39 0;
#X connect 40 0 39 0;
#X connect 41 0 40 0;
