#N canvas 0 100 960 980 10;
#X declare -path ../lib;
#X obj 38 9 declare -path ../lib;
#X obj 179 8 dirt-voice \$1;
#X obj 254 28 s \$0-messages;
#X obj 37 609 outlet~;
#X obj 112 609 outlet~;
#X obj 174 579 r \$0-messages;
#X obj 174 608 outlet;
#X obj 38 52 r \$0-messages;
#X obj 38 221 mtof;
#X obj 38 546 *~;
#X obj 38 76 dirt-param note 0;
#X obj 179 28 s \$0-gate;
#X obj 113 229 r \$0-messages;
#X obj 143 259 r \$0-messages;
#X obj 38 282 vibrato~ 0.1 0.666;
#X obj 38 252 portmento~ 20;
#X obj 167 341 r \$0-messages;
#X obj 38 194 + 36;
#X obj 223 431 r \$0-gate;
#X obj 291 430 r \$0-messages;
#X obj 38 370 analogue.osc~ 0.25 0.5;
#X obj 158 501 r \$0-messages;
#X obj 53 501 r \$0-gate;
#X obj 113 550 r \$0-messages;
#X obj 502 108 inlet;
#X obj 502 181 i 1;
#X obj 502 131 t b b;
#X obj 540 188 i 0;
#X obj 502 220 s \$0-gate;
#X obj 540 165 del 1000;
#X obj 147 52 r \$0-messages;
#X obj 147 76 dirt-param octave 0;
#X obj 147 99 * 12;
#X obj 570 540 r \$0-gate;
#X obj 570 563 sel 1;
#X obj 570 586 i 1;
#X obj 570 609 switch~;
#X obj 539 589 i 0;
#X obj 541 520 loadbang;
#X obj 284 390 *~;
#X obj 380 341 r \$0-messages;
#X obj 380 367 dirt-param~ sub 0.77;
#X obj 284 337 blit_triangle~;
#X obj 284 302 *~ 0.5;
#X obj 38 570 analogue.amp~;
#X obj 53 522 analogue.envelope~ 150 50 0.96 500;
#X obj 479 585 delay;
#X obj 385 536 cycles-to-ms;
#X obj 357 502 t b 1;
#X msg 487 561 stop;
#X obj 38 465 analogue.filter~ 3000 1 0.125 0.666 0.75 500;
#X connect 1 0 11 0;
#X connect 1 1 2 0;
#X connect 5 0 6 0;
#X connect 7 0 10 0;
#X connect 8 0 15 0;
#X connect 9 0 44 0;
#X connect 10 0 17 0;
#X connect 12 0 15 1;
#X connect 13 0 14 1;
#X connect 14 0 20 0;
#X connect 14 0 43 0;
#X connect 15 0 14 0;
#X connect 16 0 20 3;
#X connect 17 0 8 0;
#X connect 18 0 50 3;
#X connect 19 0 50 4;
#X connect 20 0 50 0;
#X connect 21 0 45 1;
#X connect 22 0 45 0;
#X connect 23 0 44 1;
#X connect 24 0 26 0;
#X connect 25 0 28 0;
#X connect 26 0 25 0;
#X connect 26 1 29 0;
#X connect 27 0 28 0;
#X connect 29 0 27 0;
#X connect 30 0 31 0;
#X connect 31 0 32 0;
#X connect 32 0 17 1;
#X connect 33 0 34 0;
#X connect 34 0 35 0;
#X connect 34 0 49 0;
#X connect 35 0 36 0;
#X connect 37 0 36 0;
#X connect 38 0 37 0;
#X connect 39 0 50 0;
#X connect 40 0 41 0;
#X connect 41 0 39 1;
#X connect 42 1 39 0;
#X connect 43 0 42 1;
#X connect 44 0 3 0;
#X connect 44 1 4 0;
#X connect 45 0 9 1;
#X connect 46 0 37 0;
#X connect 47 0 46 1;
#X connect 48 0 46 0;
#X connect 48 1 47 0;
#X connect 49 0 46 0;
#X connect 50 0 9 0;
#X connect 50 2 48 0;
