#N canvas 0 100 1251 960 10;
#X declare -path ../lib;
#X obj 19 4 declare -path ../lib;
#X obj 149 4 dirt-voice \$1;
#X obj 224 25 s \$0-messages;
#X obj 149 25 s \$0-gate;
#X obj 19 81 r \$0-messages;
#X obj 19 230 mtof;
#N canvas 147 100 1375 980 oscillator~ 0;
#X text 211 245 drum vibration - tone;
#X obj 138 539 outlet~;
#X text 151 154 freq*(1.37) \, freq*(-1.22) \, freq*(1.411) \, freq*(-1.054)
\, freq*(1.033) \, freq;
#X obj 115 386 blit_pulsetrain~;
#X obj 201 298 inlet~;
#X obj 201 342 *~ 1.37;
#X obj 223 366 *~ -1.22;
#X obj 138 515 *~ 0.33;
#X obj 135 411 blit_pulsetrain~;
#X obj 155 441 blit_pulsetrain~;
#X connect 3 1 7 0;
#X connect 4 0 5 0;
#X connect 4 0 6 0;
#X connect 4 0 3 1;
#X connect 5 0 8 1;
#X connect 6 0 9 1;
#X connect 7 0 1 0;
#X connect 8 1 7 0;
#X connect 9 1 7 0;
#X coords 0 0 1 1 97 21 0;
#X restore 19 341 pd oscillator~;
#X obj 59 262 r \$0-gate;
#X obj 133 261 r \$0-messages;
#X obj 19 437 *~;
#X obj 198 372 r \$0-gate;
#X obj 333 372 r \$0-messages;
#X obj 130 465 r \$0-messages;
#X obj 19 626 outlet~;
#X obj 303 546 outlet;
#X obj 303 523 r \$0-messages;
#X obj 118 558 r \$0-messages;
#X obj 19 603 hip~ 20;
#X obj 117 627 outlet~;
#X obj 117 604 hip~ 20;
#X obj 227 262 r \$0-gate;
#X obj 338 262 r \$0-messages;
#X obj 502 108 inlet;
#X obj 502 181 i 1;
#X obj 502 131 t b b;
#X obj 540 188 i 0;
#X obj 502 290 s \$0-gate;
#X obj 540 165 del 1000;
#X obj 227 284 analogue.transient~ 0.7 150;
#X obj 197 418 *~;
#X obj 196 439 *~ 3;
#X obj 19 487 dirt-moog-lp~ 2000 2.3;
#X obj 19 253 sig~;
#X obj 19 105 dirt-param note 72;
#X obj 19 510 hip~ 6800;
#X obj 19 198 +;
#X obj 147 81 r \$0-messages;
#X obj 147 105 dirt-param octave 0;
#X obj 147 128 * 12;
#X obj 545 533 switch~;
#X obj 514 513 i 0;
#X obj 515 441 loadbang;
#X obj 19 580 analogue.amp~ 0;
#X obj 198 395 perc.envelope~ 0 5 200;
#X obj 434 488 delay;
#X obj 461 465 cycles-to-ms;
#X obj 434 437 t b 1;
#X obj 545 510 i 1;
#X obj 569 440 r \$0-gate;
#X obj 548 475 sel 1;
#X connect 1 0 3 0;
#X connect 1 1 2 0;
#X connect 4 0 33 0;
#X connect 5 0 32 0;
#X connect 6 0 9 0;
#X connect 9 0 31 0;
#X connect 10 0 43 0;
#X connect 11 0 43 1;
#X connect 12 0 31 3;
#X connect 15 0 14 0;
#X connect 16 0 42 1;
#X connect 17 0 13 0;
#X connect 19 0 18 0;
#X connect 20 0 28 0;
#X connect 21 0 28 1;
#X connect 22 0 24 0;
#X connect 23 0 26 0;
#X connect 24 0 23 0;
#X connect 24 1 27 0;
#X connect 25 0 26 0;
#X connect 27 0 25 0;
#X connect 28 0 9 0;
#X connect 29 0 30 0;
#X connect 30 0 31 1;
#X connect 31 0 34 0;
#X connect 32 0 6 0;
#X connect 32 0 29 1;
#X connect 33 0 35 0;
#X connect 34 0 42 0;
#X connect 35 0 5 0;
#X connect 36 0 37 0;
#X connect 37 0 38 0;
#X connect 38 0 35 1;
#X connect 40 0 39 0;
#X connect 41 0 40 0;
#X connect 42 0 17 0;
#X connect 42 1 19 0;
#X connect 43 0 9 1;
#X connect 43 0 29 0;
#X connect 43 1 46 0;
#X connect 44 0 40 0;
#X connect 45 0 44 1;
#X connect 46 0 44 0;
#X connect 46 1 45 0;
#X connect 47 0 39 0;
#X connect 48 0 49 0;
#X connect 49 0 47 0;
