#N canvas 830 100 960 980 10;
#X declare -path ../lib;
#X obj 23 4 declare -path ../lib;
#X obj 153 4 dirt-voice \$1;
#X obj 228 25 s \$0-messages;
#X obj 153 25 s \$0-gate;
#X obj 98 498 r \$0-messages;
#X obj 23 41 r \$0-messages;
#X obj 23 194 mtof;
#X obj 98 195 r \$0-messages;
#X obj 128 229 r \$0-messages;
#X obj 23 482 *~;
#X obj 214 424 r \$0-messages;
#X obj 38 437 r \$0-gate;
#X obj 23 565 outlet~;
#X obj 98 565 outlet~;
#X obj 160 535 r \$0-messages;
#X obj 160 564 outlet;
#X obj 502 108 inlet;
#X obj 502 181 i 1;
#X obj 502 131 t b b;
#X obj 540 188 i 0;
#X obj 502 220 s \$0-gate;
#X obj 540 165 del 1000;
#X obj 23 65 dirt-param note 36;
#X obj 23 169 + 36;
#X obj 147 52 r \$0-messages;
#X obj 147 76 dirt-param octave 0;
#X obj 147 99 * 12;
#X obj 430 510 r \$0-gate;
#X obj 430 533 sel 1;
#X obj 430 556 i 1;
#X obj 430 579 switch~;
#X obj 399 559 i 0;
#X obj 412 473 loadbang;
#X obj 94 284 r \$0-messages;
#N canvas 0 100 864 849 supersaw~ 0;
#X obj 174 433 outlet~;
#X obj 87 7 inlet~;
#X obj 269 7 inlet;
#X obj 17 351 blit_saw~;
#X obj 82 351 blit_saw~;
#X obj 147 351 blit_saw~;
#X obj 212 351 blit_saw~;
#X obj 71 197 -~;
#X obj 111 143 *~;
#X obj 86 172 *~ 4;
#X obj 86 231 +~;
#X obj 146 256 +~;
#X obj 211 281 +~;
#X obj 245 67 *;
#X obj 245 87 *;
#X obj 245 48 dirt-param detune 0.25;
#X obj 137 388 *~ 0.5;
#X connect 1 0 7 0;
#X connect 1 0 8 0;
#X connect 2 0 15 0;
#X connect 3 1 16 0;
#X connect 4 1 16 0;
#X connect 5 1 16 0;
#X connect 6 1 16 0;
#X connect 7 0 10 0;
#X connect 7 0 3 1;
#X connect 8 0 9 0;
#X connect 8 0 10 1;
#X connect 8 0 11 1;
#X connect 9 0 7 1;
#X connect 10 0 11 0;
#X connect 10 0 4 1;
#X connect 11 0 12 0;
#X connect 11 0 5 1;
#X connect 12 0 6 1;
#X connect 13 0 14 0;
#X connect 13 0 14 1;
#X connect 14 0 8 1;
#X connect 15 0 13 0;
#X connect 15 0 13 1;
#X connect 16 0 0 0;
#X restore 21 311 pd supersaw~;
#X msg 487 561 stop;
#X obj 281 559 delay;
#X obj 269 491 t b 1;
#X obj 299 533 cycles-to-ms;
#X obj 23 520 analogue.amp~ 0;
#X obj 38 458 analogue.envelope~ 400 600 0.8 400;
#X obj 23 252 vibrato~ 0.2 0.666;
#X obj 23 218 portmento~ 100;
#X obj 145 353 r \$0-gate;
#X obj 212 354 r \$0-messages;
#X obj 24 378 analogue.filter~ 8000 1 300 250 0.95 500;
#X connect 1 0 3 0;
#X connect 1 1 2 0;
#X connect 4 0 39 1;
#X connect 5 0 22 0;
#X connect 6 0 42 0;
#X connect 7 0 42 1;
#X connect 8 0 41 1;
#X connect 9 0 39 0;
#X connect 10 0 40 1;
#X connect 11 0 40 0;
#X connect 14 0 15 0;
#X connect 16 0 18 0;
#X connect 17 0 20 0;
#X connect 18 0 17 0;
#X connect 18 1 21 0;
#X connect 19 0 20 0;
#X connect 21 0 19 0;
#X connect 22 0 23 0;
#X connect 23 0 6 0;
#X connect 24 0 25 0;
#X connect 25 0 26 0;
#X connect 26 0 23 1;
#X connect 27 0 28 0;
#X connect 28 0 29 0;
#X connect 28 0 35 0;
#X connect 29 0 30 0;
#X connect 31 0 30 0;
#X connect 32 0 31 0;
#X connect 33 0 34 1;
#X connect 34 0 45 0;
#X connect 35 0 36 0;
#X connect 36 0 31 0;
#X connect 37 0 36 0;
#X connect 37 1 38 0;
#X connect 38 0 36 1;
#X connect 39 0 12 0;
#X connect 39 1 13 0;
#X connect 40 0 9 1;
#X connect 40 1 37 0;
#X connect 41 0 34 0;
#X connect 42 0 41 0;
#X connect 43 0 45 1;
#X connect 44 0 45 2;
#X connect 45 0 9 0;
