#N canvas 0 100 960 980 10;
#X declare -path ../lib;
#X obj 19 4 declare -path ../lib;
#X obj 149 4 dirt-voice \$1;
#X obj 224 25 s \$0-messages;
#X obj 149 25 s \$0-gate;
#X obj 19 81 r \$0-messages;
#X obj 48 217 mtof;
#X obj 18 270 r \$0-gate;
#X obj 126 267 r \$0-messages;
#X obj 19 437 *~;
#X obj 197 372 r \$0-gate;
#X obj 332 372 r \$0-messages;
#X obj 130 465 r \$0-messages;
#X obj 19 696 outlet~;
#X obj 303 546 outlet;
#X obj 303 523 r \$0-messages;
#X obj 118 528 r \$0-messages;
#X obj 19 673 hip~ 20;
#X obj 117 697 outlet~;
#X obj 117 674 hip~ 20;
#X obj 227 262 r \$0-gate;
#X obj 338 262 r \$0-messages;
#X obj 502 108 inlet;
#X obj 502 181 i 1;
#X obj 502 131 t b b;
#X obj 540 188 i 0;
#X obj 502 220 s \$0-gate;
#X obj 540 165 del 1000;
#X obj 197 418 *~;
#X obj 19 178 +;
#X obj 147 82 r \$0-messages;
#X obj 147 106 dirt-param octave 0;
#X obj 19 550 analogue.amp~ 0;
#X obj 198 395 perc.envelope~ 0 50 300;
#X obj 612 505 r \$0-gate;
#X obj 612 528 sel 1;
#X obj 612 551 i 1;
#X obj 612 574 switch~;
#X obj 581 554 i 0;
#X obj 583 485 loadbang;
#X obj 521 550 delay;
#X obj 427 501 cycles-to-ms;
#X obj 399 467 t b 1;
#X msg 529 526 stop;
#X obj 19 510 hip~ 500;
#X obj 18 320 line~;
#X msg 18 297 \$1 0 \, 0 2;
#X obj 19 407 *~ 10;
#X obj 229 288 analogue.transient~ 0.7 75;
#X obj 196 439 *~ 1;
#X obj 19 487 dirt-moog-lp~ 1000 2;
#X obj 45 349 * 1;
#X obj 147 129 72;
#X obj 19 384 bp~ 800 50;
#X obj 20 105 dirt-param note 60;
#X obj 114 357 * 2;
#X obj 95 380 bp~ 800 10;
#X connect 1 0 3 0;
#X connect 1 1 2 0;
#X connect 4 0 53 0;
#X connect 5 0 27 1;
#X connect 5 0 50 0;
#X connect 5 0 54 0;
#X connect 6 0 45 0;
#X connect 8 0 49 0;
#X connect 9 0 32 0;
#X connect 10 0 32 1;
#X connect 11 0 49 3;
#X connect 14 0 13 0;
#X connect 15 0 31 1;
#X connect 16 0 12 0;
#X connect 18 0 17 0;
#X connect 19 0 47 0;
#X connect 20 0 47 1;
#X connect 21 0 23 0;
#X connect 22 0 25 0;
#X connect 23 0 22 0;
#X connect 23 1 26 0;
#X connect 24 0 25 0;
#X connect 26 0 24 0;
#X connect 27 0 48 0;
#X connect 28 0 5 0;
#X connect 29 0 30 0;
#X connect 30 0 51 0;
#X connect 31 0 16 0;
#X connect 31 1 18 0;
#X connect 32 0 8 1;
#X connect 32 0 27 0;
#X connect 32 1 41 0;
#X connect 33 0 34 0;
#X connect 34 0 35 0;
#X connect 34 0 42 0;
#X connect 35 0 36 0;
#X connect 37 0 36 0;
#X connect 38 0 37 0;
#X connect 39 0 37 0;
#X connect 40 0 39 1;
#X connect 41 0 39 0;
#X connect 41 1 40 0;
#X connect 42 0 39 0;
#X connect 43 0 31 0;
#X connect 44 0 52 0;
#X connect 44 0 55 0;
#X connect 45 0 44 0;
#X connect 46 0 8 0;
#X connect 47 0 49 0;
#X connect 48 0 49 1;
#X connect 49 0 43 0;
#X connect 50 0 52 1;
#X connect 51 0 28 1;
#X connect 52 0 46 0;
#X connect 53 0 28 0;
#X connect 54 0 55 1;
#X connect 55 0 46 0;
