#N canvas 455 100 960 980 10;
#X declare -path ../lib;
#X obj 23 4 declare -path ../lib;
#X obj 153 4 dirt-voice \$1;
#X obj 228 25 s \$0-messages;
#X obj 153 25 s \$0-gate;
#X obj 23 520 analogue.amp~;
#X obj 98 498 r \$0-messages;
#X obj 23 41 r \$0-messages;
#X obj 23 194 mtof;
#X obj 98 195 r \$0-messages;
#X obj 128 229 r \$0-messages;
#X obj 23 252 vibrato~ 0.1 0.666;
#X obj 23 482 *~;
#X obj 143 437 r \$0-messages;
#X obj 38 437 r \$0-gate;
#X obj 23 565 outlet~;
#X obj 98 565 outlet~;
#X obj 160 535 r \$0-messages;
#X obj 160 564 outlet;
#X obj 502 108 inlet;
#X obj 502 181 i 1;
#X obj 502 131 t b b;
#X obj 540 188 i 0;
#X obj 502 220 s \$0-gate;
#X obj 540 165 del 1000;
#X obj 23 169 + 36;
#X obj 147 52 r \$0-messages;
#X obj 147 76 dirt-param octave 0;
#X obj 147 99 * 12;
#X obj 486 491 r \$0-gate;
#X obj 486 514 sel 1;
#X obj 486 537 i 1;
#X obj 486 560 switch~;
#X obj 455 540 i 0;
#X obj 468 454 loadbang;
#N canvas 0 100 1528 897 operators 0;
#X obj 208 509 outlet~;
#X obj 122 10 inlet~;
#N canvas 516 398 832 528 fm.osc~ 0;
#X obj 51 123 inlet~;
#X obj 146 123 inlet~;
#X obj 283 123 inlet~;
#X text 315 329 maximum bandlimited index;
#X obj 136 357 expr~ $v1 * tanh($v2/$v1);
#X text 295 358 scaled bandlimited index;
#X obj 136 329 expr~ -($v1+$v2-16000)/2*$v2;
#X obj 131 176 *~;
#X text 156 177 modulation frequency;
#X obj 53 468 osc~;
#X obj 93 358 osc~;
#X obj 93 380 *~;
#X obj 53 512 outlet~;
#X connect 0 0 6 0;
#X connect 0 0 7 0;
#X connect 0 0 9 0;
#X connect 1 0 7 1;
#X connect 2 0 4 1;
#X connect 4 0 11 1;
#X connect 6 0 4 0;
#X connect 7 0 6 1;
#X connect 7 0 10 0;
#X connect 9 0 12 0;
#X connect 10 0 11 0;
#X connect 11 0 9 0;
#X restore 122 336 pd fm.osc~;
#X obj 191 140 ar~ 150 350;
#X obj 241 326 *~;
#X obj 269 7 inlet;
#X obj 181 8 inlet;
#X obj 259 99 cycles-to-ms;
#X obj 180 99 cycles-to-ms;
#X obj 191 169 *~;
#X obj 216 51 dirt-param op1-attack 0;
#X obj 191 188 *~;
#X obj 256 296 *~ 10000;
#X obj 259 79 dirt-param op1-release 1;
#N canvas 516 398 832 528 fm.osc~ 0;
#X obj 51 123 inlet~;
#X obj 146 123 inlet~;
#X obj 283 123 inlet~;
#X text 315 329 maximum bandlimited index;
#X obj 136 357 expr~ $v1 * tanh($v2/$v1);
#X text 295 358 scaled bandlimited index;
#X obj 136 329 expr~ -($v1+$v2-16000)/2*$v2;
#X obj 131 176 *~;
#X text 156 177 modulation frequency;
#X obj 53 468 osc~;
#X obj 93 358 osc~;
#X obj 93 380 *~;
#X obj 53 512 outlet~;
#X connect 0 0 6 0;
#X connect 0 0 7 0;
#X connect 0 0 9 0;
#X connect 1 0 7 1;
#X connect 2 0 4 1;
#X connect 4 0 11 1;
#X connect 6 0 4 0;
#X connect 7 0 6 1;
#X connect 7 0 10 0;
#X connect 9 0 12 0;
#X connect 10 0 11 0;
#X connect 11 0 9 0;
#X restore 385 331 pd fm.osc~;
#X obj 454 135 ar~ 150 350;
#X obj 504 321 *~;
#X obj 522 94 cycles-to-ms;
#X obj 443 94 cycles-to-ms;
#X obj 454 164 *~;
#X obj 454 183 *~;
#X obj 519 291 *~ 10000;
#X obj 208 485 *~ 0.5;
#X obj 18 166 *~;
#X obj 266 166 *~;
#X obj 33 141 dirt-param~ op1-tune 1;
#X obj 281 141 dirt-param~ op1-tune 0.5;
#X obj 172 226 dirt-param~ op1-ratio 0.75;
#X obj 435 221 dirt-param~ op2-ratio 1.5;
#X obj 522 74 dirt-param op2-release 0.333;
#X obj 479 46 dirt-param op2-attack 0.125;
#X obj 519 272 dirt-param~ op2-index 0.3;
#X obj 256 277 dirt-param~ op1-index 0.2;
#X connect 1 0 2 0;
#X connect 1 0 23 0;
#X connect 1 0 24 0;
#X connect 2 0 22 0;
#X connect 3 0 9 0;
#X connect 3 0 9 1;
#X connect 4 0 2 2;
#X connect 5 0 10 0;
#X connect 5 0 13 0;
#X connect 5 0 25 0;
#X connect 5 0 26 0;
#X connect 5 0 27 0;
#X connect 5 0 28 0;
#X connect 5 0 29 0;
#X connect 5 0 30 0;
#X connect 5 0 31 0;
#X connect 5 0 32 0;
#X connect 6 0 3 0;
#X connect 6 0 15 0;
#X connect 7 0 3 2;
#X connect 8 0 3 1;
#X connect 9 0 11 0;
#X connect 9 0 11 1;
#X connect 10 0 8 0;
#X connect 11 0 4 0;
#X connect 12 0 4 1;
#X connect 13 0 7 0;
#X connect 14 0 22 0;
#X connect 15 0 19 0;
#X connect 15 0 19 1;
#X connect 16 0 14 2;
#X connect 17 0 15 2;
#X connect 18 0 15 1;
#X connect 19 0 20 0;
#X connect 19 0 20 1;
#X connect 20 0 16 0;
#X connect 21 0 16 1;
#X connect 22 0 0 0;
#X connect 23 0 2 0;
#X connect 24 0 14 0;
#X connect 25 0 23 1;
#X connect 26 0 24 1;
#X connect 27 0 2 1;
#X connect 28 0 14 1;
#X connect 29 0 17 0;
#X connect 30 0 18 0;
#X connect 31 0 21 0;
#X connect 32 0 12 0;
#X restore 23 344 pd operators;
#X obj 92 319 r \$0-messages;
#X obj 51 290 r \$0-gate;
#X obj 23 65 dirt-param note 60;
#X obj 23 218 portmento~ 0;
#X obj 38 459 analogue.envelope~ 2 150 0.5 250;
#X obj 313 551 delay;
#X obj 339 512 cycles-to-ms;
#X obj 311 478 t b 1;
#X msg 369 482 stop;
#X connect 1 0 3 0;
#X connect 1 1 2 0;
#X connect 4 0 14 0;
#X connect 4 1 15 0;
#X connect 5 0 4 1;
#X connect 6 0 37 0;
#X connect 7 0 38 0;
#X connect 8 0 38 1;
#X connect 9 0 10 1;
#X connect 10 0 34 0;
#X connect 11 0 4 0;
#X connect 12 0 39 1;
#X connect 13 0 39 0;
#X connect 16 0 17 0;
#X connect 18 0 20 0;
#X connect 19 0 22 0;
#X connect 20 0 19 0;
#X connect 20 1 23 0;
#X connect 21 0 22 0;
#X connect 23 0 21 0;
#X connect 24 0 7 0;
#X connect 25 0 26 0;
#X connect 26 0 27 0;
#X connect 27 0 24 1;
#X connect 28 0 29 0;
#X connect 29 0 30 0;
#X connect 29 0 43 0;
#X connect 30 0 31 0;
#X connect 32 0 31 0;
#X connect 33 0 32 0;
#X connect 34 0 11 0;
#X connect 35 0 34 2;
#X connect 36 0 34 1;
#X connect 37 0 24 0;
#X connect 38 0 10 0;
#X connect 39 0 11 1;
#X connect 39 1 42 0;
#X connect 40 0 32 0;
#X connect 41 0 40 1;
#X connect 42 0 40 0;
#X connect 42 1 41 0;
#X connect 43 0 40 0;
