#N canvas 425 100 960 980 10;
#X declare -path ../lib;
#X obj 23 4 declare -path ../lib;
#X obj 228 25 s \$0-messages;
#X obj 153 25 s \$0-gate;
#X obj 23 520 analogue.amp~;
#X obj 98 498 r \$0-messages;
#X obj 23 41 r \$0-messages;
#X obj 23 194 mtof;
#X obj 98 195 r \$0-messages;
#X obj 128 229 r \$0-messages;
#X obj 23 252 vibrato~ 0.1 0.666;
#X obj 23 482 *~;
#X obj 181 413 r \$0-messages;
#X obj 64 415 r \$0-gate;
#X obj 23 565 outlet~;
#X obj 98 565 outlet~;
#X obj 160 535 r \$0-messages;
#X obj 160 564 outlet;
#X obj 502 108 inlet;
#X obj 502 181 i 1;
#X obj 502 131 t b b;
#X obj 540 188 i 0;
#X obj 502 220 s \$0-gate;
#X obj 540 165 del 1000;
#X obj 23 169 + 36;
#X obj 147 52 r \$0-messages;
#X obj 147 76 dirt-param octave 0;
#X obj 147 99 * 12;
#X obj 486 491 r \$0-gate;
#X obj 486 514 sel 1;
#X obj 486 537 i 1;
#X obj 486 560 switch~;
#X obj 455 540 i 0;
#X obj 468 454 loadbang;
#N canvas 0 100 1920 980 operators 0;
#X obj 271 357 outlet~;
#X obj 252 10 inlet~;
#X obj 271 333 *~ 0.5;
#X obj 44 160 fm.operator~, f 52;
#X obj 106 129 fm.operator-controls op1 0.75 1 0.1 0 1 0 0;
#X obj 44 221 fm.operator~, f 52;
#X obj 106 190 fm.operator-controls op3 1 0.2 0.125 0 0.5 1 0.75;
#X obj 419 160 fm.operator~, f 52;
#X obj 419 221 fm.operator~, f 52;
#X obj 481 190 fm.operator-controls op4 0.5 0.33 0 0.125 0.5 0 0.75
;
#X obj 482 129 fm.operator-controls op2 1.5 1 0.01 0.33 0.5 0 0;
#X obj 282 80 r \$0-messages;
#X obj 187 80 r \$0-gate;
#X obj 609 80 r \$0-messages;
#X obj 537 80 r \$0-gate;
#X connect 1 0 4 0;
#X connect 1 0 6 0;
#X connect 1 0 10 0;
#X connect 1 0 9 0;
#X connect 2 0 0 0;
#X connect 3 0 5 1;
#X connect 4 0 3 2;
#X connect 4 0 6 1;
#X connect 4 1 3 3;
#X connect 4 2 3 4;
#X connect 4 3 3 5;
#X connect 4 4 3 6;
#X connect 4 5 3 7;
#X connect 4 6 3 8;
#X connect 5 0 2 0;
#X connect 6 0 5 2;
#X connect 6 1 5 3;
#X connect 6 2 5 4;
#X connect 6 3 5 5;
#X connect 6 4 5 6;
#X connect 6 5 5 7;
#X connect 6 6 5 8;
#X connect 7 0 8 1;
#X connect 8 0 2 0;
#X connect 9 0 8 2;
#X connect 9 1 8 3;
#X connect 9 2 8 4;
#X connect 9 3 8 5;
#X connect 9 4 8 6;
#X connect 9 5 8 7;
#X connect 9 6 8 8;
#X connect 10 0 7 2;
#X connect 10 0 9 1;
#X connect 10 1 7 3;
#X connect 10 2 7 4;
#X connect 10 3 7 5;
#X connect 10 4 7 6;
#X connect 10 5 7 7;
#X connect 10 6 7 8;
#X connect 11 0 4 2;
#X connect 11 0 6 2;
#X connect 12 0 3 0;
#X connect 12 0 5 0;
#X connect 13 0 10 2;
#X connect 13 0 9 2;
#X connect 14 0 7 0;
#X connect 14 0 8 0;
#X restore 23 284 pd operators;
#X obj 23 65 dirt-param note 60;
#X obj 23 218 portmento~ 0;
#X obj 38 459 analogue.envelope~ 2 150 0.5 250;
#X obj 313 551 delay;
#X obj 339 512 cycles-to-ms;
#X obj 311 478 t b 1;
#X msg 369 482 stop;
#X obj 153 4 dirt-voice \$1;
#X connect 3 0 13 0;
#X connect 3 1 14 0;
#X connect 4 0 3 1;
#X connect 5 0 34 0;
#X connect 6 0 35 0;
#X connect 7 0 35 1;
#X connect 8 0 9 1;
#X connect 9 0 33 0;
#X connect 10 0 3 0;
#X connect 11 0 36 1;
#X connect 12 0 36 0;
#X connect 15 0 16 0;
#X connect 17 0 19 0;
#X connect 18 0 21 0;
#X connect 19 0 18 0;
#X connect 19 1 22 0;
#X connect 20 0 21 0;
#X connect 22 0 20 0;
#X connect 23 0 6 0;
#X connect 24 0 25 0;
#X connect 25 0 26 0;
#X connect 26 0 23 1;
#X connect 27 0 28 0;
#X connect 28 0 29 0;
#X connect 28 0 40 0;
#X connect 29 0 30 0;
#X connect 31 0 30 0;
#X connect 32 0 31 0;
#X connect 33 0 10 0;
#X connect 34 0 23 0;
#X connect 35 0 9 0;
#X connect 36 0 10 1;
#X connect 36 1 39 0;
#X connect 37 0 31 0;
#X connect 38 0 37 1;
#X connect 39 0 37 0;
#X connect 39 1 38 0;
#X connect 40 0 37 0;
#X connect 41 0 2 0;
#X connect 41 1 1 0;
