#N canvas 960 100 960 980 10;
#X declare -path ../lib;
#X obj 23 4 declare -path ../lib;
#X obj 228 25 s \$0-messages;
#X obj 153 25 s \$0-gate;
#X obj 23 520 analogue.amp~;
#X obj 98 498 r \$0-messages;
#X obj 23 41 r \$0-messages;
#X obj 23 194 mtof;
#X obj 98 195 r \$0-messages;
#X obj 128 229 r \$0-messages;
#X obj 23 252 vibrato~ 0.1 0.666;
#X obj 23 482 *~;
#X obj 181 413 r \$0-messages;
#X obj 64 415 r \$0-gate;
#X obj 23 565 outlet~;
#X obj 98 565 outlet~;
#X obj 160 535 r \$0-messages;
#X obj 160 564 outlet;
#X obj 502 108 inlet;
#X obj 502 181 i 1;
#X obj 502 131 t b b;
#X obj 540 188 i 0;
#X obj 502 220 s \$0-gate;
#X obj 540 165 del 1000;
#X obj 23 169 + 36;
#X obj 147 52 r \$0-messages;
#X obj 147 99 * 12;
#X obj 486 491 r \$0-gate;
#X obj 486 514 sel 1;
#X obj 486 537 i 1;
#X obj 486 560 switch~;
#X obj 455 540 i 0;
#X obj 471 454 loadbang;
#N canvas 960 100 960 980 operators 1;
#X obj 271 627 outlet~;
#X obj 252 10 inlet~;
#X obj 44 160 fm.operator~, f 52;
#X obj 44 221 fm.operator~, f 52;
#X obj 69 360 fm.operator~, f 52;
#X obj 69 421 fm.operator~, f 52;
#X obj 282 80 r \$0-messages;
#X obj 187 80 r \$0-gate;
#X obj 259 280 r \$0-messages;
#X obj 187 280 r \$0-gate;
#X obj 132 329 fm.operator-controls op3 1.5 0.4 0.01 0.01 0.5 0 0;
#X obj 106 190 fm.operator-controls op2 5 1 0.02 0 0.5 1 0.75;
#X obj 106 129 fm.operator-controls op1 0.75 0.125 0.6 0 1 0 0;
#X obj 131 390 fm.operator-controls op4 0.5 0.3 0.05 0 0.5 1 0.75;
#X connect 1 0 10 0;
#X connect 1 0 11 0;
#X connect 1 0 12 0;
#X connect 1 0 13 0;
#X connect 2 0 3 1;
#X connect 3 0 4 1;
#X connect 4 0 5 1;
#X connect 5 0 0 0;
#X connect 6 0 11 2;
#X connect 6 0 12 2;
#X connect 7 0 2 0;
#X connect 7 0 3 0;
#X connect 8 0 10 2;
#X connect 8 0 13 2;
#X connect 9 0 4 0;
#X connect 9 0 5 0;
#X connect 10 0 4 2;
#X connect 10 0 13 1;
#X connect 10 1 4 3;
#X connect 10 2 4 4;
#X connect 10 3 4 5;
#X connect 10 4 4 6;
#X connect 10 5 4 7;
#X connect 10 6 4 8;
#X connect 11 0 3 2;
#X connect 11 0 10 1;
#X connect 11 1 3 3;
#X connect 11 2 3 4;
#X connect 11 3 3 5;
#X connect 11 4 3 6;
#X connect 11 5 3 7;
#X connect 11 6 3 8;
#X connect 12 0 2 2;
#X connect 12 0 11 1;
#X connect 12 1 2 3;
#X connect 12 2 2 4;
#X connect 12 3 2 5;
#X connect 12 4 2 6;
#X connect 12 5 2 7;
#X connect 12 6 2 8;
#X connect 13 0 5 2;
#X connect 13 1 5 3;
#X connect 13 2 5 4;
#X connect 13 3 5 5;
#X connect 13 4 5 6;
#X connect 13 5 5 7;
#X connect 13 6 5 8;
#X restore 22 284 pd operators;
#X obj 23 218 portmento~ 0;
#X obj 38 459 analogue.envelope~ 2 150 0.5 250;
#X obj 313 551 delay;
#X obj 339 512 cycles-to-ms;
#X obj 311 478 t b 1;
#X msg 369 482 stop;
#X obj 153 4 dirt-voice \$1;
#X obj 147 76 dirt-param octave 0;
#X obj 23 65 dirt-param note 60;
#X connect 3 0 13 0;
#X connect 3 1 14 0;
#X connect 4 0 3 1;
#X connect 5 0 41 0;
#X connect 6 0 33 0;
#X connect 7 0 33 1;
#X connect 8 0 9 1;
#X connect 9 0 32 0;
#X connect 10 0 3 0;
#X connect 11 0 34 1;
#X connect 12 0 34 0;
#X connect 15 0 16 0;
#X connect 17 0 19 0;
#X connect 18 0 21 0;
#X connect 19 0 18 0;
#X connect 19 1 22 0;
#X connect 20 0 21 0;
#X connect 22 0 20 0;
#X connect 23 0 6 0;
#X connect 24 0 40 0;
#X connect 25 0 23 1;
#X connect 26 0 27 0;
#X connect 27 0 28 0;
#X connect 27 0 38 0;
#X connect 28 0 29 0;
#X connect 30 0 29 0;
#X connect 31 0 30 0;
#X connect 32 0 10 0;
#X connect 33 0 9 0;
#X connect 34 0 10 1;
#X connect 34 1 37 0;
#X connect 35 0 30 0;
#X connect 36 0 35 1;
#X connect 37 0 35 0;
#X connect 37 1 36 0;
#X connect 38 0 35 0;
#X connect 39 0 2 0;
#X connect 39 1 1 0;
#X connect 40 0 25 0;
#X connect 41 0 23 0;
