#N canvas 53 152 1178 740 10;
#X declare -path ../lib;
#X obj 19 4 declare -path ../lib;
#X obj 149 4 dirt-voice \$1;
#X obj 224 25 s \$0-messages;
#X obj 149 25 s \$0-gate;
#X obj 19 81 r \$0-messages;
#X obj 19 220 mtof;
#N canvas 330 100 1375 980 oscillator~ 0;
#X text 211 245 drum vibration - tone;
#X obj 250 299 inlet;
#X obj 350 871 outlet~;
#X obj 361 358 * 2500;
#X obj 401 607 vline~;
#X obj 425 346 expr 1 - $f1;
#X obj 487 224 inlet;
#X obj 386 676 +~;
#X obj 318 389 sel 1;
#X floatatom 467 456 5 0 0 0 - - -, f 5;
#X obj 361 388 + 1200;
#X msg 399 586 1 \, 0 \$1;
#X obj 401 647 *~;
#X obj 425 365 * 100;
#X obj 347 527 f 50;
#X obj 401 627 pow~ 2;
#X obj 201 298 inlet~;
#X obj 198 619 *~;
#X obj 270 707 *~;
#X obj 219 707 *~ 1000;
#X obj 495 307 dirt-param ramp-time 0.75;
#X obj 362 307 dirt-param ramp 0.1;
#X obj 213 735 fm.bandlimit-index~;
#X obj 142 666 fm.operator~ 4 75 0.25 300;
#X obj 244 621 dirt-param~ fb 1;
#X obj 238 589 dirt-param~ mod 0.5;
#X obj 240 551 dirt-param~ ratio 2;
#X obj 161 766 fm.operator~ 0 200 1 500;
#X connect 1 0 8 0;
#X connect 1 0 23 0;
#X connect 1 0 27 0;
#X connect 3 0 10 0;
#X connect 4 0 15 0;
#X connect 5 0 13 0;
#X connect 6 0 20 0;
#X connect 6 0 21 0;
#X connect 6 0 24 0;
#X connect 6 0 25 0;
#X connect 6 0 26 0;
#X connect 7 0 22 1;
#X connect 7 0 27 2;
#X connect 8 0 14 0;
#X connect 10 0 12 1;
#X connect 11 0 4 0;
#X connect 12 0 7 0;
#X connect 13 0 9 0;
#X connect 13 0 14 1;
#X connect 14 0 11 0;
#X connect 15 0 12 0;
#X connect 16 0 7 1;
#X connect 16 0 17 0;
#X connect 17 0 22 2;
#X connect 17 0 23 2;
#X connect 18 0 27 4;
#X connect 19 0 22 0;
#X connect 20 0 5 0;
#X connect 21 0 3 0;
#X connect 22 0 27 3;
#X connect 23 0 27 1;
#X connect 24 0 18 1;
#X connect 24 0 23 4;
#X connect 25 0 18 0;
#X connect 25 0 19 0;
#X connect 26 0 17 1;
#X connect 27 0 2 0;
#X coords 0 0 1 1 97 21 0;
#X restore 19 281 pd oscillator~;
#X obj 59 252 r \$0-gate;
#X obj 133 251 r \$0-messages;
#X obj 18 459 *~;
#X obj 197 362 r \$0-gate;
#X obj 332 362 r \$0-messages;
#X obj 19 616 outlet~;
#X obj 303 536 outlet;
#X obj 303 513 r \$0-messages;
#X obj 118 548 r \$0-messages;
#X obj 19 593 hip~ 20;
#X obj 117 617 outlet~;
#X obj 117 594 hip~ 20;
#X obj 502 108 inlet;
#X obj 502 181 i 1;
#X obj 502 131 t b b;
#X obj 540 188 i 0;
#X obj 502 220 s \$0-gate;
#X obj 540 165 del 1000;
#X obj 19 570 analogue.amp~ 0.2;
#X obj 147 81 r \$0-messages;
#X obj 147 128 * 12;
#X obj 19 178 +;
#X obj 19 243 sig~;
#X obj 197 384 perc.envelope~ 0 100 500;
#X obj 147 105 dirt-param octave 1;
#X obj 19 105 dirt-param note 0;
#X obj 600 451 r \$0-gate;
#X obj 600 474 sel 1;
#X obj 600 497 i 1;
#X obj 600 520 switch~;
#X obj 569 500 i 0;
#X obj 582 414 loadbang;
#X obj 427 511 delay;
#X obj 453 472 cycles-to-ms;
#X obj 425 438 t b 1;
#X msg 483 442 stop;
#X connect 1 0 3 0;
#X connect 1 1 2 0;
#X connect 4 0 32 0;
#X connect 5 0 29 0;
#X connect 6 0 9 0;
#X connect 7 0 6 1;
#X connect 8 0 6 2;
#X connect 9 0 25 0;
#X connect 10 0 30 0;
#X connect 11 0 30 1;
#X connect 14 0 13 0;
#X connect 15 0 25 1;
#X connect 16 0 12 0;
#X connect 18 0 17 0;
#X connect 19 0 21 0;
#X connect 20 0 23 0;
#X connect 21 0 20 0;
#X connect 21 1 24 0;
#X connect 22 0 23 0;
#X connect 24 0 22 0;
#X connect 25 0 16 0;
#X connect 25 1 18 0;
#X connect 26 0 31 0;
#X connect 27 0 28 1;
#X connect 28 0 5 0;
#X connect 29 0 6 0;
#X connect 30 0 9 1;
#X connect 30 1 41 0;
#X connect 31 0 27 0;
#X connect 32 0 28 0;
#X connect 33 0 34 0;
#X connect 34 0 35 0;
#X connect 34 0 42 0;
#X connect 35 0 36 0;
#X connect 37 0 36 0;
#X connect 38 0 37 0;
#X connect 39 0 37 0;
#X connect 40 0 39 1;
#X connect 41 0 39 0;
#X connect 41 1 40 0;
#X connect 42 0 39 0;
