#N canvas 567 302 1178 740 10;
#X declare -path ../lib;
#X obj 19 4 declare -path ../lib;
#X obj 149 4 dirt-voice \$1;
#X obj 224 25 s \$0-messages;
#X obj 149 25 s \$0-gate;
#X obj 19 81 r \$0-messages;
#X obj 19 220 mtof;
#N canvas 0 100 1920 980 oscillator~ 0;
#X text 211 15 drum vibration - tone;
#X obj 248 54 inlet;
#X obj 168 550 outlet~;
#X obj 290 54 inlet;
#X obj 145 67 inlet~;
#X obj 198 184 *~;
#X obj 291 207 *~;
#X obj 197 357 *~ 1.37;
#X obj 347 356 *~ -1.22;
#X obj 42 357 *~ 1.41;
#X obj 168 516 *~ 0.333;
#X obj 60 407 fm.bandlimit-index~;
#X obj 215 407 fm.bandlimit-index~;
#X obj 360 407 fm.bandlimit-index~;
#X obj 236 191 *~ 10000;
#X obj 240 117 dirt-param~ ratio 4.5;
#X obj 346 184 dirt-param~ fb 0.37;
#X obj 8 446 fm.operator~ 4 345 0.8 500;
#X obj 342 446 fm.operator~ 10 350 0.9 500;
#X obj 172 447 fm.operator~ 5 300 0.77 500;
#X obj 39 265 fm.operator~ 0 200 0.25 500;
#X obj 293 153 dirt-param~ mod 0.75;
#X connect 1 0 17 0;
#X connect 1 0 18 0;
#X connect 1 0 19 0;
#X connect 1 0 20 0;
#X connect 3 0 15 0;
#X connect 3 0 16 0;
#X connect 3 0 21 0;
#X connect 4 0 5 0;
#X connect 4 0 20 2;
#X connect 5 0 7 0;
#X connect 5 0 9 0;
#X connect 5 0 8 0;
#X connect 5 0 11 1;
#X connect 5 0 12 1;
#X connect 5 0 13 1;
#X connect 6 0 20 4;
#X connect 7 0 12 2;
#X connect 7 0 19 2;
#X connect 8 0 13 2;
#X connect 8 0 18 2;
#X connect 9 0 11 2;
#X connect 9 0 17 2;
#X connect 10 0 2 0;
#X connect 11 0 17 3;
#X connect 12 0 19 3;
#X connect 13 0 18 3;
#X connect 14 0 11 0;
#X connect 14 0 12 0;
#X connect 14 0 13 0;
#X connect 15 0 5 1;
#X connect 16 0 6 1;
#X connect 16 0 17 4;
#X connect 16 0 18 4;
#X connect 16 0 19 4;
#X connect 17 0 10 0;
#X connect 18 0 10 0;
#X connect 19 0 10 0;
#X connect 20 0 17 1;
#X connect 20 0 18 1;
#X connect 20 0 19 1;
#X connect 21 0 6 0;
#X connect 21 0 14 0;
#X coords 0 0 1 1 97 21 0;
#X restore 19 281 pd oscillator~;
#X obj 59 252 r \$0-gate;
#X obj 133 251 r \$0-messages;
#X obj 18 459 *~;
#X obj 197 362 r \$0-gate;
#X obj 332 362 r \$0-messages;
#X obj 19 616 outlet~;
#X obj 303 536 outlet;
#X obj 303 513 r \$0-messages;
#X obj 118 548 r \$0-messages;
#X obj 19 593 hip~ 20;
#X obj 117 617 outlet~;
#X obj 117 594 hip~ 20;
#X obj 502 108 inlet;
#X obj 502 181 i 1;
#X obj 502 131 t b b;
#X obj 540 188 i 0;
#X obj 502 220 s \$0-gate;
#X obj 540 165 del 1000;
#X obj 19 570 analogue.amp~ 0.2;
#X obj 147 81 r \$0-messages;
#X obj 147 128 * 12;
#X obj 19 178 +;
#X obj 19 243 sig~;
#X obj 15 536 hip~ 10000;
#X obj 19 304 *~ 0.75;
#X obj 147 105 dirt-param octave 0;
#X obj 18 104 dirt-param note 72;
#X obj 18 482 bp~ 8500 1;
#X obj 199 388 perc.envelope~ 0 300 800;
#X obj 600 451 r \$0-gate;
#X obj 600 474 sel 1;
#X obj 600 497 i 1;
#X obj 600 520 switch~;
#X obj 569 500 i 0;
#X obj 582 414 loadbang;
#X obj 427 511 delay;
#X obj 453 472 cycles-to-ms;
#X obj 425 438 t b 1;
#X msg 483 442 stop;
#X connect 1 0 3 0;
#X connect 1 1 2 0;
#X connect 4 0 33 0;
#X connect 5 0 29 0;
#X connect 6 0 31 0;
#X connect 7 0 6 1;
#X connect 8 0 6 2;
#X connect 9 0 34 0;
#X connect 10 0 35 0;
#X connect 11 0 35 1;
#X connect 14 0 13 0;
#X connect 15 0 25 1;
#X connect 16 0 12 0;
#X connect 18 0 17 0;
#X connect 19 0 21 0;
#X connect 20 0 23 0;
#X connect 21 0 20 0;
#X connect 21 1 24 0;
#X connect 22 0 23 0;
#X connect 24 0 22 0;
#X connect 25 0 16 0;
#X connect 25 1 18 0;
#X connect 26 0 32 0;
#X connect 27 0 28 1;
#X connect 28 0 5 0;
#X connect 29 0 6 0;
#X connect 30 0 25 0;
#X connect 31 0 9 0;
#X connect 32 0 27 0;
#X connect 33 0 28 0;
#X connect 34 0 30 0;
#X connect 35 0 9 1;
#X connect 35 1 44 0;
#X connect 36 0 37 0;
#X connect 37 0 38 0;
#X connect 37 0 45 0;
#X connect 38 0 39 0;
#X connect 40 0 39 0;
#X connect 41 0 40 0;
#X connect 42 0 40 0;
#X connect 43 0 42 1;
#X connect 44 0 42 0;
#X connect 44 1 43 0;
#X connect 45 0 42 0;
