#N canvas 645 340 1178 740 10;
#X declare -path ../lib;
#X obj 19 4 declare -path ../lib;
#X obj 149 4 dirt-voice \$1;
#X obj 224 25 s \$0-messages;
#X obj 149 25 s \$0-gate;
#X obj 19 81 r \$0-messages;
#X obj 19 220 mtof;
#N canvas 0 100 1920 980 oscillator~ 0;
#X text 211 15 drum vibration - tone;
#X obj 248 54 inlet;
#X obj 168 550 outlet~;
#X obj 290 54 inlet;
#X obj 199 53 inlet~;
#X obj 198 184 *~;
#X obj 237 191 *~ 1000;
#X obj 291 207 *~;
#X obj 104 283 fm.operator~ 5 50 0.5 500;
#X obj 197 357 *~ 1.37;
#X obj 347 356 *~ -1.22;
#X obj 42 357 *~ 1.41;
#X obj 168 516 *~ 0.333;
#X obj 313 446 fm.operator~ 0 150 1 300;
#X obj 163 446 fm.operator~ 0 100 1 300;
#X obj 8 446 fm.operator~ 0 145 1 300;
#X obj 293 154 dirt-param~ mod 0.33;
#X obj 240 117 dirt-param~ ratio 3;
#X obj 346 183 dirt-param~ fb 0.5;
#X obj 60 407 fm.bandlimit-index~;
#X obj 215 407 fm.bandlimit-index~;
#X obj 360 407 fm.bandlimit-index~;
#X connect 1 0 8 0;
#X connect 1 0 13 0;
#X connect 1 0 14 0;
#X connect 1 0 15 0;
#X connect 3 0 16 0;
#X connect 3 0 17 0;
#X connect 3 0 18 0;
#X connect 4 0 5 0;
#X connect 5 0 9 0;
#X connect 5 0 11 0;
#X connect 5 0 10 0;
#X connect 5 0 19 1;
#X connect 5 0 20 1;
#X connect 5 0 21 1;
#X connect 6 0 19 0;
#X connect 6 0 20 0;
#X connect 6 0 21 0;
#X connect 7 0 8 4;
#X connect 8 0 13 1;
#X connect 8 0 14 1;
#X connect 8 0 15 1;
#X connect 9 0 14 2;
#X connect 9 0 20 2;
#X connect 10 0 13 2;
#X connect 10 0 21 2;
#X connect 11 0 15 2;
#X connect 11 0 19 2;
#X connect 12 0 2 0;
#X connect 13 0 12 0;
#X connect 14 0 12 0;
#X connect 15 0 12 0;
#X connect 16 0 6 0;
#X connect 16 0 7 0;
#X connect 17 0 5 1;
#X connect 18 0 7 1;
#X connect 18 0 13 4;
#X connect 18 0 14 4;
#X connect 18 0 15 4;
#X connect 19 0 15 3;
#X connect 20 0 14 3;
#X connect 21 0 13 3;
#X coords 0 0 1 1 97 21 0;
#X restore 19 281 pd oscillator~;
#X obj 59 252 r \$0-gate;
#X obj 133 251 r \$0-messages;
#X obj 18 459 *~;
#X obj 197 362 r \$0-gate;
#X obj 332 362 r \$0-messages;
#X obj 19 616 outlet~;
#X obj 303 536 outlet;
#X obj 303 513 r \$0-messages;
#X obj 118 548 r \$0-messages;
#X obj 19 593 hip~ 20;
#X obj 117 617 outlet~;
#X obj 117 594 hip~ 20;
#X obj 502 108 inlet;
#X obj 502 181 i 1;
#X obj 502 131 t b b;
#X obj 540 188 i 0;
#X obj 502 220 s \$0-gate;
#X obj 540 165 del 1000;
#X obj 19 570 analogue.amp~ 0.2;
#X obj 147 81 r \$0-messages;
#X obj 147 128 * 12;
#X obj 19 178 +;
#X obj 482 456 r \$0-gate;
#X obj 482 479 sel 1;
#X obj 482 502 i 1;
#X obj 482 525 switch~;
#X obj 451 505 i 0;
#X obj 454 406 loadbang;
#X obj 19 243 sig~;
#X obj 18 482 bp~ 8000 1;
#X obj 147 105 dirt-param octave 0;
#X obj 19 105 dirt-param note 88;
#X obj 15 536 hip~ 10000;
#X obj 19 304 *~ 0.75;
#X obj 196 384 perc.envelope~ 0 150 100;
#X connect 1 0 3 0;
#X connect 1 1 2 0;
#X connect 4 0 38 0;
#X connect 5 0 35 0;
#X connect 6 0 40 0;
#X connect 7 0 6 1;
#X connect 8 0 6 2;
#X connect 9 0 36 0;
#X connect 10 0 41 0;
#X connect 11 0 41 1;
#X connect 14 0 13 0;
#X connect 15 0 25 1;
#X connect 16 0 12 0;
#X connect 18 0 17 0;
#X connect 19 0 21 0;
#X connect 20 0 23 0;
#X connect 21 0 20 0;
#X connect 21 1 24 0;
#X connect 22 0 23 0;
#X connect 24 0 22 0;
#X connect 25 0 16 0;
#X connect 25 1 18 0;
#X connect 26 0 37 0;
#X connect 27 0 28 1;
#X connect 28 0 5 0;
#X connect 29 0 30 0;
#X connect 30 0 31 0;
#X connect 31 0 32 0;
#X connect 33 0 32 0;
#X connect 34 0 33 0;
#X connect 35 0 6 0;
#X connect 36 0 39 0;
#X connect 37 0 27 0;
#X connect 38 0 28 0;
#X connect 39 0 25 0;
#X connect 40 0 9 0;
#X connect 41 0 9 1;
