#N canvas 398 184 1440 714 10;
#X declare -path ./lib;
#X declare -path ./synths;
#N canvas 0 100 1088 841 snare-synth~ 0;
#X obj 155 38 *~;
#X obj 138 -256 bng 60 250 50 0 play-drum empty empty 17 7 0 10 -262144
-1 -1;
#X floatatom 162 92 5 0 0 0 - - -, f 5;
#X floatatom 182 92 5 0 0 0 - - -, f 5;
#X obj 162 79 unpack;
#X obj 162 56 loadbang;
#X obj 155 106 bob~;
#X msg 162 68 300 2;
#X obj 155 198 *~ 2;
#X floatatom 414 -116 5 0 127 0 softness #0-set-softness #0-softness
, f 5;
#X floatatom 414 -106 5 0 127 0 dirt #0-set-dirt #0-dirt, f 5;
#X floatatom 414 -96 5 0 127 0 size #0-set-size #0-size, f 5;
#X obj 187 -177 / 127;
#X obj 187 -151 + 5;
#X obj 187 -166 * 25;
#X obj 329 -214 loadbang;
#X obj 207 -164 / 127;
#X obj 276 60 / 127;
#X obj 276 86 + 1.05;
#X obj 276 49 r \$0-dirt;
#X obj 240 -62 / 127;
#X obj 240 -50 * 8;
#X obj 240 -36 + 1.05;
#X obj 240 -73 r \$0-dirt;
#X obj 231 -20 *~;
#X obj 234 -154 / 127;
#X obj 195 42 / 127;
#X obj 195 75 + 78;
#X obj 234 -128 + 33;
#X obj 207 -138 + 25;
#X obj 276 71 * 6;
#X obj 195 53 expr 1-$f1;
#X obj 230 42 / 127;
#X obj 231 76 + 1;
#N canvas 1124 112 754 562 envelope~ 0;
#X obj 397 859 *~;
#X obj 397 837 *~;
#X obj 317 158 inlet;
#X obj 509 239 inlet;
#X obj 559 265 inlet;
#X obj 613 295 inlet;
#X obj 397 881 outlet~;
#X obj 265 371 f;
#X obj 305 371 f;
#X obj 335 371 f;
#X obj 254 290 t b b b, f 12;
#X obj 316 495 +;
#X obj 286 455 + 4;
#X obj 254 420 t a a;
#X obj 233 725 vline~;
#X msg 180 641 0.95 \$1 4;
#X msg 555 642 0 4 0;
#X obj 260 645 pack 0.95 75 11;
#X obj 176 555 t b b a;
#X obj 380 645 pack 0 50 86;
#X obj 481 835 delay;
#X obj 349 521 +;
#X obj 519 996 outlet;
#X connect 0 0 6 0;
#X connect 1 0 0 0;
#X connect 1 0 0 1;
#X connect 2 0 10 0;
#X connect 3 0 7 1;
#X connect 4 0 8 0;
#X connect 5 0 9 0;
#X connect 7 0 13 0;
#X connect 8 0 11 1;
#X connect 8 0 17 1;
#X connect 9 0 19 1;
#X connect 9 0 21 1;
#X connect 10 0 7 0;
#X connect 10 1 8 0;
#X connect 10 2 9 0;
#X connect 10 2 16 0;
#X connect 11 0 19 2;
#X connect 11 0 21 0;
#X connect 12 0 11 0;
#X connect 12 0 17 2;
#X connect 13 0 18 0;
#X connect 13 1 12 0;
#X connect 14 0 1 0;
#X connect 14 0 1 1;
#X connect 15 0 14 0;
#X connect 16 0 14 0;
#X connect 17 0 14 0;
#X connect 18 0 19 0;
#X connect 18 0 20 0;
#X connect 18 1 17 0;
#X connect 18 2 15 0;
#X connect 19 0 14 0;
#X connect 20 0 22 0;
#X connect 21 0 20 1;
#X restore 184 -93 pd envelope~;
#N canvas 960 27 960 982 oscillator~ 0;
#X obj 455 743 osc~;
#X text 493 137 drum vibration - tone;
#X obj 250 299 inlet;
#X obj 346 874 outlet~;
#X obj 596 507 delay 50;
#X msg 651 532 100 100;
#X obj 651 489 delay 75;
#X obj 361 336 / 127;
#X obj 361 358 * 2500;
#X obj 361 388 + 2500;
#X obj 357 448 f 2500;
#X msg 596 550 65 75;
#X obj 536 487 delay 10;
#X msg 520 580 75 \$1;
#X obj 455 549 vline~;
#X obj 361 314 r \$0-softness;
#X obj 807 331 inlet~;
#X obj 474 632 *~;
#X msg 456 510 \$1 \, 400 10;
#X obj 536 509 f 15;
#X connect 0 0 3 0;
#X connect 2 0 10 0;
#X connect 2 0 12 0;
#X connect 4 0 11 0;
#X connect 4 0 6 0;
#X connect 5 0 0 0;
#X connect 6 0 5 0;
#X connect 7 0 8 0;
#X connect 8 0 9 0;
#X connect 9 0 10 1;
#X connect 10 0 18 0;
#X connect 11 0 14 0;
#X connect 12 0 4 0;
#X connect 12 0 19 0;
#X connect 13 0 14 0;
#X connect 14 0 17 0;
#X connect 15 0 7 0;
#X connect 16 0 17 1;
#X connect 17 0 0 0;
#X connect 18 0 14 0;
#X connect 19 0 13 0;
#X coords 0 0 1 1 97 21 0;
#X restore 125 -42 pd oscillator~;
#N canvas 960 100 960 980 transient~ 0;
#X text 387 202 transient - noise;
#X obj 344 465 *~;
#X obj 374 441 *~;
#X obj 374 419 *~;
#X obj 373 378 line~;
#X obj 371 227 inlet;
#X obj 342 515 outlet~;
#X msg 371 259 1 \, 0 150;
#X obj 341 204 noise~;
#X connect 1 0 6 0;
#X connect 2 0 1 1;
#X connect 3 0 2 0;
#X connect 3 0 2 1;
#X connect 4 0 3 0;
#X connect 4 0 3 1;
#X connect 5 0 7 0;
#X connect 7 0 4 0;
#X connect 8 0 1 0;
#X coords 0 0 1 1 175 125 0;
#X restore 231 -92 pd transient~;
#X obj 121 -149 t b b b;
#X obj 138 -270 inlet;
#X obj 156 287 outlet~;
#X obj 289 -4 / 127;
#X obj 289 6 * 1;
#X obj 289 21 + 2;
#X obj 129 162 hip~ 400;
#X obj 250 42 / 127;
#X obj 251 76 + 1;
#X obj 231 59 f;
#X obj 289 32 t b a;
#X obj 195 63 * 1500;
#X obj 211 -281 inlet;
#X obj 266 -281 inlet;
#X obj 311 -281 inlet;
#X floatatom 241 -114 5 0 0 0 - - -, f 5;
#X floatatom 212 -120 5 0 0 0 - - -, f 5;
#X obj 234 -143 * 200;
#X obj 207 -153 * 300;
#X msg 329 -203 \; set-softness 7 \; set-size 22 \; set-dirt 34;
#X obj 211 -270 s set-softness;
#X obj 266 -243 s set-dirt;
#X obj 311 -270 s set-size;
#X obj 207 -203 r softness;
#X obj 250 -222 r size;
#X obj 253 -180 r size;
#X obj 327 -40 r size;
#X obj 215 21 r softness;
#X obj 155 251 *~ 0.75;
#X obj 155 232 saturation~;
#X connect 0 0 6 0;
#X connect 1 0 37 0;
#X connect 2 0 6 1;
#X connect 3 0 6 2;
#X connect 4 0 2 0;
#X connect 4 1 3 0;
#X connect 5 0 7 0;
#X connect 6 0 43 0;
#X connect 7 0 4 0;
#X connect 8 0 66 0;
#X connect 12 0 14 0;
#X connect 13 0 34 1;
#X connect 14 0 13 0;
#X connect 15 0 56 0;
#X connect 16 0 55 0;
#X connect 17 0 30 0;
#X connect 18 0 8 1;
#X connect 19 0 17 0;
#X connect 20 0 21 0;
#X connect 21 0 22 0;
#X connect 22 0 24 1;
#X connect 23 0 20 0;
#X connect 24 0 35 1;
#X connect 25 0 54 0;
#X connect 26 0 31 0;
#X connect 27 0 2 0;
#X connect 28 0 34 3;
#X connect 28 0 52 0;
#X connect 29 0 34 2;
#X connect 29 0 53 0;
#X connect 30 0 18 0;
#X connect 31 0 48 0;
#X connect 32 0 46 0;
#X connect 33 0 3 0;
#X connect 34 0 0 1;
#X connect 35 0 0 0;
#X connect 36 0 24 0;
#X connect 36 0 6 0;
#X connect 37 0 34 0;
#X connect 37 1 36 0;
#X connect 37 2 35 0;
#X connect 38 0 1 0;
#X connect 40 0 41 0;
#X connect 41 0 42 0;
#X connect 42 0 47 0;
#X connect 43 0 8 0;
#X connect 44 0 45 0;
#X connect 46 0 33 0;
#X connect 47 0 46 0;
#X connect 47 1 33 1;
#X connect 48 0 27 0;
#X connect 49 0 57 0;
#X connect 50 0 58 0;
#X connect 51 0 59 0;
#X connect 54 0 28 0;
#X connect 55 0 29 0;
#X connect 60 0 12 0;
#X connect 61 0 16 0;
#X connect 62 0 25 0;
#X connect 63 0 40 0;
#X connect 64 0 26 0;
#X connect 64 0 32 0;
#X connect 64 0 44 0;
#X connect 65 0 39 0;
#X connect 66 0 65 0;
#X restore 40 358 pd snare-synth~;
#X obj 39 288 bng 15 250 50 0 empty empty empty 17 7 0 10 -262144 -1
-1;
#N canvas 0 100 1073 797 bd-synth~ 0;
#X obj 179 157 *~;
#X obj 207 -118 bng 60 250 50 0 play-drum empty empty 17 7 0 10 -262144
-1 -1;
#X floatatom 231 230 5 0 0 0 - - -, f 5;
#X floatatom 251 230 5 0 0 0 - - -, f 5;
#X obj 231 217 unpack;
#X obj 231 193 loadbang;
#X msg 231 205 300 2;
#X floatatom 92 57 5 0 127 0 softness set-softness softness, f 5;
#X floatatom 92 67 5 0 127 0 dirt set-dirt dirt, f 5;
#X floatatom 92 77 5 0 127 0 size set-size size, f 5;
#X obj 256 -40 / 127;
#X obj 256 -14 + 5;
#X obj 256 -29 * 25;
#X obj 397 -76 loadbang;
#X obj 276 -27 / 127;
#X obj 276 -16 * 250;
#X obj 337 244 + 1.05;
#X obj 308 75 / 127;
#X obj 308 87 * 8;
#X obj 308 101 + 1.05;
#X obj 299 117 *~;
#X obj 303 -17 / 127;
#X obj 303 -6 * 150;
#X obj 264 180 / 127;
#X obj 264 201 * 300;
#X obj 264 213 + 78;
#X obj 303 9 + 33;
#X obj 276 -1 + 25;
#X obj 264 190 expr 1-$f1;
#X obj 299 180 / 127;
#X obj 299 213 + 1;
#N canvas 1144 128 754 562 envelope~ 0;
#X obj 397 859 *~;
#X obj 397 837 *~;
#X obj 317 158 inlet;
#X obj 509 239 inlet;
#X obj 559 265 inlet;
#X obj 613 295 inlet;
#X obj 397 881 outlet~;
#X obj 265 371 f;
#X obj 305 371 f;
#X obj 335 371 f;
#X obj 254 290 t b b b, f 12;
#X obj 316 495 +;
#X obj 286 455 + 4;
#X obj 254 420 t a a;
#X obj 233 725 vline~;
#X msg 180 641 0.95 \$1 4;
#X msg 555 642 0 4 0;
#X obj 260 645 pack 0.95 75 11;
#X obj 176 555 t b b a;
#X obj 380 645 pack 0 50 86;
#X obj 481 835 delay;
#X obj 349 521 +;
#X obj 519 996 outlet;
#X connect 0 0 6 0;
#X connect 1 0 0 0;
#X connect 1 0 0 1;
#X connect 2 0 10 0;
#X connect 3 0 7 1;
#X connect 4 0 8 0;
#X connect 5 0 9 0;
#X connect 7 0 13 0;
#X connect 8 0 11 1;
#X connect 8 0 17 1;
#X connect 9 0 19 1;
#X connect 9 0 21 1;
#X connect 10 0 7 0;
#X connect 10 1 8 0;
#X connect 10 2 9 0;
#X connect 10 2 16 0;
#X connect 11 0 19 2;
#X connect 11 0 21 0;
#X connect 12 0 11 0;
#X connect 12 0 17 2;
#X connect 13 0 18 0;
#X connect 13 1 12 0;
#X connect 14 0 1 0;
#X connect 14 0 1 1;
#X connect 15 0 14 0;
#X connect 16 0 14 0;
#X connect 17 0 14 0;
#X connect 18 0 19 0;
#X connect 18 0 20 0;
#X connect 18 1 17 0;
#X connect 18 2 15 0;
#X connect 19 0 14 0;
#X connect 20 0 22 0;
#X connect 21 0 20 1;
#X restore 195 79 pd envelope~;
#N canvas 540 100 1375 980 oscillator~ 0;
#X obj 455 573 osc~;
#X text 493 137 drum vibration - tone;
#X obj 250 299 inlet;
#X obj 346 704 outlet~;
#X obj 596 507 delay 50;
#X msg 651 532 100 100;
#X obj 651 489 delay 75;
#X obj 361 336 / 127;
#X obj 361 358 * 2500;
#X obj 361 388 + 2500;
#X obj 357 448 f 2500;
#X obj 553 326 / 127;
#X obj 553 378 + 15;
#X obj 553 348 * 50;
#X msg 596 550 65 75;
#X obj 536 487 delay 10;
#X msg 520 580 75 \$1;
#X obj 536 509 f 15;
#X obj 455 549 vline~;
#X obj 425 439 + 10;
#X obj 416 475 pack;
#X obj 405 338 expr 1 - $f1;
#X msg 456 510 \$1 \, 0 \$2;
#X obj 425 369 pow 8;
#X obj 361 314 r softness;
#X obj 553 304 r size;
#X obj 425 414 * 5;
#X connect 0 0 3 0;
#X connect 2 0 10 0;
#X connect 2 0 15 0;
#X connect 4 0 14 0;
#X connect 4 0 6 0;
#X connect 5 0 0 0;
#X connect 6 0 5 0;
#X connect 7 0 8 0;
#X connect 7 0 21 0;
#X connect 8 0 9 0;
#X connect 9 0 10 1;
#X connect 10 0 20 0;
#X connect 11 0 13 0;
#X connect 12 0 4 1;
#X connect 12 0 17 1;
#X connect 13 0 12 0;
#X connect 14 0 18 0;
#X connect 15 0 4 0;
#X connect 15 0 17 0;
#X connect 16 0 18 0;
#X connect 17 0 16 0;
#X connect 18 0 0 0;
#X connect 19 0 20 1;
#X connect 20 0 22 0;
#X connect 21 0 23 0;
#X connect 22 0 18 0;
#X connect 23 0 26 0;
#X connect 24 0 7 0;
#X connect 25 0 11 0;
#X connect 26 0 19 0;
#X coords 0 0 1 1 97 21 0;
#X restore 134 42 pd oscillator~;
#N canvas 960 100 960 980 transient~ 0;
#X text 387 202 transient - noise;
#X obj 344 465 *~;
#X obj 374 441 *~;
#X obj 374 419 *~;
#X obj 373 378 line~;
#X obj 371 227 inlet;
#X obj 342 515 outlet~;
#X msg 371 259 1 \, 0 100;
#X obj 341 204 noise~;
#X connect 1 0 6 0;
#X connect 2 0 1 1;
#X connect 3 0 2 0;
#X connect 3 0 2 1;
#X connect 4 0 3 0;
#X connect 4 0 3 1;
#X connect 5 0 7 0;
#X connect 7 0 4 0;
#X connect 8 0 1 0;
#X coords 0 0 1 1 175 125 0;
#X restore 299 45 pd transient~;
#X obj 190 -11 t b b b;
#X obj 215 -150 inlet;
#X obj 167 370 outlet~;
#X obj 210 267 hip~ 20;
#X obj 297 -147 inlet;
#X msg 397 -50 \; set-softness 7 \; set-size 22 \; set-dirt 22;
#X obj 271 -61 r softness;
#X obj 291 -48 r size;
#X obj 318 -38 r size;
#X obj 372 69 r dirt;
#X obj 283 159 r softness;
#X obj 353 148 dirt-param shape;
#X obj 182 243 bob~;
#X obj 186 334 saturation~;
#X obj 344 221 * 8;
#X obj 201 291 *~ 2;
#X connect 0 0 46 0;
#X connect 1 0 34 0;
#X connect 2 0 46 1;
#X connect 3 0 46 2;
#X connect 4 0 2 0;
#X connect 4 1 3 0;
#X connect 5 0 6 0;
#X connect 6 0 4 0;
#X connect 10 0 12 0;
#X connect 11 0 31 1;
#X connect 12 0 11 0;
#X connect 13 0 39 0;
#X connect 14 0 15 0;
#X connect 15 0 27 0;
#X connect 16 0 49 1;
#X connect 17 0 18 0;
#X connect 18 0 19 0;
#X connect 19 0 20 1;
#X connect 20 0 0 0;
#X connect 21 0 22 0;
#X connect 22 0 26 0;
#X connect 23 0 28 0;
#X connect 24 0 25 0;
#X connect 25 0 2 0;
#X connect 26 0 31 3;
#X connect 27 0 31 2;
#X connect 28 0 24 0;
#X connect 29 0 30 0;
#X connect 30 0 3 0;
#X connect 31 0 0 1;
#X connect 32 0 0 0;
#X connect 33 0 20 0;
#X connect 34 0 31 0;
#X connect 34 1 33 0;
#X connect 34 2 32 0;
#X connect 35 0 1 0;
#X connect 37 0 49 0;
#X connect 38 0 45 0;
#X connect 40 0 10 0;
#X connect 41 0 14 0;
#X connect 42 0 21 0;
#X connect 43 0 17 0;
#X connect 44 0 23 0;
#X connect 44 0 29 0;
#X connect 45 0 48 0;
#X connect 46 0 37 0;
#X connect 47 0 36 0;
#X connect 48 0 16 0;
#X connect 49 0 47 0;
#X restore 294 338 pd bd-synth~;
#X obj 86 400 *~;
#N canvas 0 100 1073 797 hh-synth~ 0;
#X obj 169 143 *~;
#X obj 207 -118 bng 60 250 50 0 play-drum empty empty 17 7 0 10 -262144
-1 -1;
#X floatatom 207 225 5 0 0 0 - - -, f 5;
#X floatatom 248 226 5 0 0 0 - - -, f 5;
#X obj 196 198 unpack;
#X obj 195 174 loadbang;
#X obj 168 254 bob~;
#X floatatom 92 57 5 0 127 0 softness set-softness softness, f 5;
#X floatatom 92 67 5 0 127 0 dirt set-dirt dirt, f 5;
#X floatatom 92 77 5 0 127 0 size set-size size, f 5;
#X obj 256 -40 / 127;
#X obj 244 -8 + 5;
#X obj 256 -29 * 25;
#X obj 397 -76 loadbang;
#X obj 276 -27 / 127;
#X obj 345 198 / 127;
#X obj 345 224 + 1.05;
#X obj 303 -17 / 127;
#X obj 303 -6 * 150;
#X obj 303 9 + 33;
#X obj 276 -1 + 25;
#X obj 345 209 * 6;
#N canvas 1144 128 754 562 envelope~ 0;
#X obj 397 859 *~;
#X obj 397 837 *~;
#X obj 317 158 inlet;
#X obj 509 239 inlet;
#X obj 559 265 inlet;
#X obj 613 295 inlet;
#X obj 397 881 outlet~;
#X obj 265 371 f;
#X obj 305 371 f;
#X obj 335 371 f;
#X obj 254 290 t b b b, f 12;
#X obj 316 495 +;
#X obj 286 455 + 4;
#X obj 254 420 t a a;
#X obj 233 725 vline~;
#X msg 180 641 0.95 \$1 4;
#X msg 555 642 0 4 0;
#X obj 260 645 pack 0.95 75 11;
#X obj 176 555 t b b a;
#X obj 380 645 pack 0 50 86;
#X obj 481 835 delay;
#X obj 349 521 +;
#X obj 519 996 outlet;
#X connect 0 0 6 0;
#X connect 1 0 0 0;
#X connect 1 0 0 1;
#X connect 2 0 10 0;
#X connect 3 0 7 1;
#X connect 4 0 8 0;
#X connect 5 0 9 0;
#X connect 7 0 13 0;
#X connect 8 0 11 1;
#X connect 8 0 17 1;
#X connect 9 0 19 1;
#X connect 9 0 21 1;
#X connect 10 0 7 0;
#X connect 10 1 8 0;
#X connect 10 2 9 0;
#X connect 10 2 16 0;
#X connect 11 0 19 2;
#X connect 11 0 21 0;
#X connect 12 0 11 0;
#X connect 12 0 17 2;
#X connect 13 0 18 0;
#X connect 13 1 12 0;
#X connect 14 0 1 0;
#X connect 14 0 1 1;
#X connect 15 0 14 0;
#X connect 16 0 14 0;
#X connect 17 0 14 0;
#X connect 18 0 19 0;
#X connect 18 0 20 0;
#X connect 18 1 17 0;
#X connect 18 2 15 0;
#X connect 19 0 14 0;
#X connect 20 0 22 0;
#X connect 21 0 20 1;
#X restore 205 50 pd envelope~;
#N canvas 960 100 960 980 transient~ 0;
#X text 387 202 transient - noise;
#X obj 344 465 *~;
#X obj 374 441 *~;
#X obj 374 419 *~;
#X obj 373 378 line~;
#X obj 371 227 inlet;
#X obj 342 515 outlet~;
#X msg 371 259 1 \, 0 100;
#X obj 341 172 phasor~ 1100;
#X connect 1 0 6 0;
#X connect 2 0 1 1;
#X connect 3 0 2 0;
#X connect 3 0 2 1;
#X connect 4 0 3 0;
#X connect 4 0 3 1;
#X connect 5 0 7 0;
#X connect 7 0 4 0;
#X connect 8 0 1 0;
#X coords 0 0 1 1 175 125 0;
#X restore 299 45 pd transient~;
#X obj 190 -11 t b b b;
#X obj 215 -150 inlet;
#X obj 223 398 outlet~;
#X obj 456 -125 inlet;
#X msg 397 -50 \; set-softness 7 \; set-size 22 \; set-dirt 22;
#X obj 271 -61 r softness;
#X obj 291 -48 r size;
#X obj 318 -38 r size;
#X obj 370 158 r dirt;
#X obj 144 57 noise~;
#X obj 201 293 hip~ 6500;
#X msg 196 186 2000 2;
#X obj 276 -16 * 50;
#X obj 197 346 saturation~;
#X obj 300 94 *~;
#X obj 203 324 *~ 5;
#X connect 0 0 6 0;
#X connect 1 0 24 0;
#X connect 2 0 6 1;
#X connect 3 0 6 2;
#X connect 4 0 2 0;
#X connect 4 1 3 0;
#X connect 5 0 35 0;
#X connect 6 0 34 0;
#X connect 10 0 12 0;
#X connect 11 0 22 1;
#X connect 12 0 11 0;
#X connect 13 0 28 0;
#X connect 14 0 36 0;
#X connect 15 0 21 0;
#X connect 17 0 18 0;
#X connect 18 0 19 0;
#X connect 19 0 22 3;
#X connect 20 0 22 2;
#X connect 21 0 16 0;
#X connect 22 0 0 1;
#X connect 23 0 38 0;
#X connect 24 0 22 0;
#X connect 24 1 23 0;
#X connect 25 0 1 0;
#X connect 29 0 10 0;
#X connect 30 0 14 0;
#X connect 31 0 17 0;
#X connect 32 0 15 0;
#X connect 33 0 38 1;
#X connect 34 0 39 0;
#X connect 35 0 4 0;
#X connect 36 0 20 0;
#X connect 37 0 26 0;
#X connect 38 0 0 0;
#X connect 39 0 37 0;
#X restore 539 334 pd hh-synth~;
#X obj 171 422 *~;
#X obj 13 9 pure-dirt;
#X obj 185 397 dirt-param~ room;
#X obj 153 328 dirt-param~ gain;
#X obj 39 265 dirt-voice sn;
#X obj 171 441 throw~ reverb;
#X obj 153 347 *~;
#X obj 153 367 *~;
#X obj 294 288 bng 15 250 50 0 empty empty empty 17 7 0 10 -262144
-1 -1;
#X obj 341 400 *~;
#X obj 426 422 *~;
#X obj 440 397 dirt-param~ room;
#X obj 408 328 dirt-param~ gain;
#X obj 426 441 throw~ reverb;
#X obj 408 347 *~;
#X obj 408 367 *~;
#X obj 534 288 bng 15 250 50 0 empty empty empty 17 7 0 10 -262144
-1 -1;
#X obj 581 400 *~;
#X obj 666 422 *~;
#X obj 680 397 dirt-param~ room;
#X obj 648 328 dirt-param~ gain;
#X obj 666 441 throw~ reverb;
#X obj 648 347 *~;
#X obj 648 367 *~;
#N canvas 0 100 1920 980 dirt-mixer~ 0;
#X obj 24 275 *~ 0.8;
#N canvas 0 100 947 793 reverb~ 0;
#X obj 86 119 *~ 0.7;
#X obj 136 120 *~ 0.7;
#X obj 90 95 rev2~ 100 90 3000 20;
#X obj 90 69 catch~ reverb;
#X obj 86 138 outlet~;
#X obj 136 139 outlet~;
#X connect 0 0 4 0;
#X connect 1 0 5 0;
#X connect 2 0 0 0;
#X connect 2 1 1 0;
#X connect 3 0 2 0;
#X restore 115 275 pd reverb~;
#X obj 221 16 catch~ orbit1L;
#X obj 66 274 *~ 0.8;
#X obj 231 36 catch~ orbit2L;
#X obj 241 56 catch~ orbit3L;
#X obj 251 76 catch~ orbit4L;
#X obj 311 16 catch~ orbit1R;
#X obj 321 36 catch~ orbit2R;
#X obj 331 56 catch~ orbit3R;
#X obj 341 76 catch~ orbit4R;
#X obj 47 419 dac~ 1 2;
#X obj 307 225 vu 15 120 empty orbit_1 -1 -8 0 10 -66577 -262144 1
0;
#X obj 744 47 loadbang;
#X obj 327 225 vu 15 120 empty orbit_1 -1 -8 0 10 -66577 -1 1 0;
#X obj 377 225 vu 15 120 empty empty -1 -8 0 10 -66577 -262144 1 0
;
#X obj 397 225 vu 15 120 empty orbit_2 -1 -8 0 10 -66577 -1 1 0;
#X obj 447 225 vu 15 120 empty empty -1 -8 0 10 -66577 -262144 1 0
;
#X obj 467 225 vu 15 120 empty orbit_3 -1 -8 0 10 -66577 -1 1 0;
#X obj 522 225 vu 15 120 empty empty -1 -8 0 10 -66577 -262144 1 0
;
#X obj 542 225 vu 15 120 empty orbit_4 -1 -8 0 10 -66577 -1 1 0;
#X obj 306 153 signal-to-db~;
#X obj 744 66 metro 100;
#X obj 364 180 signal-to-db~;
#X obj 426 156 signal-to-db~;
#X obj 486 181 signal-to-db~;
#X obj 546 156 signal-to-db~;
#X obj 606 181 signal-to-db~;
#X obj 666 156 signal-to-db~;
#X obj 727 186 signal-to-db~;
#X obj 222 271 tgl 75 0 empty empty Start_Audio -17 -7 0 10 -262144
-1 -1 1 1;
#X msg 222 354 \; pd dsp \$1;
#N canvas 0 100 1344 879 delay~ 0;
#X obj 104 318 outlet~;
#X obj 280 318 outlet~;
#X obj 104 98 catch~ dirt_delayL;
#X obj 280 96 catch~ dirt_delayR;
#X obj 196 50 catch~ dirt_delay;
#X obj 304 237 *~ 0.44;
#X obj 127 238 *~ 0.44;
#X obj 304 263 throw~ dirt_delayL;
#X obj 127 260 throw~ dirt_delayR;
#X obj 104 131 delwrite~ dirt_delayL 5000;
#X obj 280 130 delwrite~ dirt_delayR 5000;
#X obj 281 207 delread4~ dirt_delayR;
#X obj 104 207 delread4~ dirt_delayL;
#X obj 468 29 r delaytime;
#X msg 475 137 \$1 20;
#X obj 475 157 line~;
#X obj 31 118 osc~;
#X obj 31 77 metro 50;
#X obj 37 48 loadbang;
#X obj 31 96 random 5;
#X obj 19 184 osc~;
#X obj 20 162 random 5;
#X obj 469 79 cycles-to-ms;
#X msg 467 250 \$1 20;
#X obj 467 270 line;
#X obj 467 224 r delayfeedback;
#X obj 19 203 *~ 1;
#X obj 31 138 *~ 1;
#X connect 2 0 9 0;
#X connect 3 0 10 0;
#X connect 4 0 9 0;
#X connect 4 0 10 0;
#X connect 5 0 7 0;
#X connect 6 0 8 0;
#X connect 11 0 1 0;
#X connect 11 0 5 0;
#X connect 12 0 0 0;
#X connect 12 0 6 0;
#X connect 13 0 22 0;
#X connect 14 0 15 0;
#X connect 15 0 11 0;
#X connect 15 0 12 0;
#X connect 16 0 27 0;
#X connect 17 0 19 0;
#X connect 17 0 21 0;
#X connect 18 0 17 0;
#X connect 19 0 16 0;
#X connect 20 0 26 0;
#X connect 21 0 20 0;
#X connect 22 0 14 0;
#X connect 23 0 24 0;
#X connect 24 0 5 1;
#X connect 24 0 6 1;
#X connect 25 0 23 0;
#X connect 26 0 12 0;
#X connect 27 0 11 0;
#X restore 113 320 pd delay~;
#X connect 0 0 11 0;
#X connect 1 0 11 0;
#X connect 1 1 11 1;
#X connect 2 0 0 0;
#X connect 2 0 21 0;
#X connect 3 0 11 1;
#X connect 4 0 0 0;
#X connect 4 0 24 0;
#X connect 5 0 0 0;
#X connect 5 0 26 0;
#X connect 6 0 0 0;
#X connect 6 0 28 0;
#X connect 7 0 3 0;
#X connect 7 0 23 0;
#X connect 8 0 3 0;
#X connect 8 0 25 0;
#X connect 9 0 3 0;
#X connect 9 0 27 0;
#X connect 10 0 3 0;
#X connect 10 0 29 0;
#X connect 13 0 22 0;
#X connect 21 0 12 0;
#X connect 22 0 21 1;
#X connect 22 0 23 1;
#X connect 22 0 24 1;
#X connect 22 0 25 1;
#X connect 22 0 26 1;
#X connect 22 0 27 1;
#X connect 22 0 28 1;
#X connect 22 0 29 1;
#X connect 23 0 14 0;
#X connect 24 0 15 0;
#X connect 25 0 16 0;
#X connect 26 0 17 0;
#X connect 27 0 18 0;
#X connect 28 0 19 0;
#X connect 29 0 20 0;
#X connect 30 0 31 0;
#X connect 32 0 11 0;
#X connect 32 1 11 1;
#X coords 0 -1 1 1 500 150 1 200 200;
#X restore 12 30 pd dirt-mixer~;
#X obj 294 265 dirt-voice bd;
#X obj 534 265 dirt-voice hh;
#X obj 388 192 loadbang;
#X msg 388 211 gain 1 0;
#X obj 124 9 declare -path ./lib;
#X obj 885 456 *~;
#X obj 899 431 dirt-param~ room;
#X obj 885 475 throw~ reverb;
#X obj 1031 265 bng 15 250 50 0 empty empty empty 17 7 0 10 -262144
-1 -1;
#X obj 1072 390 *~;
#X obj 1157 412 *~;
#X obj 1171 387 dirt-param~ room;
#X obj 1139 318 dirt-param~ gain;
#X obj 1157 437 throw~ reverb;
#X obj 1139 337 *~;
#X obj 1139 357 *~;
#X obj 1031 242 dirt-voice pad;
#N canvas 0 100 1323 950 lead~ 0;
#X obj 207 -118 bng 60 250 50 0 play-drum empty empty 17 7 0 10 -262144
-1 -1;
#X obj 251 302 bob~;
#X obj 278 -4 t b b b;
#X obj 215 -150 inlet;
#X obj 168 403 outlet~;
#X obj 297 -147 inlet;
#X obj 168 352 saturation~;
#X obj 198 241 *~;
#N canvas 460 166 1309 816 envelope~ 0;
#X obj 397 859 *~;
#X obj 397 837 *~;
#X obj 318 133 inlet;
#X obj 509 239 inlet;
#X obj 559 265 inlet;
#X obj 613 295 inlet;
#X obj 397 881 outlet~;
#X obj 265 371 f;
#X obj 305 371 f;
#X obj 335 371 f;
#X obj 254 290 t b b b, f 12;
#X obj 316 495 +;
#X obj 286 455 + 4;
#X obj 254 420 t a a;
#X obj 233 725 vline~;
#X msg 180 641 0.95 \$1 4;
#X msg 555 642 0 4 0;
#X obj 260 645 pack 0.95 75 11;
#X obj 176 555 t b b a;
#X obj 481 835 delay;
#X obj 349 521 +;
#X obj 519 996 outlet;
#X obj 340 194 sel 1 0;
#X obj 335 160 > 0;
#X obj 395 621 pack 0 50 86;
#X connect 0 0 6 0;
#X connect 1 0 0 0;
#X connect 1 0 0 1;
#X connect 2 0 23 0;
#X connect 3 0 7 1;
#X connect 4 0 8 0;
#X connect 5 0 9 0;
#X connect 7 0 13 0;
#X connect 8 0 11 1;
#X connect 8 0 17 1;
#X connect 9 0 20 1;
#X connect 9 0 24 1;
#X connect 10 0 7 0;
#X connect 10 1 8 0;
#X connect 10 2 9 0;
#X connect 10 2 16 0;
#X connect 11 0 20 0;
#X connect 12 0 11 0;
#X connect 12 0 17 2;
#X connect 13 0 18 0;
#X connect 13 1 12 0;
#X connect 14 0 1 0;
#X connect 14 0 1 1;
#X connect 15 0 14 0;
#X connect 16 0 14 0;
#X connect 17 0 14 0;
#X connect 18 0 19 0;
#X connect 18 1 17 0;
#X connect 18 2 15 0;
#X connect 19 0 21 0;
#X connect 20 0 19 1;
#X connect 22 0 10 0;
#X connect 22 1 24 0;
#X connect 23 0 22 0;
#X connect 24 0 14 0;
#X restore 261 92 pd envelope~;
#X obj 302 54 dirt-param attack;
#X obj 359 26 dirt-param decay;
#X obj 417 53 dirt-param release;
#X obj 340 241 dirt-param~ cutoff;
#X obj 357 165 loadbang;
#X msg 363 187 cutoff 2000 0;
#X obj 468 163 loadbang;
#X obj 463 240 dirt-param~ q;
#X msg 466 188 q 2 0;
#X obj 53 103 mtof;
#X obj 53 123 pack 0 20;
#X obj 53 142 line~;
#X obj 125 74 dirt-param port;
#X obj 80 13 makenote;
#X obj 146 19 > 0;
#X obj 100 42 spigot;
#X obj 65 -104 dirt-param note;
#X obj 53 -57 f 36;
#X obj 53 83 + 60;
#X obj 405 -92 loadbang;
#X msg 432 -23 decay 150 0;
#X msg 474 2 release 250 0;
#X obj 53 -38 pack 0 100;
#X obj 139 -30 cycles-to-ms;
#X obj 139 -50 dirt-param delta;
#X obj 244 -50 dirt-param legato;
#X obj 139 -10 *;
#X obj 167 127 osc~ 3;
#X obj 167 169 *~;
#X obj 306 263 *~;
#X obj 167 150 *~ 2;
#X obj 201 103 +~ 2.5;
#X msg 411 -47 attack 1000 0;
#N canvas 0 100 864 849 supersaw~ 0;
#X obj 21 269 *~ 0.125;
#X obj 21 292 rzero~ -1;
#X obj 21 315 rzero~ -1;
#X obj 21 338 rzero~ -1;
#X obj 21 66 phasor~;
#X obj 204 29 block~ 1024 1 16;
#X obj 21 372 outlet~;
#X obj 20 166 rpole~ 0.87467;
#X obj 20 143 *~ 0.12532;
#X obj 20 189 *~ 0.01668;
#X obj 20 212 cpole~ 0.9293 0.10812;
#X obj 20 238 cpole~ 0.9293 -0.10812;
#X obj 107 12 inlet~;
#X obj 89 85 phasor~;
#X obj 147 97 phasor~;
#X obj 140 59 -~ 1.211;
#X obj 179 127 phasor~;
#X obj 201 71 -~ 3;
#X obj 107 32 +~ 2.324;
#X connect 0 0 1 0;
#X connect 1 0 2 0;
#X connect 2 0 3 0;
#X connect 3 0 6 0;
#X connect 4 0 8 0;
#X connect 7 0 9 0;
#X connect 8 0 7 0;
#X connect 9 0 10 0;
#X connect 10 0 11 0;
#X connect 10 1 11 1;
#X connect 11 0 0 0;
#X connect 12 0 4 0;
#X connect 12 0 15 0;
#X connect 12 0 17 0;
#X connect 12 0 18 0;
#X connect 13 0 8 0;
#X connect 14 0 8 0;
#X connect 15 0 14 0;
#X connect 16 0 8 0;
#X connect 17 0 16 0;
#X connect 18 0 13 0;
#X restore 174 209 pd supersaw~;
#X obj 168 330 *~ 1.5;
#X obj 168 377 *~ 0.25;
#X connect 0 0 2 0;
#X connect 1 0 43 0;
#X connect 2 2 26 0;
#X connect 3 0 0 0;
#X connect 5 0 9 0;
#X connect 5 0 10 0;
#X connect 5 0 11 0;
#X connect 5 0 21 0;
#X connect 5 0 25 0;
#X connect 5 0 12 0;
#X connect 5 0 16 0;
#X connect 5 0 33 0;
#X connect 5 0 34 0;
#X connect 6 0 44 0;
#X connect 7 0 1 0;
#X connect 8 0 7 1;
#X connect 8 0 37 1;
#X connect 8 0 38 0;
#X connect 8 0 40 0;
#X connect 9 0 8 1;
#X connect 10 0 8 2;
#X connect 11 0 8 3;
#X connect 12 0 38 1;
#X connect 13 0 14 0;
#X connect 14 0 12 0;
#X connect 15 0 17 0;
#X connect 16 0 1 2;
#X connect 17 0 16 0;
#X connect 18 0 19 0;
#X connect 19 0 20 0;
#X connect 20 0 42 0;
#X connect 21 0 19 1;
#X connect 22 0 24 0;
#X connect 22 1 23 0;
#X connect 23 0 24 1;
#X connect 23 0 8 0;
#X connect 24 0 27 0;
#X connect 25 0 26 1;
#X connect 26 0 31 0;
#X connect 27 0 18 0;
#X connect 28 0 41 0;
#X connect 28 0 29 0;
#X connect 28 0 30 0;
#X connect 29 0 10 0;
#X connect 30 0 11 0;
#X connect 31 0 22 0;
#X connect 32 0 35 0;
#X connect 33 0 32 0;
#X connect 34 0 35 1;
#X connect 35 0 22 2;
#X connect 36 0 39 0;
#X connect 37 0 42 0;
#X connect 38 0 1 1;
#X connect 39 0 37 0;
#X connect 40 0 36 0;
#X connect 41 0 9 0;
#X connect 42 0 7 0;
#X connect 43 0 6 0;
#X connect 44 0 4 0;
#X restore 1031 324 pd lead~;
#X obj 1166 485 *~;
#X obj 1180 460 dirt-param~ delay;
#X obj 1166 504 throw~ dirt_delay;
#X obj 173 497 *~;
#X obj 187 472 dirt-param~ delay;
#X obj 173 516 throw~ dirt_delay;
#X obj 151 276 dirt-param delaytime;
#X obj 151 295 s delaytime;
#X obj 394 277 dirt-param delaytime;
#X obj 394 296 s delaytime;
#X obj 627 276 dirt-param delaytime;
#X obj 627 295 s delaytime;
#X obj 860 275 dirt-param delaytime;
#X obj 860 294 s delaytime;
#X obj 1125 268 dirt-param delaytime;
#X obj 1125 287 s delaytime;
#X obj 1252 287 s delayfeedback;
#X obj 1252 268 dirt-param delayfeedback;
#X obj 872 336 s delayfeedback;
#X obj 872 316 dirt-param delayfeedback;
#X obj 671 491 s delayfeedback;
#X obj 671 472 dirt-param delayfeedback;
#X obj 414 487 s delayfeedback;
#X obj 414 467 dirt-param delayfeedback;
#X obj 148 555 s delayfeedback;
#X obj 148 535 dirt-param delayfeedback;
#X obj 659 542 *~;
#X obj 673 517 dirt-param~ delay;
#X obj 659 561 throw~ dirt_delay;
#X obj 294 9 declare -path ./synths;
#X obj 774 259 dirt-orbit~;
#X obj 76 500 dirt-orbit~;
#X obj 331 500 dirt-orbit~;
#X obj 571 500 dirt-orbit~;
#X obj 1062 490 dirt-orbit~;
#X obj 828 335 *~ 0.5;
#X obj 880 386 *~;
#X obj 894 361 dirt-param~ delay;
#X obj 773 223 analogue~ bass, f 11;
#X obj 880 405 throw~ dirt_delay;
#X connect 0 0 3 0;
#X connect 1 0 0 0;
#X connect 2 0 14 0;
#X connect 3 0 5 0;
#X connect 3 0 51 0;
#X connect 3 0 79 0;
#X connect 3 0 79 1;
#X connect 4 0 22 0;
#X connect 5 0 10 0;
#X connect 7 0 5 1;
#X connect 8 0 11 0;
#X connect 8 0 11 1;
#X connect 9 0 1 0;
#X connect 9 1 7 0;
#X connect 9 1 8 0;
#X connect 9 1 52 0;
#X connect 9 1 54 0;
#X connect 9 1 73 0;
#X connect 9 1 79 2;
#X connect 11 0 12 0;
#X connect 11 0 12 1;
#X connect 12 0 3 1;
#X connect 13 0 2 0;
#X connect 14 0 15 0;
#X connect 14 0 80 0;
#X connect 14 0 80 1;
#X connect 15 0 18 0;
#X connect 16 0 15 1;
#X connect 17 0 19 0;
#X connect 17 0 19 1;
#X connect 19 0 20 0;
#X connect 19 0 20 1;
#X connect 20 0 14 1;
#X connect 21 0 4 0;
#X connect 22 0 23 0;
#X connect 22 0 74 0;
#X connect 22 0 81 0;
#X connect 22 0 81 1;
#X connect 23 0 26 0;
#X connect 24 0 23 1;
#X connect 25 0 27 0;
#X connect 25 0 27 1;
#X connect 27 0 28 0;
#X connect 27 0 28 1;
#X connect 28 0 22 1;
#X connect 30 0 13 0;
#X connect 30 1 16 0;
#X connect 30 1 17 0;
#X connect 30 1 2 1;
#X connect 30 1 56 0;
#X connect 30 1 71 0;
#X connect 30 1 80 2;
#X connect 31 0 21 0;
#X connect 31 1 24 0;
#X connect 31 1 25 0;
#X connect 31 1 58 0;
#X connect 31 1 69 0;
#X connect 31 1 75 0;
#X connect 31 1 81 2;
#X connect 32 0 33 0;
#X connect 33 0 8 0;
#X connect 33 0 17 0;
#X connect 33 0 25 0;
#X connect 35 0 37 0;
#X connect 36 0 35 1;
#X connect 38 0 47 0;
#X connect 39 0 40 0;
#X connect 39 0 48 0;
#X connect 39 0 82 0;
#X connect 39 0 82 1;
#X connect 40 0 43 0;
#X connect 41 0 40 1;
#X connect 42 0 44 0;
#X connect 42 0 44 1;
#X connect 44 0 45 0;
#X connect 44 0 45 1;
#X connect 45 0 39 1;
#X connect 46 0 38 0;
#X connect 46 1 41 0;
#X connect 46 1 42 0;
#X connect 46 1 47 1;
#X connect 46 1 49 0;
#X connect 46 1 62 0;
#X connect 46 1 65 0;
#X connect 46 1 82 2;
#X connect 47 0 39 0;
#X connect 48 0 50 0;
#X connect 49 0 48 1;
#X connect 51 0 53 0;
#X connect 52 0 51 1;
#X connect 54 0 55 0;
#X connect 56 0 57 0;
#X connect 58 0 59 0;
#X connect 60 0 61 0;
#X connect 62 0 63 0;
#X connect 65 0 64 0;
#X connect 67 0 66 0;
#X connect 69 0 68 0;
#X connect 71 0 70 0;
#X connect 73 0 72 0;
#X connect 74 0 76 0;
#X connect 75 0 74 1;
#X connect 83 0 35 0;
#X connect 83 0 84 0;
#X connect 84 0 87 0;
#X connect 85 0 84 1;
#X connect 86 0 78 0;
#X connect 86 0 83 0;
#X connect 86 1 78 1;
#X connect 86 1 83 0;
#X connect 86 2 78 2;
#X connect 86 2 60 0;
#X connect 86 2 36 0;
#X connect 86 2 67 0;
#X connect 86 2 85 0;
