#N canvas 398 184 1440 724 10;
#X declare -path ./lib;
#X declare -path ./synths;
#X obj 171 422 *~;
#X obj 13 9 pure-dirt;
#X obj 185 397 dirt-param~ room;
#X obj 171 441 throw~ reverb;
#X obj 426 422 *~;
#X obj 440 397 dirt-param~ room;
#X obj 426 441 throw~ reverb;
#X obj 666 422 *~;
#X obj 680 397 dirt-param~ room;
#X obj 666 441 throw~ reverb;
#N canvas 0 100 1920 980 dirt-mixer~ 0;
#X obj 24 275 *~ 0.8;
#N canvas 0 100 947 793 reverb~ 0;
#X obj 86 119 *~ 0.7;
#X obj 136 120 *~ 0.7;
#X obj 90 95 rev2~ 100 90 3000 20;
#X obj 90 69 catch~ reverb;
#X obj 86 138 outlet~;
#X obj 136 139 outlet~;
#X connect 0 0 4 0;
#X connect 1 0 5 0;
#X connect 2 0 0 0;
#X connect 2 1 1 0;
#X connect 3 0 2 0;
#X restore 115 275 pd reverb~;
#X obj 221 16 catch~ orbit1L;
#X obj 66 274 *~ 0.8;
#X obj 231 36 catch~ orbit2L;
#X obj 241 56 catch~ orbit3L;
#X obj 251 76 catch~ orbit4L;
#X obj 311 16 catch~ orbit1R;
#X obj 321 36 catch~ orbit2R;
#X obj 331 56 catch~ orbit3R;
#X obj 341 76 catch~ orbit4R;
#X obj 47 419 dac~ 1 2;
#X obj 307 225 vu 15 120 empty orbit_1 -1 -8 0 10 -66577 -262144 1
0;
#X obj 744 47 loadbang;
#X obj 327 225 vu 15 120 empty orbit_1 -1 -8 0 10 -66577 -1 1 0;
#X obj 377 225 vu 15 120 empty empty -1 -8 0 10 -66577 -262144 1 0
;
#X obj 397 225 vu 15 120 empty orbit_2 -1 -8 0 10 -66577 -1 1 0;
#X obj 447 225 vu 15 120 empty empty -1 -8 0 10 -66577 -262144 1 0
;
#X obj 467 225 vu 15 120 empty orbit_3 -1 -8 0 10 -66577 -1 1 0;
#X obj 522 225 vu 15 120 empty empty -1 -8 0 10 -66577 -262144 1 0
;
#X obj 542 225 vu 15 120 empty orbit_4 -1 -8 0 10 -66577 -1 1 0;
#X obj 306 153 signal-to-db~;
#X obj 744 66 metro 100;
#X obj 364 180 signal-to-db~;
#X obj 426 156 signal-to-db~;
#X obj 486 181 signal-to-db~;
#X obj 546 156 signal-to-db~;
#X obj 606 181 signal-to-db~;
#X obj 666 156 signal-to-db~;
#X obj 727 186 signal-to-db~;
#X obj 222 271 tgl 75 0 empty empty Start_Audio -17 -7 0 10 -262144
-1 -1 1 1;
#X msg 222 354 \; pd dsp \$1;
#N canvas 0 100 1344 879 delay~ 0;
#X obj 104 318 outlet~;
#X obj 280 318 outlet~;
#X obj 104 98 catch~ dirt_delayL;
#X obj 280 96 catch~ dirt_delayR;
#X obj 196 50 catch~ dirt_delay;
#X obj 304 237 *~ 0.44;
#X obj 127 238 *~ 0.44;
#X obj 304 263 throw~ dirt_delayL;
#X obj 127 260 throw~ dirt_delayR;
#X obj 104 131 delwrite~ dirt_delayL 5000;
#X obj 280 130 delwrite~ dirt_delayR 5000;
#X obj 281 207 delread4~ dirt_delayR;
#X obj 104 207 delread4~ dirt_delayL;
#X obj 468 29 r delaytime;
#X msg 475 137 \$1 20;
#X obj 475 157 line~;
#X obj 31 118 osc~;
#X obj 31 77 metro 50;
#X obj 37 48 loadbang;
#X obj 31 96 random 5;
#X obj 19 184 osc~;
#X obj 20 162 random 5;
#X obj 469 79 cycles-to-ms;
#X msg 467 250 \$1 20;
#X obj 467 270 line;
#X obj 467 224 r delayfeedback;
#X obj 19 203 *~ 1;
#X obj 31 138 *~ 1;
#X connect 2 0 9 0;
#X connect 3 0 10 0;
#X connect 4 0 9 0;
#X connect 4 0 10 0;
#X connect 5 0 7 0;
#X connect 6 0 8 0;
#X connect 11 0 1 0;
#X connect 11 0 5 0;
#X connect 12 0 0 0;
#X connect 12 0 6 0;
#X connect 13 0 22 0;
#X connect 14 0 15 0;
#X connect 15 0 11 0;
#X connect 15 0 12 0;
#X connect 16 0 27 0;
#X connect 17 0 19 0;
#X connect 17 0 21 0;
#X connect 18 0 17 0;
#X connect 19 0 16 0;
#X connect 20 0 26 0;
#X connect 21 0 20 0;
#X connect 22 0 14 0;
#X connect 23 0 24 0;
#X connect 24 0 5 1;
#X connect 24 0 6 1;
#X connect 25 0 23 0;
#X connect 26 0 12 0;
#X connect 27 0 11 0;
#X restore 113 320 pd delay~;
#X connect 0 0 11 0;
#X connect 1 0 11 0;
#X connect 1 1 11 1;
#X connect 2 0 0 0;
#X connect 2 0 21 0;
#X connect 3 0 11 1;
#X connect 4 0 0 0;
#X connect 4 0 24 0;
#X connect 5 0 0 0;
#X connect 5 0 26 0;
#X connect 6 0 0 0;
#X connect 6 0 28 0;
#X connect 7 0 3 0;
#X connect 7 0 23 0;
#X connect 8 0 3 0;
#X connect 8 0 25 0;
#X connect 9 0 3 0;
#X connect 9 0 27 0;
#X connect 10 0 3 0;
#X connect 10 0 29 0;
#X connect 13 0 22 0;
#X connect 21 0 12 0;
#X connect 22 0 21 1;
#X connect 22 0 23 1;
#X connect 22 0 24 1;
#X connect 22 0 25 1;
#X connect 22 0 26 1;
#X connect 22 0 27 1;
#X connect 22 0 28 1;
#X connect 22 0 29 1;
#X connect 23 0 14 0;
#X connect 24 0 15 0;
#X connect 25 0 16 0;
#X connect 26 0 17 0;
#X connect 27 0 18 0;
#X connect 28 0 19 0;
#X connect 29 0 20 0;
#X connect 30 0 31 0;
#X connect 32 0 11 0;
#X connect 32 1 11 1;
#X coords 0 -1 1 1 500 150 1 200 200;
#X restore 12 30 pd dirt-mixer~;
#X obj 388 192 loadbang;
#X msg 388 211 gain 1 0;
#X obj 124 9 declare -path ./lib;
#X obj 885 456 *~;
#X obj 899 431 dirt-param~ room;
#X obj 885 475 throw~ reverb;
#X obj 1031 265 bng 15 250 50 0 empty empty empty 17 7 0 10 -262144
-1 -1;
#X obj 1072 390 *~;
#X obj 1157 412 *~;
#X obj 1171 387 dirt-param~ room;
#X obj 1139 318 dirt-param~ gain;
#X obj 1157 437 throw~ reverb;
#X obj 1139 337 *~;
#X obj 1139 357 *~;
#X obj 1031 242 dirt-voice pad;
#N canvas 0 100 1323 950 lead~ 1;
#X obj 207 -118 bng 60 250 50 0 play-drum empty empty 17 7 0 10 -262144
-1 -1;
#X obj 251 302 bob~;
#X obj 278 -4 t b b b;
#X obj 215 -150 inlet;
#X obj 168 403 outlet~;
#X obj 297 -147 inlet;
#X obj 168 352 saturation~;
#X obj 198 241 *~;
#N canvas 460 166 1309 816 envelope~ 0;
#X obj 397 859 *~;
#X obj 397 837 *~;
#X obj 318 133 inlet;
#X obj 509 239 inlet;
#X obj 559 265 inlet;
#X obj 613 295 inlet;
#X obj 397 881 outlet~;
#X obj 265 371 f;
#X obj 305 371 f;
#X obj 335 371 f;
#X obj 254 290 t b b b, f 12;
#X obj 316 495 +;
#X obj 286 455 + 4;
#X obj 254 420 t a a;
#X obj 233 725 vline~;
#X msg 180 641 0.95 \$1 4;
#X msg 555 642 0 4 0;
#X obj 260 645 pack 0.95 75 11;
#X obj 176 555 t b b a;
#X obj 481 835 delay;
#X obj 349 521 +;
#X obj 519 996 outlet;
#X obj 340 194 sel 1 0;
#X obj 335 160 > 0;
#X obj 395 621 pack 0 50 86;
#X connect 0 0 6 0;
#X connect 1 0 0 0;
#X connect 1 0 0 1;
#X connect 2 0 23 0;
#X connect 3 0 7 1;
#X connect 4 0 8 0;
#X connect 5 0 9 0;
#X connect 7 0 13 0;
#X connect 8 0 11 1;
#X connect 8 0 17 1;
#X connect 9 0 20 1;
#X connect 9 0 24 1;
#X connect 10 0 7 0;
#X connect 10 1 8 0;
#X connect 10 2 9 0;
#X connect 10 2 16 0;
#X connect 11 0 20 0;
#X connect 12 0 11 0;
#X connect 12 0 17 2;
#X connect 13 0 18 0;
#X connect 13 1 12 0;
#X connect 14 0 1 0;
#X connect 14 0 1 1;
#X connect 15 0 14 0;
#X connect 16 0 14 0;
#X connect 17 0 14 0;
#X connect 18 0 19 0;
#X connect 18 1 17 0;
#X connect 18 2 15 0;
#X connect 19 0 21 0;
#X connect 20 0 19 1;
#X connect 22 0 10 0;
#X connect 22 1 24 0;
#X connect 23 0 22 0;
#X connect 24 0 14 0;
#X restore 261 92 pd envelope~;
#X obj 302 54 dirt-param attack;
#X obj 359 26 dirt-param decay;
#X obj 417 53 dirt-param release;
#X obj 340 241 dirt-param~ cutoff;
#X obj 357 165 loadbang;
#X msg 363 187 cutoff 2000 0;
#X obj 468 163 loadbang;
#X obj 463 240 dirt-param~ q;
#X msg 466 188 q 2 0;
#X obj 53 103 mtof;
#X obj 53 123 pack 0 20;
#X obj 53 142 line~;
#X obj 125 74 dirt-param port;
#X obj 80 13 makenote;
#X obj 146 19 > 0;
#X obj 100 42 spigot;
#X obj 65 -104 dirt-param note;
#X obj 53 -57 f 36;
#X obj 53 83 + 60;
#X obj 405 -92 loadbang;
#X msg 432 -23 decay 150 0;
#X msg 474 2 release 250 0;
#X obj 53 -38 pack 0 100;
#X obj 139 -30 cycles-to-ms;
#X obj 139 -50 dirt-param delta;
#X obj 244 -50 dirt-param legato;
#X obj 139 -10 *;
#X obj 167 127 osc~ 3;
#X obj 167 169 *~;
#X obj 306 263 *~;
#X obj 167 150 *~ 2;
#X obj 201 103 +~ 2.5;
#X msg 411 -47 attack 1000 0;
#N canvas 0 100 864 849 supersaw~ 1;
#X obj 146 342 outlet~;
#X obj 171 0 inlet~;
#X obj 140 59 -~ 1.211;
#X obj 201 71 -~ 3;
#X obj 107 32 +~ 2.324;
#X obj 132 220 *~ 0.33;
#X obj 105 140 blit_saw~;
#X obj 167 140 blit_saw~;
#X obj 234 141 blit_saw~;
#X obj 41 139 blit_saw~;
#X connect 1 0 2 0;
#X connect 1 0 3 0;
#X connect 1 0 4 0;
#X connect 1 0 9 1;
#X connect 2 0 7 1;
#X connect 3 0 8 0;
#X connect 4 0 6 1;
#X connect 5 0 0 0;
#X connect 6 1 5 0;
#X connect 7 1 5 0;
#X connect 8 1 5 0;
#X connect 9 1 5 0;
#X restore 174 209 pd supersaw~;
#X obj 168 330 *~ 1.5;
#X obj 168 377 *~ 0.25;
#X connect 0 0 2 0;
#X connect 1 0 43 0;
#X connect 2 2 26 0;
#X connect 3 0 0 0;
#X connect 5 0 9 0;
#X connect 5 0 10 0;
#X connect 5 0 11 0;
#X connect 5 0 21 0;
#X connect 5 0 25 0;
#X connect 5 0 12 0;
#X connect 5 0 16 0;
#X connect 5 0 33 0;
#X connect 5 0 34 0;
#X connect 6 0 44 0;
#X connect 7 0 1 0;
#X connect 8 0 7 1;
#X connect 8 0 37 1;
#X connect 8 0 38 0;
#X connect 8 0 40 0;
#X connect 9 0 8 1;
#X connect 10 0 8 2;
#X connect 11 0 8 3;
#X connect 12 0 38 1;
#X connect 13 0 14 0;
#X connect 14 0 12 0;
#X connect 15 0 17 0;
#X connect 16 0 1 2;
#X connect 17 0 16 0;
#X connect 18 0 19 0;
#X connect 19 0 20 0;
#X connect 20 0 42 0;
#X connect 21 0 19 1;
#X connect 22 0 24 0;
#X connect 22 1 23 0;
#X connect 23 0 24 1;
#X connect 23 0 8 0;
#X connect 24 0 27 0;
#X connect 25 0 26 1;
#X connect 26 0 31 0;
#X connect 27 0 18 0;
#X connect 28 0 41 0;
#X connect 28 0 29 0;
#X connect 28 0 30 0;
#X connect 29 0 10 0;
#X connect 30 0 11 0;
#X connect 31 0 22 0;
#X connect 32 0 35 0;
#X connect 33 0 32 0;
#X connect 34 0 35 1;
#X connect 35 0 22 2;
#X connect 36 0 39 0;
#X connect 37 0 42 0;
#X connect 38 0 1 1;
#X connect 39 0 37 0;
#X connect 40 0 36 0;
#X connect 41 0 9 0;
#X connect 42 0 7 0;
#X connect 43 0 6 0;
#X connect 44 0 4 0;
#X restore 1031 324 pd lead~;
#X obj 1166 485 *~;
#X obj 1180 460 dirt-param~ delay;
#X obj 1166 504 throw~ dirt_delay;
#X obj 173 497 *~;
#X obj 187 472 dirt-param~ delay;
#X obj 173 516 throw~ dirt_delay;
#X obj 151 276 dirt-param delaytime;
#X obj 151 295 s delaytime;
#X obj 394 277 dirt-param delaytime;
#X obj 394 296 s delaytime;
#X obj 676 331 dirt-param delaytime;
#X obj 676 350 s delaytime;
#X obj 860 275 dirt-param delaytime;
#X obj 860 294 s delaytime;
#X obj 1125 268 dirt-param delaytime;
#X obj 1125 287 s delaytime;
#X obj 1252 287 s delayfeedback;
#X obj 1252 268 dirt-param delayfeedback;
#X obj 872 336 s delayfeedback;
#X obj 872 316 dirt-param delayfeedback;
#X obj 671 491 s delayfeedback;
#X obj 671 472 dirt-param delayfeedback;
#X obj 414 487 s delayfeedback;
#X obj 414 467 dirt-param delayfeedback;
#X obj 148 555 s delayfeedback;
#X obj 148 535 dirt-param delayfeedback;
#X obj 659 542 *~;
#X obj 673 517 dirt-param~ delay;
#X obj 659 561 throw~ dirt_delay;
#X obj 294 9 declare -path ./synths;
#X obj 774 259 dirt-orbit~;
#X obj 40 464 dirt-orbit~;
#X obj 293 316 dirt-orbit~, f 15;
#X obj 545 374 dirt-orbit~;
#X obj 1062 490 dirt-orbit~;
#X obj 828 335 *~ 0.5;
#X obj 880 386 *~;
#X obj 894 361 dirt-param~ delay;
#X obj 880 405 throw~ dirt_delay;
#X obj 773 223 analogue.bass~ bass, f 20;
#X obj 396 368 *~ 0.5;
#X obj 39 313 bng 15 250 50 0 empty empty empty 17 7 0 10 -262144 -1
-1;
#X obj 286 230 bng 15 250 50 0 empty empty empty 17 7 0 10 -262144
-1 -1;
#X obj 294 265 analogue.bd~ bd;
#X obj 104 387 *~ 0.5;
#X obj 40 358 analogue.sd~ sn;
#X obj 544 304 bng 15 250 50 0 empty empty empty 17 7 0 10 -262144
-1 -1;
#X obj 544 329 analogue.hh~ hh;
#X obj 624 368 *~ 0.5;
#X connect 0 0 3 0;
#X connect 2 0 0 1;
#X connect 4 0 6 0;
#X connect 5 0 4 1;
#X connect 7 0 9 0;
#X connect 8 0 7 1;
#X connect 11 0 12 0;
#X connect 14 0 16 0;
#X connect 15 0 14 1;
#X connect 17 0 26 0;
#X connect 18 0 19 0;
#X connect 18 0 27 0;
#X connect 18 0 61 0;
#X connect 18 0 61 1;
#X connect 19 0 22 0;
#X connect 20 0 19 1;
#X connect 21 0 23 0;
#X connect 21 0 23 1;
#X connect 23 0 24 0;
#X connect 23 0 24 1;
#X connect 24 0 18 1;
#X connect 25 0 17 0;
#X connect 25 1 20 0;
#X connect 25 1 21 0;
#X connect 25 1 26 1;
#X connect 25 1 28 0;
#X connect 25 1 41 0;
#X connect 25 1 44 0;
#X connect 25 1 61 2;
#X connect 26 0 18 0;
#X connect 27 0 29 0;
#X connect 28 0 27 1;
#X connect 30 0 32 0;
#X connect 31 0 30 1;
#X connect 33 0 34 0;
#X connect 35 0 36 0;
#X connect 37 0 38 0;
#X connect 39 0 40 0;
#X connect 41 0 42 0;
#X connect 44 0 43 0;
#X connect 46 0 45 0;
#X connect 48 0 47 0;
#X connect 50 0 49 0;
#X connect 52 0 51 0;
#X connect 53 0 55 0;
#X connect 54 0 53 1;
#X connect 62 0 14 0;
#X connect 62 0 63 0;
#X connect 63 0 65 0;
#X connect 64 0 63 1;
#X connect 66 0 57 0;
#X connect 66 0 62 0;
#X connect 66 1 57 1;
#X connect 66 1 62 0;
#X connect 66 2 57 2;
#X connect 66 2 39 0;
#X connect 66 2 15 0;
#X connect 66 2 46 0;
#X connect 66 2 64 0;
#X connect 67 0 4 0;
#X connect 68 0 72 0;
#X connect 69 0 70 0;
#X connect 70 0 67 0;
#X connect 70 0 59 0;
#X connect 70 1 59 1;
#X connect 70 2 59 2;
#X connect 70 2 35 0;
#X connect 70 2 5 0;
#X connect 70 2 50 0;
#X connect 71 0 0 0;
#X connect 71 0 30 0;
#X connect 72 0 71 0;
#X connect 72 0 58 0;
#X connect 72 1 58 1;
#X connect 72 1 71 0;
#X connect 72 2 58 2;
#X connect 72 2 52 0;
#X connect 72 2 31 0;
#X connect 72 2 2 0;
#X connect 73 0 74 0;
#X connect 74 0 75 0;
#X connect 74 0 60 0;
#X connect 74 1 75 0;
#X connect 74 1 60 1;
#X connect 74 2 60 2;
#X connect 74 2 37 0;
#X connect 74 2 8 0;
#X connect 74 2 48 0;
#X connect 74 2 54 0;
#X connect 75 0 7 0;
#X connect 75 0 53 0;
