#N canvas 280 102 1537 978 10;
#X declare -path ./lib;
#N canvas 0 100 1088 841 snare-synth~ 0;
#X obj 155 38 *~;
#X obj 138 -256 bng 60 250 50 0 play-drum empty empty 17 7 0 10 -262144
-1 -1;
#X floatatom 162 92 5 0 0 0 - - -, f 5;
#X floatatom 182 92 5 0 0 0 - - -, f 5;
#X obj 162 79 unpack;
#X obj 162 56 loadbang;
#X obj 155 106 bob~;
#X msg 162 68 300 2;
#X obj 155 198 *~ 2;
#X floatatom 414 -116 5 0 127 0 softness #0-set-softness #0-softness
, f 5;
#X floatatom 414 -106 5 0 127 0 dirt #0-set-dirt #0-dirt, f 5;
#X floatatom 414 -96 5 0 127 0 size #0-set-size #0-size, f 5;
#X obj 187 -177 / 127;
#X obj 187 -151 + 5;
#X obj 187 -166 * 25;
#X obj 329 -214 loadbang;
#X obj 207 -164 / 127;
#X obj 276 60 / 127;
#X obj 276 86 + 1.05;
#X obj 276 49 r \$0-dirt;
#X obj 240 -62 / 127;
#X obj 240 -50 * 8;
#X obj 240 -36 + 1.05;
#X obj 240 -73 r \$0-dirt;
#X obj 231 -20 *~;
#X obj 234 -154 / 127;
#X obj 195 42 / 127;
#X obj 195 75 + 78;
#X obj 234 -128 + 33;
#X obj 207 -138 + 25;
#X obj 276 71 * 6;
#X obj 195 53 expr 1-$f1;
#X obj 230 42 / 127;
#X obj 231 76 + 1;
#N canvas 1124 112 754 562 envelope~ 0;
#X obj 397 859 *~;
#X obj 397 837 *~;
#X obj 317 158 inlet;
#X obj 509 239 inlet;
#X obj 559 265 inlet;
#X obj 613 295 inlet;
#X obj 397 881 outlet~;
#X obj 265 371 f;
#X obj 305 371 f;
#X obj 335 371 f;
#X obj 254 290 t b b b, f 12;
#X obj 316 495 +;
#X obj 286 455 + 4;
#X obj 254 420 t a a;
#X obj 233 725 vline~;
#X msg 180 641 0.95 \$1 4;
#X msg 555 642 0 4 0;
#X obj 260 645 pack 0.95 75 11;
#X obj 176 555 t b b a;
#X obj 380 645 pack 0 50 86;
#X obj 481 835 delay;
#X obj 349 521 +;
#X obj 519 996 outlet;
#X connect 0 0 6 0;
#X connect 1 0 0 0;
#X connect 1 0 0 1;
#X connect 2 0 10 0;
#X connect 3 0 7 1;
#X connect 4 0 8 0;
#X connect 5 0 9 0;
#X connect 7 0 13 0;
#X connect 8 0 11 1;
#X connect 8 0 17 1;
#X connect 9 0 19 1;
#X connect 9 0 21 1;
#X connect 10 0 7 0;
#X connect 10 1 8 0;
#X connect 10 2 9 0;
#X connect 10 2 16 0;
#X connect 11 0 19 2;
#X connect 11 0 21 0;
#X connect 12 0 11 0;
#X connect 12 0 17 2;
#X connect 13 0 18 0;
#X connect 13 1 12 0;
#X connect 14 0 1 0;
#X connect 14 0 1 1;
#X connect 15 0 14 0;
#X connect 16 0 14 0;
#X connect 17 0 14 0;
#X connect 18 0 19 0;
#X connect 18 0 20 0;
#X connect 18 1 17 0;
#X connect 18 2 15 0;
#X connect 19 0 14 0;
#X connect 20 0 22 0;
#X connect 21 0 20 1;
#X restore 184 -93 pd envelope~;
#N canvas 960 27 960 982 oscillator~ 0;
#X obj 455 743 osc~;
#X text 493 137 drum vibration - tone;
#X obj 250 299 inlet;
#X obj 346 874 outlet~;
#X obj 596 507 delay 50;
#X msg 651 532 100 100;
#X obj 651 489 delay 75;
#X obj 361 336 / 127;
#X obj 361 358 * 2500;
#X obj 361 388 + 2500;
#X obj 357 448 f 2500;
#X msg 596 550 65 75;
#X obj 536 487 delay 10;
#X msg 520 580 75 \$1;
#X obj 455 549 vline~;
#X obj 361 314 r \$0-softness;
#X obj 807 331 inlet~;
#X obj 474 632 *~;
#X msg 456 510 \$1 \, 400 10;
#X obj 536 509 f 15;
#X connect 0 0 3 0;
#X connect 2 0 10 0;
#X connect 2 0 12 0;
#X connect 4 0 11 0;
#X connect 4 0 6 0;
#X connect 5 0 0 0;
#X connect 6 0 5 0;
#X connect 7 0 8 0;
#X connect 8 0 9 0;
#X connect 9 0 10 1;
#X connect 10 0 18 0;
#X connect 11 0 14 0;
#X connect 12 0 4 0;
#X connect 12 0 19 0;
#X connect 13 0 14 0;
#X connect 14 0 17 0;
#X connect 15 0 7 0;
#X connect 16 0 17 1;
#X connect 17 0 0 0;
#X connect 18 0 14 0;
#X connect 19 0 13 0;
#X coords 0 0 1 1 97 21 0;
#X restore 125 -42 pd oscillator~;
#N canvas 960 27 960 982 transient~ 0;
#X text 387 202 transient - noise;
#X obj 344 465 *~;
#X obj 374 441 *~;
#X obj 374 419 *~;
#X obj 373 378 line~;
#X obj 371 227 inlet;
#X obj 342 515 outlet~;
#X msg 371 259 1 \, 0 150;
#X obj 341 204 noise~;
#X connect 1 0 6 0;
#X connect 2 0 1 1;
#X connect 3 0 2 0;
#X connect 3 0 2 1;
#X connect 4 0 3 0;
#X connect 4 0 3 1;
#X connect 5 0 7 0;
#X connect 7 0 4 0;
#X connect 8 0 1 0;
#X coords 0 0 1 1 175 125 0;
#X restore 231 -92 pd transient~;
#X obj 121 -149 t b b b;
#X obj 138 -270 inlet;
#X obj 156 287 outlet~;
#X obj 289 -4 / 127;
#X obj 289 6 * 1;
#X obj 289 21 + 2;
#X obj 129 162 hip~ 400;
#X obj 250 42 / 127;
#X obj 251 76 + 1;
#X obj 231 59 f;
#X obj 289 32 t b a;
#X obj 195 63 * 1500;
#X obj 211 -281 inlet;
#X obj 266 -281 inlet;
#X obj 311 -281 inlet;
#X floatatom 241 -114 5 0 0 0 - - -, f 5;
#X floatatom 212 -120 5 0 0 0 - - -, f 5;
#X obj 234 -143 * 200;
#X obj 207 -153 * 300;
#X obj 155 232 expr~ tanh($v1);
#X msg 329 -203 \; set-softness 7 \; set-size 22 \; set-dirt 34;
#X obj 211 -270 s set-softness;
#X obj 266 -243 s set-dirt;
#X obj 311 -270 s set-size;
#X obj 207 -203 r softness;
#X obj 250 -222 r size;
#X obj 253 -180 r size;
#X obj 327 -40 r size;
#X obj 215 21 r softness;
#X obj 155 251 *~ 0.75;
#X connect 0 0 6 0;
#X connect 1 0 37 0;
#X connect 2 0 6 1;
#X connect 3 0 6 2;
#X connect 4 0 2 0;
#X connect 4 1 3 0;
#X connect 5 0 7 0;
#X connect 6 0 43 0;
#X connect 7 0 4 0;
#X connect 8 0 56 0;
#X connect 12 0 14 0;
#X connect 13 0 34 1;
#X connect 14 0 13 0;
#X connect 15 0 57 0;
#X connect 16 0 55 0;
#X connect 17 0 30 0;
#X connect 18 0 8 1;
#X connect 19 0 17 0;
#X connect 20 0 21 0;
#X connect 21 0 22 0;
#X connect 22 0 24 1;
#X connect 23 0 20 0;
#X connect 24 0 35 1;
#X connect 25 0 54 0;
#X connect 26 0 31 0;
#X connect 27 0 2 0;
#X connect 28 0 34 3;
#X connect 28 0 52 0;
#X connect 29 0 34 2;
#X connect 29 0 53 0;
#X connect 30 0 18 0;
#X connect 31 0 48 0;
#X connect 32 0 46 0;
#X connect 33 0 3 0;
#X connect 34 0 0 1;
#X connect 35 0 0 0;
#X connect 36 0 24 0;
#X connect 36 0 6 0;
#X connect 37 0 34 0;
#X connect 37 1 36 0;
#X connect 37 2 35 0;
#X connect 38 0 1 0;
#X connect 40 0 41 0;
#X connect 41 0 42 0;
#X connect 42 0 47 0;
#X connect 43 0 8 0;
#X connect 44 0 45 0;
#X connect 46 0 33 0;
#X connect 47 0 46 0;
#X connect 47 1 33 1;
#X connect 48 0 27 0;
#X connect 49 0 58 0;
#X connect 50 0 59 0;
#X connect 51 0 60 0;
#X connect 54 0 28 0;
#X connect 55 0 29 0;
#X connect 56 0 66 0;
#X connect 61 0 12 0;
#X connect 62 0 16 0;
#X connect 63 0 25 0;
#X connect 64 0 40 0;
#X connect 65 0 26 0;
#X connect 65 0 32 0;
#X connect 65 0 44 0;
#X connect 66 0 39 0;
#X restore 40 358 pd snare-synth~;
#X obj 39 288 bng 15 250 50 0 empty empty empty 17 7 0 10 -262144 -1
-1;
#N canvas 0 100 1073 797 bd-synth~ 0;
#X obj 224 176 *~;
#X obj 207 -118 bng 60 250 50 0 play-drum empty empty 17 7 0 10 -262144
-1 -1;
#X floatatom 231 230 5 0 0 0 - - -, f 5;
#X floatatom 251 230 5 0 0 0 - - -, f 5;
#X obj 231 217 unpack;
#X obj 231 193 loadbang;
#X obj 224 243 bob~;
#X msg 231 205 300 2;
#X obj 201 291 *~ 2;
#X floatatom 92 57 5 0 127 0 softness set-softness softness, f 5;
#X floatatom 92 67 5 0 127 0 dirt set-dirt dirt, f 5;
#X floatatom 92 77 5 0 127 0 size set-size size, f 5;
#X obj 256 -40 / 127;
#X obj 256 -14 + 5;
#X obj 256 -29 * 25;
#X obj 397 -76 loadbang;
#X obj 276 -27 / 127;
#X obj 276 -16 * 250;
#X obj 345 198 / 127;
#X obj 337 244 + 1.05;
#X obj 308 75 / 127;
#X obj 308 87 * 8;
#X obj 308 101 + 1.05;
#X obj 299 117 *~;
#X obj 303 -17 / 127;
#X obj 303 -6 * 150;
#X obj 264 180 / 127;
#X obj 264 201 * 300;
#X obj 264 213 + 78;
#X obj 303 9 + 33;
#X obj 276 -1 + 25;
#X obj 264 190 expr 1-$f1;
#X obj 299 180 / 127;
#X obj 299 213 + 1;
#N canvas 1144 128 754 562 envelope~ 0;
#X obj 397 859 *~;
#X obj 397 837 *~;
#X obj 317 158 inlet;
#X obj 509 239 inlet;
#X obj 559 265 inlet;
#X obj 613 295 inlet;
#X obj 397 881 outlet~;
#X obj 265 371 f;
#X obj 305 371 f;
#X obj 335 371 f;
#X obj 254 290 t b b b, f 12;
#X obj 316 495 +;
#X obj 286 455 + 4;
#X obj 254 420 t a a;
#X obj 233 725 vline~;
#X msg 180 641 0.95 \$1 4;
#X msg 555 642 0 4 0;
#X obj 260 645 pack 0.95 75 11;
#X obj 176 555 t b b a;
#X obj 380 645 pack 0 50 86;
#X obj 481 835 delay;
#X obj 349 521 +;
#X obj 519 996 outlet;
#X connect 0 0 6 0;
#X connect 1 0 0 0;
#X connect 1 0 0 1;
#X connect 2 0 10 0;
#X connect 3 0 7 1;
#X connect 4 0 8 0;
#X connect 5 0 9 0;
#X connect 7 0 13 0;
#X connect 8 0 11 1;
#X connect 8 0 17 1;
#X connect 9 0 19 1;
#X connect 9 0 21 1;
#X connect 10 0 7 0;
#X connect 10 1 8 0;
#X connect 10 2 9 0;
#X connect 10 2 16 0;
#X connect 11 0 19 2;
#X connect 11 0 21 0;
#X connect 12 0 11 0;
#X connect 12 0 17 2;
#X connect 13 0 18 0;
#X connect 13 1 12 0;
#X connect 14 0 1 0;
#X connect 14 0 1 1;
#X connect 15 0 14 0;
#X connect 16 0 14 0;
#X connect 17 0 14 0;
#X connect 18 0 19 0;
#X connect 18 0 20 0;
#X connect 18 1 17 0;
#X connect 18 2 15 0;
#X connect 19 0 14 0;
#X connect 20 0 22 0;
#X connect 21 0 20 1;
#X restore 195 79 pd envelope~;
#N canvas 940 100 960 980 oscillator~ 0;
#X obj 455 573 osc~;
#X text 493 137 drum vibration - tone;
#X obj 250 299 inlet;
#X obj 346 704 outlet~;
#X obj 596 507 delay 50;
#X msg 651 532 100 100;
#X obj 651 489 delay 75;
#X obj 361 336 / 127;
#X obj 361 358 * 2500;
#X obj 361 388 + 2500;
#X obj 357 448 f 2500;
#X obj 553 326 / 127;
#X obj 553 304 r \$0-size;
#X obj 553 378 + 15;
#X obj 553 348 * 50;
#X msg 596 550 65 75;
#X obj 536 487 delay 10;
#X msg 520 580 75 \$1;
#X obj 536 509 f 15;
#X obj 455 549 vline~;
#X obj 361 314 r \$0-softness;
#X obj 425 414 * 10;
#X obj 425 439 + 10;
#X obj 416 475 pack;
#X obj 405 338 expr 1 - $f1;
#X msg 456 510 \$1 \, 0 \$2;
#X obj 425 369 pow 8;
#X connect 0 0 3 0;
#X connect 2 0 10 0;
#X connect 2 0 16 0;
#X connect 4 0 15 0;
#X connect 4 0 6 0;
#X connect 5 0 0 0;
#X connect 6 0 5 0;
#X connect 7 0 8 0;
#X connect 7 0 24 0;
#X connect 8 0 9 0;
#X connect 9 0 10 1;
#X connect 10 0 23 0;
#X connect 11 0 14 0;
#X connect 12 0 11 0;
#X connect 13 0 4 1;
#X connect 13 0 18 1;
#X connect 14 0 13 0;
#X connect 15 0 19 0;
#X connect 16 0 4 0;
#X connect 16 0 18 0;
#X connect 17 0 19 0;
#X connect 18 0 17 0;
#X connect 19 0 0 0;
#X connect 20 0 7 0;
#X connect 21 0 22 0;
#X connect 22 0 23 1;
#X connect 23 0 25 0;
#X connect 24 0 26 0;
#X connect 25 0 19 0;
#X connect 26 0 21 0;
#X coords 0 0 1 1 97 21 0;
#X restore 134 42 pd oscillator~;
#N canvas 960 27 960 982 transient~ 0;
#X text 387 202 transient - noise;
#X obj 344 465 *~;
#X obj 374 441 *~;
#X obj 374 419 *~;
#X obj 373 378 line~;
#X obj 371 227 inlet;
#X obj 342 515 outlet~;
#X obj 341 204 pink~;
#X msg 371 259 1 \, 0 100;
#X connect 1 0 6 0;
#X connect 2 0 1 1;
#X connect 3 0 2 0;
#X connect 3 0 2 1;
#X connect 4 0 3 0;
#X connect 4 0 3 1;
#X connect 5 0 8 0;
#X connect 7 0 1 0;
#X connect 8 0 4 0;
#X coords 0 0 1 1 175 125 0;
#X restore 299 45 pd transient~;
#X obj 190 -11 t b b b;
#X obj 215 -150 inlet;
#X obj 214 344 outlet~;
#X obj 185 261 hip~ 20;
#X obj 297 -147 inlet;
#X obj 352 -147 inlet;
#X obj 397 -147 inlet;
#X obj 212 321 expr~ tanh($v1);
#X msg 397 -50 \; set-softness 7 \; set-size 22 \; set-dirt 22;
#X obj 352 -116 s set-dirt;
#X obj 289 -94 s set-softness;
#X obj 440 -116 s set-size;
#X obj 271 -61 r softness;
#X obj 291 -48 r size;
#X obj 318 -38 r size;
#X obj 372 69 r dirt;
#X obj 370 158 r dirt;
#X obj 283 159 r softness;
#X obj 344 221 * 8;
#X connect 0 0 6 0;
#X connect 1 0 37 0;
#X connect 2 0 6 1;
#X connect 3 0 6 2;
#X connect 4 0 2 0;
#X connect 4 1 3 0;
#X connect 5 0 7 0;
#X connect 6 0 40 0;
#X connect 7 0 4 0;
#X connect 8 0 44 0;
#X connect 12 0 14 0;
#X connect 13 0 34 1;
#X connect 14 0 13 0;
#X connect 15 0 45 0;
#X connect 16 0 17 0;
#X connect 17 0 30 0;
#X connect 18 0 55 0;
#X connect 19 0 8 1;
#X connect 20 0 21 0;
#X connect 21 0 22 0;
#X connect 22 0 23 1;
#X connect 23 0 0 0;
#X connect 24 0 25 0;
#X connect 25 0 29 0;
#X connect 26 0 31 0;
#X connect 27 0 28 0;
#X connect 28 0 2 0;
#X connect 29 0 34 3;
#X connect 30 0 34 2;
#X connect 31 0 27 0;
#X connect 32 0 33 0;
#X connect 33 0 3 0;
#X connect 34 0 0 1;
#X connect 35 0 0 0;
#X connect 36 0 23 0;
#X connect 37 0 34 0;
#X connect 37 1 36 0;
#X connect 37 2 35 0;
#X connect 38 0 1 0;
#X connect 40 0 8 0;
#X connect 41 0 47 0;
#X connect 42 0 46 0;
#X connect 43 0 48 0;
#X connect 44 0 39 0;
#X connect 49 0 12 0;
#X connect 50 0 16 0;
#X connect 51 0 24 0;
#X connect 52 0 20 0;
#X connect 53 0 18 0;
#X connect 54 0 26 0;
#X connect 54 0 32 0;
#X connect 55 0 19 0;
#X restore 294 338 pd bd-synth~;
#X obj 86 400 *~;
#N canvas 0 100 1073 797 hh-synth~ 0;
#X obj 189 157 *~;
#X obj 207 -118 bng 60 250 50 0 play-drum empty empty 17 7 0 10 -262144
-1 -1;
#X floatatom 207 225 5 0 0 0 - - -, f 5;
#X floatatom 248 226 5 0 0 0 - - -, f 5;
#X obj 196 198 unpack;
#X obj 195 174 loadbang;
#X obj 168 254 bob~;
#X obj 203 324 *~ 2;
#X floatatom 92 57 5 0 127 0 softness set-softness softness, f 5;
#X floatatom 92 67 5 0 127 0 dirt set-dirt dirt, f 5;
#X floatatom 92 77 5 0 127 0 size set-size size, f 5;
#X obj 256 -40 / 127;
#X obj 244 -8 + 5;
#X obj 256 -29 * 25;
#X obj 397 -76 loadbang;
#X obj 276 -27 / 127;
#X obj 345 198 / 127;
#X obj 345 224 + 1.05;
#X obj 308 75 / 127;
#X obj 308 87 * 8;
#X obj 308 101 + 1.05;
#X obj 299 117 *~;
#X obj 303 -17 / 127;
#X obj 303 -6 * 150;
#X obj 303 9 + 33;
#X obj 276 -1 + 25;
#X obj 345 209 * 6;
#N canvas 1144 128 754 562 envelope~ 0;
#X obj 397 859 *~;
#X obj 397 837 *~;
#X obj 317 158 inlet;
#X obj 509 239 inlet;
#X obj 559 265 inlet;
#X obj 613 295 inlet;
#X obj 397 881 outlet~;
#X obj 265 371 f;
#X obj 305 371 f;
#X obj 335 371 f;
#X obj 254 290 t b b b, f 12;
#X obj 316 495 +;
#X obj 286 455 + 4;
#X obj 254 420 t a a;
#X obj 233 725 vline~;
#X msg 180 641 0.95 \$1 4;
#X msg 555 642 0 4 0;
#X obj 260 645 pack 0.95 75 11;
#X obj 176 555 t b b a;
#X obj 380 645 pack 0 50 86;
#X obj 481 835 delay;
#X obj 349 521 +;
#X obj 519 996 outlet;
#X connect 0 0 6 0;
#X connect 1 0 0 0;
#X connect 1 0 0 1;
#X connect 2 0 10 0;
#X connect 3 0 7 1;
#X connect 4 0 8 0;
#X connect 5 0 9 0;
#X connect 7 0 13 0;
#X connect 8 0 11 1;
#X connect 8 0 17 1;
#X connect 9 0 19 1;
#X connect 9 0 21 1;
#X connect 10 0 7 0;
#X connect 10 1 8 0;
#X connect 10 2 9 0;
#X connect 10 2 16 0;
#X connect 11 0 19 2;
#X connect 11 0 21 0;
#X connect 12 0 11 0;
#X connect 12 0 17 2;
#X connect 13 0 18 0;
#X connect 13 1 12 0;
#X connect 14 0 1 0;
#X connect 14 0 1 1;
#X connect 15 0 14 0;
#X connect 16 0 14 0;
#X connect 17 0 14 0;
#X connect 18 0 19 0;
#X connect 18 0 20 0;
#X connect 18 1 17 0;
#X connect 18 2 15 0;
#X connect 19 0 14 0;
#X connect 20 0 22 0;
#X connect 21 0 20 1;
#X restore 205 50 pd envelope~;
#N canvas 960 27 960 982 transient~ 0;
#X text 387 202 transient - noise;
#X obj 344 465 *~;
#X obj 374 441 *~;
#X obj 374 419 *~;
#X obj 373 378 line~;
#X obj 371 227 inlet;
#X obj 342 515 outlet~;
#X obj 341 204 pink~;
#X msg 371 259 1 \, 0 100;
#X connect 1 0 6 0;
#X connect 2 0 1 1;
#X connect 3 0 2 0;
#X connect 3 0 2 1;
#X connect 4 0 3 0;
#X connect 4 0 3 1;
#X connect 5 0 8 0;
#X connect 7 0 1 0;
#X connect 8 0 4 0;
#X coords 0 0 1 1 175 125 0;
#X restore 299 45 pd transient~;
#X obj 190 -11 t b b b;
#X obj 215 -150 inlet;
#X obj 223 398 outlet~;
#X obj 297 -147 inlet;
#X obj 352 -147 inlet;
#X obj 397 -147 inlet;
#X obj 197 346 expr~ tanh($v1);
#X msg 397 -50 \; set-softness 7 \; set-size 22 \; set-dirt 22;
#X obj 352 -116 s set-dirt;
#X obj 289 -94 s set-softness;
#X obj 440 -116 s set-size;
#X obj 271 -61 r softness;
#X obj 291 -48 r size;
#X obj 318 -38 r size;
#X obj 372 69 r dirt;
#X obj 370 158 r dirt;
#X obj 144 57 noise~;
#X obj 201 293 hip~ 6500;
#X msg 196 186 2000 2;
#X obj 276 -16 * 50;
#X obj 194 371 *~ 0.5;
#X connect 0 0 6 0;
#X connect 1 0 29 0;
#X connect 2 0 6 1;
#X connect 3 0 6 2;
#X connect 4 0 2 0;
#X connect 4 1 3 0;
#X connect 5 0 47 0;
#X connect 6 0 46 0;
#X connect 7 0 35 0;
#X connect 11 0 13 0;
#X connect 12 0 27 1;
#X connect 13 0 12 0;
#X connect 14 0 36 0;
#X connect 15 0 48 0;
#X connect 16 0 26 0;
#X connect 17 0 7 1;
#X connect 18 0 19 0;
#X connect 19 0 20 0;
#X connect 20 0 21 1;
#X connect 21 0 0 0;
#X connect 22 0 23 0;
#X connect 23 0 24 0;
#X connect 24 0 27 3;
#X connect 25 0 27 2;
#X connect 26 0 17 0;
#X connect 27 0 0 1;
#X connect 28 0 21 0;
#X connect 29 0 27 0;
#X connect 29 1 28 0;
#X connect 30 0 1 0;
#X connect 32 0 38 0;
#X connect 33 0 37 0;
#X connect 34 0 39 0;
#X connect 35 0 49 0;
#X connect 40 0 11 0;
#X connect 41 0 15 0;
#X connect 42 0 22 0;
#X connect 43 0 18 0;
#X connect 44 0 16 0;
#X connect 45 0 0 0;
#X connect 46 0 7 0;
#X connect 47 0 4 0;
#X connect 48 0 25 0;
#X connect 49 0 31 0;
#X restore 539 334 pd hh-synth~;
#X obj 171 422 *~;
#X obj 13 9 pure-dirt;
#X obj 185 397 dirt-param~ room;
#X obj 153 328 dirt-param~ gain;
#X obj 39 265 dirt-voice sn;
#X obj 171 441 throw~ reverb;
#X obj 153 347 *~;
#X obj 153 367 *~;
#X obj 76 500 dirt-orbit~;
#X obj 294 288 bng 15 250 50 0 empty empty empty 17 7 0 10 -262144
-1 -1;
#X obj 341 400 *~;
#X obj 426 422 *~;
#X obj 440 397 dirt-param~ room;
#X obj 408 328 dirt-param~ gain;
#X obj 426 441 throw~ reverb;
#X obj 408 347 *~;
#X obj 408 367 *~;
#X obj 331 500 dirt-orbit~;
#X obj 534 288 bng 15 250 50 0 empty empty empty 17 7 0 10 -262144
-1 -1;
#X obj 581 400 *~;
#X obj 666 422 *~;
#X obj 680 397 dirt-param~ room;
#X obj 648 328 dirt-param~ gain;
#X obj 666 441 throw~ reverb;
#X obj 648 347 *~;
#X obj 648 367 *~;
#X obj 571 500 dirt-orbit~;
#N canvas 0 100 1920 980 dirt-mixer~ 0;
#X obj 24 275 *~ 0.8;
#N canvas 0 100 947 793 reverb~ 0;
#X obj 86 119 *~ 0.7;
#X obj 136 120 *~ 0.7;
#X obj 90 95 rev2~ 100 90 3000 20;
#X obj 90 69 catch~ reverb;
#X obj 86 138 outlet~;
#X obj 136 139 outlet~;
#X connect 0 0 4 0;
#X connect 1 0 5 0;
#X connect 2 0 0 0;
#X connect 2 1 1 0;
#X connect 3 0 2 0;
#X restore 115 275 pd reverb~;
#X obj 221 16 catch~ orbit1L;
#X obj 66 274 *~ 0.8;
#X obj 231 36 catch~ orbit2L;
#X obj 241 56 catch~ orbit3L;
#X obj 251 76 catch~ orbit4L;
#X obj 311 16 catch~ orbit1R;
#X obj 321 36 catch~ orbit2R;
#X obj 331 56 catch~ orbit3R;
#X obj 341 76 catch~ orbit4R;
#X obj 96 313 dac~ 1 2;
#X obj 307 225 vu 15 120 empty orbit_1 -1 -8 0 10 -66577 -262144 1
0;
#X obj 744 47 loadbang;
#X obj 327 225 vu 15 120 empty orbit_1 -1 -8 0 10 -66577 -1 1 0;
#X obj 377 225 vu 15 120 empty empty -1 -8 0 10 -66577 -262144 1 0
;
#X obj 397 225 vu 15 120 empty orbit_2 -1 -8 0 10 -66577 -1 1 0;
#X obj 447 225 vu 15 120 empty empty -1 -8 0 10 -66577 -262144 1 0
;
#X obj 467 225 vu 15 120 empty orbit_3 -1 -8 0 10 -66577 -1 1 0;
#X obj 522 225 vu 15 120 empty empty -1 -8 0 10 -66577 -262144 1 0
;
#X obj 542 225 vu 15 120 empty orbit_4 -1 -8 0 10 -66577 -1 1 0;
#X obj 306 153 signal-to-db~;
#X obj 744 66 metro 100;
#X obj 364 180 signal-to-db~;
#X obj 426 156 signal-to-db~;
#X obj 486 181 signal-to-db~;
#X obj 546 156 signal-to-db~;
#X obj 606 181 signal-to-db~;
#X obj 666 156 signal-to-db~;
#X obj 727 186 signal-to-db~;
#X obj 222 271 tgl 75 0 empty empty Start_Audio -17 -7 0 10 -262144
-1 -1 1 1;
#X msg 222 354 \; pd dsp \$1;
#X connect 0 0 11 0;
#X connect 1 0 11 0;
#X connect 1 1 11 1;
#X connect 2 0 0 0;
#X connect 2 0 21 0;
#X connect 3 0 11 1;
#X connect 4 0 0 0;
#X connect 4 0 24 0;
#X connect 5 0 0 0;
#X connect 5 0 26 0;
#X connect 6 0 0 0;
#X connect 6 0 28 0;
#X connect 7 0 3 0;
#X connect 7 0 23 0;
#X connect 8 0 3 0;
#X connect 8 0 25 0;
#X connect 9 0 3 0;
#X connect 9 0 27 0;
#X connect 10 0 3 0;
#X connect 10 0 29 0;
#X connect 13 0 22 0;
#X connect 21 0 12 0;
#X connect 22 0 21 1;
#X connect 22 0 23 1;
#X connect 22 0 24 1;
#X connect 22 0 25 1;
#X connect 22 0 26 1;
#X connect 22 0 27 1;
#X connect 22 0 28 1;
#X connect 22 0 29 1;
#X connect 23 0 14 0;
#X connect 24 0 15 0;
#X connect 25 0 16 0;
#X connect 26 0 17 0;
#X connect 27 0 18 0;
#X connect 28 0 19 0;
#X connect 29 0 20 0;
#X connect 30 0 31 0;
#X coords 0 -1 1 1 500 150 1 200 200;
#X restore 12 30 pd dirt-mixer~;
#X obj 294 265 dirt-voice bd;
#X obj 534 265 dirt-voice hh;
#X obj 388 192 loadbang;
#X msg 388 211 gain 1 0;
#X obj 124 9 declare -path ./lib;
#X connect 0 0 3 0;
#X connect 1 0 0 0;
#X connect 2 0 15 0;
#X connect 3 0 5 0;
#X connect 3 0 13 0;
#X connect 3 0 13 1;
#X connect 4 0 24 0;
#X connect 5 0 10 0;
#X connect 7 0 5 1;
#X connect 8 0 11 0;
#X connect 8 0 11 1;
#X connect 9 0 1 0;
#X connect 9 1 7 0;
#X connect 9 1 8 0;
#X connect 9 1 13 2;
#X connect 11 0 12 0;
#X connect 11 0 12 1;
#X connect 12 0 3 1;
#X connect 14 0 2 0;
#X connect 15 0 16 0;
#X connect 15 0 22 0;
#X connect 15 0 22 1;
#X connect 16 0 19 0;
#X connect 17 0 16 1;
#X connect 18 0 20 0;
#X connect 18 0 20 1;
#X connect 20 0 21 0;
#X connect 20 0 21 1;
#X connect 21 0 15 1;
#X connect 23 0 4 0;
#X connect 24 0 25 0;
#X connect 24 0 31 0;
#X connect 24 0 31 1;
#X connect 25 0 28 0;
#X connect 26 0 25 1;
#X connect 27 0 29 0;
#X connect 27 0 29 1;
#X connect 29 0 30 0;
#X connect 29 0 30 1;
#X connect 30 0 24 1;
#X connect 33 0 14 0;
#X connect 33 1 17 0;
#X connect 33 1 18 0;
#X connect 33 1 22 2;
#X connect 34 0 23 0;
#X connect 34 1 26 0;
#X connect 34 1 27 0;
#X connect 34 1 31 2;
#X connect 35 0 36 0;
#X connect 36 0 8 0;
#X connect 36 0 18 0;
#X connect 36 0 27 0;
