#N canvas 0 100 1890 980 10;
#X declare -path ./lib;
#X declare -path ./synths;
#X obj 13 9 pure-dirt;
#N canvas 0 100 1920 980 dirt-mixer~ 0;
#X obj 24 275 *~ 0.8;
#N canvas 0 100 947 793 reverb~ 0;
#X obj 86 119 *~ 0.7;
#X obj 136 120 *~ 0.7;
#X obj 90 95 rev2~ 100 90 3000 20;
#X obj 90 69 catch~ reverb;
#X obj 86 138 outlet~;
#X obj 136 139 outlet~;
#X connect 0 0 4 0;
#X connect 1 0 5 0;
#X connect 2 0 0 0;
#X connect 2 1 1 0;
#X connect 3 0 2 0;
#X restore 115 275 pd reverb~;
#X obj 221 16 catch~ orbit1L;
#X obj 66 274 *~ 0.8;
#X obj 231 36 catch~ orbit2L;
#X obj 241 56 catch~ orbit3L;
#X obj 251 76 catch~ orbit4L;
#X obj 311 16 catch~ orbit1R;
#X obj 321 36 catch~ orbit2R;
#X obj 331 56 catch~ orbit3R;
#X obj 341 76 catch~ orbit4R;
#X obj 47 419 dac~ 1 2;
#X obj 307 225 vu 15 120 empty orbit_1 -1 -8 0 10 -66577 -262144 1
0;
#X obj 744 47 loadbang;
#X obj 327 225 vu 15 120 empty orbit_1 -1 -8 0 10 -66577 -1 1 0;
#X obj 377 225 vu 15 120 empty empty -1 -8 0 10 -66577 -262144 1 0
;
#X obj 397 225 vu 15 120 empty orbit_2 -1 -8 0 10 -66577 -1 1 0;
#X obj 447 225 vu 15 120 empty empty -1 -8 0 10 -66577 -262144 1 0
;
#X obj 467 225 vu 15 120 empty orbit_3 -1 -8 0 10 -66577 -1 1 0;
#X obj 522 225 vu 15 120 empty empty -1 -8 0 10 -66577 -262144 1 0
;
#X obj 542 225 vu 15 120 empty orbit_4 -1 -8 0 10 -66577 -1 1 0;
#X obj 306 153 signal-to-db~;
#X obj 744 66 metro 100;
#X obj 364 180 signal-to-db~;
#X obj 426 156 signal-to-db~;
#X obj 486 181 signal-to-db~;
#X obj 546 156 signal-to-db~;
#X obj 606 181 signal-to-db~;
#X obj 666 156 signal-to-db~;
#X obj 727 186 signal-to-db~;
#X obj 222 271 tgl 75 0 empty empty Start_Audio -17 -7 0 10 -262144
-1 -1 1 1;
#X msg 222 354 \; pd dsp \$1;
#N canvas 0 100 1344 879 delay~ 0;
#X obj 104 318 outlet~;
#X obj 280 318 outlet~;
#X obj 104 98 catch~ dirt_delayL;
#X obj 280 96 catch~ dirt_delayR;
#X obj 196 50 catch~ dirt_delay;
#X obj 304 237 *~ 0.44;
#X obj 127 238 *~ 0.44;
#X obj 304 263 throw~ dirt_delayL;
#X obj 127 260 throw~ dirt_delayR;
#X obj 104 131 delwrite~ dirt_delayL 5000;
#X obj 280 130 delwrite~ dirt_delayR 5000;
#X obj 281 207 delread4~ dirt_delayR;
#X obj 104 207 delread4~ dirt_delayL;
#X obj 468 29 r delaytime;
#X msg 475 137 \$1 20;
#X obj 475 157 line~;
#X obj 31 118 osc~;
#X obj 31 77 metro 50;
#X obj 37 48 loadbang;
#X obj 31 96 random 5;
#X obj 19 184 osc~;
#X obj 20 162 random 5;
#X obj 469 79 cycles-to-ms;
#X msg 467 250 \$1 20;
#X obj 467 270 line;
#X obj 467 224 r delayfeedback;
#X obj 19 203 *~ 1;
#X obj 31 138 *~ 1;
#X connect 2 0 9 0;
#X connect 3 0 10 0;
#X connect 4 0 9 0;
#X connect 4 0 10 0;
#X connect 5 0 7 0;
#X connect 6 0 8 0;
#X connect 11 0 1 0;
#X connect 11 0 5 0;
#X connect 12 0 0 0;
#X connect 12 0 6 0;
#X connect 13 0 22 0;
#X connect 14 0 15 0;
#X connect 15 0 11 0;
#X connect 15 0 12 0;
#X connect 16 0 27 0;
#X connect 17 0 19 0;
#X connect 17 0 21 0;
#X connect 18 0 17 0;
#X connect 19 0 16 0;
#X connect 20 0 26 0;
#X connect 21 0 20 0;
#X connect 22 0 14 0;
#X connect 23 0 24 0;
#X connect 24 0 5 1;
#X connect 24 0 6 1;
#X connect 25 0 23 0;
#X connect 26 0 12 0;
#X connect 27 0 11 0;
#X restore 113 320 pd delay~;
#X connect 0 0 11 0;
#X connect 1 0 11 0;
#X connect 1 1 11 1;
#X connect 2 0 0 0;
#X connect 2 0 21 0;
#X connect 3 0 11 1;
#X connect 4 0 0 0;
#X connect 4 0 24 0;
#X connect 5 0 0 0;
#X connect 5 0 26 0;
#X connect 6 0 0 0;
#X connect 6 0 28 0;
#X connect 7 0 3 0;
#X connect 7 0 23 0;
#X connect 8 0 3 0;
#X connect 8 0 25 0;
#X connect 9 0 3 0;
#X connect 9 0 27 0;
#X connect 10 0 3 0;
#X connect 10 0 29 0;
#X connect 13 0 22 0;
#X connect 21 0 12 0;
#X connect 22 0 21 1;
#X connect 22 0 23 1;
#X connect 22 0 24 1;
#X connect 22 0 25 1;
#X connect 22 0 26 1;
#X connect 22 0 27 1;
#X connect 22 0 28 1;
#X connect 22 0 29 1;
#X connect 23 0 14 0;
#X connect 24 0 15 0;
#X connect 25 0 16 0;
#X connect 26 0 17 0;
#X connect 27 0 18 0;
#X connect 28 0 19 0;
#X connect 29 0 20 0;
#X connect 30 0 31 0;
#X connect 32 0 11 0;
#X connect 32 1 11 1;
#X coords 0 -1 1 1 500 150 1 200 200;
#X restore 12 30 pd dirt-mixer~;
#X obj 124 9 declare -path ./lib;
#X obj 294 9 declare -path ./synths;
#X obj 656 288 dirt-orbit~, f 22;
#X obj 530 288 dirt-orbit~, f 20;
#X obj 307 289 dirt-orbit~, f 15;
#X obj 15 288 dirt-orbit~, f 15;
#X obj 112 288 dirt-orbit~, f 15;
#X obj 655 244 bng 15 250 50 0 empty empty empty 17 7 0 10 -262144
-1 -1;
#X obj 530 264 analogue.bass~ bass, f 20;
#X obj 529 244 bng 15 250 50 0 empty empty empty 17 7 0 10 -262144
-1 -1;
#X obj 307 244 bng 15 250 50 0 empty empty empty 17 7 0 10 -262144
-1 -1;
#X obj 307 264 analogue.hh~ hh;
#X obj 15 245 bng 15 250 50 0 empty empty empty 17 7 0 10 -262144 -1
-1;
#X obj 15 265 analogue.bd~ bd;
#X obj 112 245 bng 15 250 50 0 empty empty empty 17 7 0 10 -262144
-1 -1;
#X obj 112 265 analogue.sd~ sn;
#X obj 530 362 dirt-orbit~, f 22;
#X obj 530 318 bng 15 250 50 0 empty empty empty 17 7 0 10 -262144
-1 -1;
#X obj 656 264 analogue.supersaw~ pad;
#X obj 404 289 dirt-orbit~, f 15;
#X obj 404 244 bng 15 250 50 0 empty empty empty 17 7 0 10 -262144
-1 -1;
#X obj 404 264 analogue.rc~ rc;
#X obj 625 153 dirt-orbit~, f 22;
#X obj 624 109 bng 15 250 50 0 empty empty empty 17 7 0 10 -262144
-1 -1;
#X obj 625 129 analogue.polysaw~ pad2;
#X obj 669 362 dirt-orbit~, f 22;
#X obj 669 318 bng 15 250 50 0 empty empty empty 17 7 0 10 -262144
-1 -1;
#X obj 669 338 fm.4op-dyn~ bell2;
#X obj 808 361 dirt-orbit~, f 22;
#X obj 808 317 bng 15 250 50 0 empty empty empty 17 7 0 10 -262144
-1 -1;
#X obj 808 337 fm.4op-stat~ bell3;
#X obj 209 288 dirt-orbit~, f 15;
#X obj 209 245 bng 15 250 50 0 empty empty empty 17 7 0 10 -262144
-1 -1;
#X obj 209 265 analogue.rm~ rm;
#X obj 530 338 fm.4op-par~ bell;
#X obj 15 358 dirt-orbit~, f 15;
#X obj 15 315 bng 15 250 50 0 empty empty empty 17 7 0 10 -262144 -1
-1;
#X obj 115 358 dirt-orbit~, f 15;
#X obj 115 315 bng 15 250 50 0 empty empty empty 17 7 0 10 -262144
-1 -1;
#X obj 15 335 fm.bd~ bd2, f 15;
#X obj 213 357 dirt-orbit~, f 15;
#X obj 213 314 bng 15 250 50 0 empty empty empty 17 7 0 10 -262144
-1 -1;
#X obj 313 357 dirt-orbit~, f 15;
#X obj 313 314 bng 15 250 50 0 empty empty empty 17 7 0 10 -262144
-1 -1;
#X obj 114 334 fm.sn~ sn2, f 15;
#X obj 213 334 fm.sn~ rm2, f 15;
#X obj 413 357 dirt-orbit~, f 15;
#X obj 413 314 bng 15 250 50 0 empty empty empty 17 7 0 10 -262144
-1 -1;
#X obj 313 334 fm.hh~ hh2, f 15;
#X obj 413 333 fm.rc~ rc2, f 15;
#X connect 9 0 20 0;
#X connect 10 0 5 0;
#X connect 10 1 5 1;
#X connect 10 2 5 2;
#X connect 11 0 10 0;
#X connect 12 0 13 0;
#X connect 13 0 6 0;
#X connect 13 1 6 1;
#X connect 13 2 6 2;
#X connect 14 0 15 0;
#X connect 15 0 7 0;
#X connect 15 1 7 1;
#X connect 15 2 7 2;
#X connect 16 0 17 0;
#X connect 17 0 8 0;
#X connect 17 1 8 1;
#X connect 17 2 8 2;
#X connect 19 0 36 0;
#X connect 20 0 4 0;
#X connect 20 1 4 1;
#X connect 20 2 4 2;
#X connect 22 0 23 0;
#X connect 23 0 21 0;
#X connect 23 1 21 1;
#X connect 23 2 21 2;
#X connect 25 0 26 0;
#X connect 26 0 24 0;
#X connect 26 1 24 1;
#X connect 26 2 24 2;
#X connect 28 0 29 0;
#X connect 29 0 27 0;
#X connect 29 1 27 1;
#X connect 29 2 27 2;
#X connect 31 0 32 0;
#X connect 32 0 30 0;
#X connect 32 1 30 1;
#X connect 32 2 30 2;
#X connect 34 0 35 0;
#X connect 35 0 33 0;
#X connect 35 1 33 1;
#X connect 35 2 33 2;
#X connect 36 0 18 0;
#X connect 36 1 18 1;
#X connect 36 2 18 2;
#X connect 38 0 41 0;
#X connect 40 0 46 0;
#X connect 41 0 37 0;
#X connect 41 1 37 1;
#X connect 41 2 37 2;
#X connect 43 0 47 0;
#X connect 45 0 50 0;
#X connect 46 0 39 0;
#X connect 46 1 39 1;
#X connect 46 2 39 2;
#X connect 47 0 42 0;
#X connect 47 1 42 1;
#X connect 47 2 42 2;
#X connect 49 0 51 0;
#X connect 50 0 44 0;
#X connect 50 1 44 1;
#X connect 50 2 44 2;
#X connect 51 0 48 0;
#X connect 51 1 48 1;
#X connect 51 2 48 2;
