#N canvas 99 202 1537 978 10;
#X obj 305 157 r bd;
#N canvas 267 357 1440 718 pure-dirt 0;
#X msg 47 82 listen 57120;
#X obj 47 106 netreceive -u -b 57120;
#X obj 47 134 oscparse;
#X obj 47 56 loadbang;
#N canvas 0 100 966 859 cycle-clock 0;
#X obj 70 83 v cps;
#X obj 70 59 metro 20;
#X obj 33 139 metro 1000;
#X obj 70 107 expr 1000*(1/$f1);
#X msg 33 219 0 \, 1 \$1;
#X obj 33 197 f;
#X obj 32 333 +;
#X msg 129 59 1;
#X obj 33 32 t b b b;
#X obj 32 10 loadbang;
#X obj 32 359 v now;
#X obj 68 287 v cycle-base;
#X obj 33 242 line 0 1;
#X obj 33 165 t b b;
#X connect 0 0 3 0;
#X connect 1 0 0 0;
#X connect 2 0 13 0;
#X connect 3 0 2 1;
#X connect 3 0 5 1;
#X connect 4 0 12 0;
#X connect 5 0 4 0;
#X connect 6 0 10 0;
#X connect 7 0 0 0;
#X connect 8 0 2 0;
#X connect 8 1 1 0;
#X connect 8 2 7 0;
#X connect 9 0 8 0;
#X connect 11 0 6 1;
#X connect 12 0 6 0;
#X connect 13 0 5 0;
#X connect 13 1 11 0;
#X restore 213 101 pd cycle-clock;
#N canvas 0 100 1068 765 calculate-time-until-event 0;
#X obj 115 74 v now;
#X obj 100 52 t a b;
#X obj 100 127 -;
#X obj 100 21 inlet;
#X obj 99 304 outlet;
#X obj 99 154 t a b;
#X obj 286 185 v cps;
#X obj 99 208 expr if ($f1>0 \, 1000.0*($f1/$f2) \, 0);
#X obj 131 256 v latency;
#X obj 99 278 + 50;
#X obj 99 227 t a b;
#X connect 0 0 2 1;
#X connect 1 0 2 0;
#X connect 1 1 0 0;
#X connect 2 0 5 0;
#X connect 3 0 1 0;
#X connect 5 0 7 0;
#X connect 5 1 6 0;
#X connect 6 0 7 1;
#X connect 7 0 10 0;
#X connect 8 0 9 1;
#X connect 9 0 4 0;
#X connect 10 0 9 0;
#X connect 10 1 8 0;
#X restore 180 328 pd calculate-time-until-event;
#N canvas 0 100 450 300 get-event-time-from-message 0;
#X obj 29 96 route cycle;
#N canvas 0 100 812 584 break-into-pairs-of-params 0;
#X obj 108 97 inlet;
#X obj 108 117 list split 2;
#X obj 108 192 outlet;
#N canvas 0 100 450 300 thru 0;
#X obj 135 70 inlet;
#X obj 135 89 outlet;
#X connect 0 0 1 0;
#X restore 162 163 pd thru;
#X obj 108 136 list trim;
#X connect 0 0 1 0;
#X connect 1 0 4 0;
#X connect 1 1 3 0;
#X connect 3 0 1 0;
#X connect 4 0 2 0;
#X restore 28 71 pd break-into-pairs-of-params;
#X obj 45 29 inlet;
#X obj 29 130 outlet;
#X connect 0 0 3 0;
#X connect 1 0 0 0;
#X connect 2 0 1 0;
#X restore 181 257 pd get-event-time-from-message;
#N canvas 0 100 450 300 trim-message 0;
#X obj 109 103 route play2;
#X obj 109 82 list trim;
#X obj 109 58 inlet;
#X obj 109 122 outlet;
#X connect 0 0 3 0;
#X connect 1 0 0 0;
#X connect 2 0 1 0;
#X restore 47 166 pd trim-message;
#X obj 47 190 t a a;
#N canvas 0 100 848 607 schedule-sound-event 0;
#X obj 182 216 list;
#X obj 183 191 t b a;
#N canvas 0 100 812 584 break-into-pairs-of-params 0;
#X obj 108 97 inlet;
#X obj 108 117 list split 2;
#X obj 108 192 outlet;
#N canvas 0 100 450 300 thru 0;
#X obj 135 70 inlet;
#X obj 135 89 outlet;
#X connect 0 0 1 0;
#X restore 162 163 pd thru;
#X obj 108 136 list trim;
#X connect 0 0 1 0;
#X connect 1 0 4 0;
#X connect 1 1 3 0;
#X connect 3 0 1 0;
#X connect 4 0 2 0;
#X restore 183 100 pd break-into-pairs-of-params;
#X obj 183 77 t a a;
#N canvas 125 231 1269 804 schedule-event 0;
#X obj 161 234 print late;
#X obj 20 33 inlet;
#X obj 124 33 inlet;
#X obj 31 236 list trim;
#X obj 161 213 sel 0;
#X obj 31 294 s;
#X obj 21 57 list split 1;
#X obj 41 124 list;
#X obj 21 92 t b a;
#N canvas 0 100 812 584 break-into-pairs-of-params 0;
#X obj 108 97 inlet;
#X obj 108 117 list split 2;
#X obj 108 192 outlet;
#N canvas 0 100 450 300 thru 0;
#X obj 135 70 inlet;
#X obj 135 89 outlet;
#X connect 0 0 1 0;
#X restore 162 163 pd thru;
#X obj 108 136 list trim;
#X connect 0 0 1 0;
#X connect 1 0 4 0;
#X connect 1 1 3 0;
#X connect 3 0 1 0;
#X connect 4 0 2 0;
#X restore 32 151 pd break-into-pairs-of-params;
#X obj 31 173 list append;
#N canvas 0 100 535 434 set-cps 0;
#X obj 104 155 v cps;
#X obj 104 75 route cps;
#X obj 104 51 inlet;
#X obj 104 94 list trim;
#X obj 104 114 unpack;
#X obj 104 133 pipe;
#X connect 1 0 3 0;
#X connect 2 0 1 0;
#X connect 3 0 4 0;
#X connect 4 0 5 0;
#X connect 4 1 5 1;
#X connect 5 0 0 0;
#X restore 89 293 pd set-cps;
#X connect 1 0 6 0;
#X connect 2 0 4 0;
#X connect 2 0 10 1;
#X connect 3 0 5 0;
#X connect 3 0 11 0;
#X connect 4 0 0 0;
#X connect 6 0 8 0;
#X connect 6 1 7 1;
#X connect 7 0 9 0;
#X connect 8 0 7 0;
#X connect 8 1 5 1;
#X connect 9 0 10 0;
#X connect 10 0 3 0;
#X restore 182 238 pd schedule-event;
#X obj 183 149 list append;
#X obj 183 168 list trim;
#X obj 183 124 route s;
#X obj 183 54 inlet;
#X obj 323 54 inlet;
#X connect 0 0 4 0;
#X connect 1 0 0 0;
#X connect 1 1 0 1;
#X connect 2 0 7 0;
#X connect 3 0 2 0;
#X connect 3 1 5 1;
#X connect 5 0 6 0;
#X connect 6 0 1 0;
#X connect 7 0 5 0;
#X connect 8 0 3 0;
#X connect 9 0 4 1;
#X restore 46 356 pd schedule-sound-event;
#X obj 181 279 t a a;
#N canvas 0 100 563 529 sync-cycle-clock 0;
#X obj 79 227 v cycle-base;
#X obj 79 94 i;
#X obj 79 73 inlet;
#X obj 124 146 v cycle-base;
#X obj 96 172 >;
#X obj 79 120 t a a b;
#X obj 79 202 spigot;
#X connect 1 0 5 0;
#X connect 2 0 1 0;
#X connect 3 0 4 1;
#X connect 4 0 6 1;
#X connect 5 0 6 0;
#X connect 5 1 4 0;
#X connect 5 2 3 0;
#X connect 6 0 0 0;
#X restore 189 306 pd sync-cycle-clock;
#X obj 457 150 loadbang;
#X obj 457 189 v latency;
#X obj 457 169 i 5;
#X obj 215 157 print;
#X connect 0 0 1 0;
#X connect 1 0 2 0;
#X connect 2 0 7 0;
#X connect 3 0 0 0;
#X connect 5 0 9 1;
#X connect 6 0 10 0;
#X connect 7 0 8 0;
#X connect 7 0 15 0;
#X connect 8 0 9 0;
#X connect 8 1 6 0;
#X connect 10 0 5 0;
#X connect 10 1 11 0;
#X connect 12 0 14 0;
#X connect 14 0 13 0;
#X restore 13 9 pd pure-dirt;
#N canvas 0 100 1088 841 snare-synth~ 0;
#X obj 155 38 *~;
#X obj 138 -256 bng 60 250 50 0 play-drum empty empty 17 7 0 10 -262144
-1 -1;
#X floatatom 162 92 5 0 0 0 - - -, f 5;
#X floatatom 182 92 5 0 0 0 - - -, f 5;
#X obj 162 79 unpack;
#X obj 162 56 loadbang;
#X obj 155 106 bob~;
#X msg 162 68 300 2;
#X obj 155 198 *~ 2;
#X floatatom 414 -116 5 0 127 0 softness #0-set-softness #0-softness
, f 5;
#X floatatom 414 -106 5 0 127 0 dirt #0-set-dirt #0-dirt, f 5;
#X floatatom 414 -96 5 0 127 0 size #0-set-size #0-size, f 5;
#X obj 187 -177 / 127;
#X obj 187 -151 + 5;
#X obj 187 -166 * 25;
#X obj 329 -214 loadbang;
#X obj 207 -164 / 127;
#X obj 276 60 / 127;
#X obj 276 86 + 1.05;
#X obj 276 49 r \$0-dirt;
#X obj 240 -62 / 127;
#X obj 240 -50 * 8;
#X obj 240 -36 + 1.05;
#X obj 240 -73 r \$0-dirt;
#X obj 231 -20 *~;
#X obj 234 -154 / 127;
#X obj 195 42 / 127;
#X obj 195 75 + 78;
#X obj 234 -128 + 33;
#X obj 207 -138 + 25;
#X obj 276 71 * 6;
#X obj 195 53 expr 1-$f1;
#X obj 230 42 / 127;
#X obj 231 76 + 1;
#N canvas 1124 112 754 562 envelope~ 0;
#X obj 397 859 *~;
#X obj 397 837 *~;
#X obj 317 158 inlet;
#X obj 509 239 inlet;
#X obj 559 265 inlet;
#X obj 613 295 inlet;
#X obj 397 881 outlet~;
#X obj 265 371 f;
#X obj 305 371 f;
#X obj 335 371 f;
#X obj 254 290 t b b b, f 12;
#X obj 316 495 +;
#X obj 286 455 + 4;
#X obj 254 420 t a a;
#X obj 233 725 vline~;
#X msg 180 641 0.95 \$1 4;
#X msg 555 642 0 4 0;
#X obj 260 645 pack 0.95 75 11;
#X obj 176 555 t b b a;
#X obj 380 645 pack 0 50 86;
#X obj 481 835 delay;
#X obj 349 521 +;
#X obj 519 996 outlet;
#X connect 0 0 6 0;
#X connect 1 0 0 0;
#X connect 1 0 0 1;
#X connect 2 0 10 0;
#X connect 3 0 7 1;
#X connect 4 0 8 0;
#X connect 5 0 9 0;
#X connect 7 0 13 0;
#X connect 8 0 11 1;
#X connect 8 0 17 1;
#X connect 9 0 19 1;
#X connect 9 0 21 1;
#X connect 10 0 7 0;
#X connect 10 1 8 0;
#X connect 10 2 9 0;
#X connect 10 2 16 0;
#X connect 11 0 19 2;
#X connect 11 0 21 0;
#X connect 12 0 11 0;
#X connect 12 0 17 2;
#X connect 13 0 18 0;
#X connect 13 1 12 0;
#X connect 14 0 1 0;
#X connect 14 0 1 1;
#X connect 15 0 14 0;
#X connect 16 0 14 0;
#X connect 17 0 14 0;
#X connect 18 0 19 0;
#X connect 18 0 20 0;
#X connect 18 1 17 0;
#X connect 18 2 15 0;
#X connect 19 0 14 0;
#X connect 20 0 22 0;
#X connect 21 0 20 1;
#X restore 184 -93 pd envelope~;
#N canvas 960 27 960 982 oscillator~ 0;
#X obj 455 743 osc~;
#X text 493 137 drum vibration - tone;
#X obj 250 299 inlet;
#X obj 346 874 outlet~;
#X obj 596 507 delay 50;
#X msg 651 532 100 100;
#X obj 651 489 delay 75;
#X obj 361 336 / 127;
#X obj 361 358 * 2500;
#X obj 361 388 + 2500;
#X obj 357 448 f 2500;
#X msg 596 550 65 75;
#X obj 536 487 delay 10;
#X msg 520 580 75 \$1;
#X obj 455 549 vline~;
#X obj 361 314 r \$0-softness;
#X obj 807 331 inlet~;
#X obj 474 632 *~;
#X msg 456 510 \$1 \, 400 10;
#X obj 536 509 f 15;
#X connect 0 0 3 0;
#X connect 2 0 10 0;
#X connect 2 0 12 0;
#X connect 4 0 11 0;
#X connect 4 0 6 0;
#X connect 5 0 0 0;
#X connect 6 0 5 0;
#X connect 7 0 8 0;
#X connect 8 0 9 0;
#X connect 9 0 10 1;
#X connect 10 0 18 0;
#X connect 11 0 14 0;
#X connect 12 0 4 0;
#X connect 12 0 19 0;
#X connect 13 0 14 0;
#X connect 14 0 17 0;
#X connect 15 0 7 0;
#X connect 16 0 17 1;
#X connect 17 0 0 0;
#X connect 18 0 14 0;
#X connect 19 0 13 0;
#X coords 0 0 1 1 97 21 0;
#X restore 125 -42 pd oscillator~;
#N canvas 960 27 960 982 transient~ 0;
#X text 387 202 transient - noise;
#X obj 344 465 *~;
#X obj 374 441 *~;
#X obj 374 419 *~;
#X obj 373 378 line~;
#X obj 371 227 inlet;
#X obj 342 515 outlet~;
#X msg 371 259 1 \, 0 150;
#X obj 341 204 noise~;
#X connect 1 0 6 0;
#X connect 2 0 1 1;
#X connect 3 0 2 0;
#X connect 3 0 2 1;
#X connect 4 0 3 0;
#X connect 4 0 3 1;
#X connect 5 0 7 0;
#X connect 7 0 4 0;
#X connect 8 0 1 0;
#X coords 0 0 1 1 175 125 0;
#X restore 231 -92 pd transient~;
#X obj 121 -149 t b b b;
#X obj 138 -270 inlet;
#X obj 156 287 outlet~;
#X obj 289 -4 / 127;
#X obj 289 6 * 1;
#X obj 289 21 + 2;
#X obj 129 162 hip~ 400;
#X obj 250 42 / 127;
#X obj 251 76 + 1;
#X obj 231 59 f;
#X obj 289 32 t b a;
#X obj 195 63 * 1500;
#X obj 211 -281 inlet;
#X obj 266 -281 inlet;
#X obj 311 -281 inlet;
#X floatatom 241 -114 5 0 0 0 - - -, f 5;
#X floatatom 212 -120 5 0 0 0 - - -, f 5;
#X obj 234 -143 * 200;
#X obj 207 -153 * 300;
#X obj 155 232 expr~ tanh($v1);
#X msg 329 -203 \; set-softness 7 \; set-size 22 \; set-dirt 34;
#X obj 211 -270 s set-softness;
#X obj 266 -243 s set-dirt;
#X obj 311 -270 s set-size;
#X obj 207 -203 r softness;
#X obj 250 -222 r size;
#X obj 253 -180 r size;
#X obj 327 -40 r size;
#X obj 215 21 r softness;
#X obj 155 251 *~ 0.75;
#X connect 0 0 6 0;
#X connect 1 0 37 0;
#X connect 2 0 6 1;
#X connect 3 0 6 2;
#X connect 4 0 2 0;
#X connect 4 1 3 0;
#X connect 5 0 7 0;
#X connect 6 0 43 0;
#X connect 7 0 4 0;
#X connect 8 0 56 0;
#X connect 12 0 14 0;
#X connect 13 0 34 1;
#X connect 14 0 13 0;
#X connect 15 0 57 0;
#X connect 16 0 55 0;
#X connect 17 0 30 0;
#X connect 18 0 8 1;
#X connect 19 0 17 0;
#X connect 20 0 21 0;
#X connect 21 0 22 0;
#X connect 22 0 24 1;
#X connect 23 0 20 0;
#X connect 24 0 35 1;
#X connect 25 0 54 0;
#X connect 26 0 31 0;
#X connect 27 0 2 0;
#X connect 28 0 34 3;
#X connect 28 0 52 0;
#X connect 29 0 34 2;
#X connect 29 0 53 0;
#X connect 30 0 18 0;
#X connect 31 0 48 0;
#X connect 32 0 46 0;
#X connect 33 0 3 0;
#X connect 34 0 0 1;
#X connect 35 0 0 0;
#X connect 36 0 24 0;
#X connect 36 0 6 0;
#X connect 37 0 34 0;
#X connect 37 1 36 0;
#X connect 37 2 35 0;
#X connect 38 0 1 0;
#X connect 40 0 41 0;
#X connect 41 0 42 0;
#X connect 42 0 47 0;
#X connect 43 0 8 0;
#X connect 44 0 45 0;
#X connect 46 0 33 0;
#X connect 47 0 46 0;
#X connect 47 1 33 1;
#X connect 48 0 27 0;
#X connect 49 0 58 0;
#X connect 50 0 59 0;
#X connect 51 0 60 0;
#X connect 54 0 28 0;
#X connect 55 0 29 0;
#X connect 56 0 66 0;
#X connect 61 0 12 0;
#X connect 62 0 16 0;
#X connect 63 0 25 0;
#X connect 64 0 40 0;
#X connect 65 0 26 0;
#X connect 65 0 32 0;
#X connect 65 0 44 0;
#X connect 66 0 39 0;
#X restore 57 393 pd snare-synth~;
#X obj 86 558 dac~;
#X obj 57 371 bng 15 250 50 0 empty empty empty 17 7 0 10 -262144 -1
-1;
#N canvas 0 100 1073 797 bd-synth~ 0;
#X obj 224 176 *~;
#X obj 207 -118 bng 60 250 50 0 play-drum empty empty 17 7 0 10 -262144
-1 -1;
#X floatatom 231 230 5 0 0 0 - - -, f 5;
#X floatatom 251 230 5 0 0 0 - - -, f 5;
#X obj 231 217 unpack;
#X obj 231 193 loadbang;
#X obj 224 243 bob~;
#X msg 231 205 300 2;
#X obj 201 291 *~ 2;
#X floatatom 92 57 5 0 127 0 softness set-softness softness, f 5;
#X floatatom 92 67 5 0 127 0 dirt set-dirt dirt, f 5;
#X floatatom 92 77 5 0 127 0 size set-size size, f 5;
#X obj 256 -40 / 127;
#X obj 256 -14 + 5;
#X obj 256 -29 * 25;
#X obj 397 -76 loadbang;
#X obj 276 -27 / 127;
#X obj 276 -16 * 250;
#X obj 345 198 / 127;
#X obj 337 244 + 1.05;
#X obj 308 75 / 127;
#X obj 308 87 * 8;
#X obj 308 101 + 1.05;
#X obj 299 117 *~;
#X obj 303 -17 / 127;
#X obj 303 -6 * 150;
#X obj 264 180 / 127;
#X obj 264 201 * 300;
#X obj 264 213 + 78;
#X obj 303 9 + 33;
#X obj 276 -1 + 25;
#X obj 264 190 expr 1-$f1;
#X obj 299 180 / 127;
#X obj 299 213 + 1;
#N canvas 1144 128 754 562 envelope~ 0;
#X obj 397 859 *~;
#X obj 397 837 *~;
#X obj 317 158 inlet;
#X obj 509 239 inlet;
#X obj 559 265 inlet;
#X obj 613 295 inlet;
#X obj 397 881 outlet~;
#X obj 265 371 f;
#X obj 305 371 f;
#X obj 335 371 f;
#X obj 254 290 t b b b, f 12;
#X obj 316 495 +;
#X obj 286 455 + 4;
#X obj 254 420 t a a;
#X obj 233 725 vline~;
#X msg 180 641 0.95 \$1 4;
#X msg 555 642 0 4 0;
#X obj 260 645 pack 0.95 75 11;
#X obj 176 555 t b b a;
#X obj 380 645 pack 0 50 86;
#X obj 481 835 delay;
#X obj 349 521 +;
#X obj 519 996 outlet;
#X connect 0 0 6 0;
#X connect 1 0 0 0;
#X connect 1 0 0 1;
#X connect 2 0 10 0;
#X connect 3 0 7 1;
#X connect 4 0 8 0;
#X connect 5 0 9 0;
#X connect 7 0 13 0;
#X connect 8 0 11 1;
#X connect 8 0 17 1;
#X connect 9 0 19 1;
#X connect 9 0 21 1;
#X connect 10 0 7 0;
#X connect 10 1 8 0;
#X connect 10 2 9 0;
#X connect 10 2 16 0;
#X connect 11 0 19 2;
#X connect 11 0 21 0;
#X connect 12 0 11 0;
#X connect 12 0 17 2;
#X connect 13 0 18 0;
#X connect 13 1 12 0;
#X connect 14 0 1 0;
#X connect 14 0 1 1;
#X connect 15 0 14 0;
#X connect 16 0 14 0;
#X connect 17 0 14 0;
#X connect 18 0 19 0;
#X connect 18 0 20 0;
#X connect 18 1 17 0;
#X connect 18 2 15 0;
#X connect 19 0 14 0;
#X connect 20 0 22 0;
#X connect 21 0 20 1;
#X restore 195 79 pd envelope~;
#N canvas 940 100 960 980 oscillator~ 0;
#X obj 455 573 osc~;
#X text 493 137 drum vibration - tone;
#X obj 250 299 inlet;
#X obj 346 704 outlet~;
#X obj 596 507 delay 50;
#X msg 651 532 100 100;
#X obj 651 489 delay 75;
#X obj 361 336 / 127;
#X obj 361 358 * 2500;
#X obj 361 388 + 2500;
#X obj 357 448 f 2500;
#X obj 553 326 / 127;
#X obj 553 304 r \$0-size;
#X obj 553 378 + 15;
#X obj 553 348 * 50;
#X msg 596 550 65 75;
#X obj 536 487 delay 10;
#X msg 520 580 75 \$1;
#X obj 536 509 f 15;
#X obj 455 549 vline~;
#X obj 361 314 r \$0-softness;
#X obj 425 414 * 10;
#X obj 425 439 + 10;
#X obj 416 475 pack;
#X obj 405 338 expr 1 - $f1;
#X msg 456 510 \$1 \, 0 \$2;
#X obj 425 369 pow 8;
#X connect 0 0 3 0;
#X connect 2 0 10 0;
#X connect 2 0 16 0;
#X connect 4 0 15 0;
#X connect 4 0 6 0;
#X connect 5 0 0 0;
#X connect 6 0 5 0;
#X connect 7 0 8 0;
#X connect 7 0 24 0;
#X connect 8 0 9 0;
#X connect 9 0 10 1;
#X connect 10 0 23 0;
#X connect 11 0 14 0;
#X connect 12 0 11 0;
#X connect 13 0 4 1;
#X connect 13 0 18 1;
#X connect 14 0 13 0;
#X connect 15 0 19 0;
#X connect 16 0 4 0;
#X connect 16 0 18 0;
#X connect 17 0 19 0;
#X connect 18 0 17 0;
#X connect 19 0 0 0;
#X connect 20 0 7 0;
#X connect 21 0 22 0;
#X connect 22 0 23 1;
#X connect 23 0 25 0;
#X connect 24 0 26 0;
#X connect 25 0 19 0;
#X connect 26 0 21 0;
#X coords 0 0 1 1 97 21 0;
#X restore 134 42 pd oscillator~;
#N canvas 960 27 960 982 transient~ 0;
#X text 387 202 transient - noise;
#X obj 344 465 *~;
#X obj 374 441 *~;
#X obj 374 419 *~;
#X obj 373 378 line~;
#X obj 371 227 inlet;
#X obj 342 515 outlet~;
#X obj 341 204 pink~;
#X msg 371 259 1 \, 0 100;
#X connect 1 0 6 0;
#X connect 2 0 1 1;
#X connect 3 0 2 0;
#X connect 3 0 2 1;
#X connect 4 0 3 0;
#X connect 4 0 3 1;
#X connect 5 0 8 0;
#X connect 7 0 1 0;
#X connect 8 0 4 0;
#X coords 0 0 1 1 175 125 0;
#X restore 299 45 pd transient~;
#X obj 190 -11 t b b b;
#X obj 215 -150 inlet;
#X obj 214 344 outlet~;
#X obj 185 261 hip~ 20;
#X obj 297 -147 inlet;
#X obj 352 -147 inlet;
#X obj 397 -147 inlet;
#X obj 212 321 expr~ tanh($v1);
#X msg 397 -50 \; set-softness 7 \; set-size 22 \; set-dirt 22;
#X obj 352 -116 s set-dirt;
#X obj 289 -94 s set-softness;
#X obj 440 -116 s set-size;
#X obj 271 -61 r softness;
#X obj 291 -48 r size;
#X obj 318 -38 r size;
#X obj 372 69 r dirt;
#X obj 370 158 r dirt;
#X obj 283 159 r softness;
#X obj 344 221 * 8;
#X connect 0 0 6 0;
#X connect 1 0 37 0;
#X connect 2 0 6 1;
#X connect 3 0 6 2;
#X connect 4 0 2 0;
#X connect 4 1 3 0;
#X connect 5 0 7 0;
#X connect 6 0 40 0;
#X connect 7 0 4 0;
#X connect 8 0 44 0;
#X connect 12 0 14 0;
#X connect 13 0 34 1;
#X connect 14 0 13 0;
#X connect 15 0 45 0;
#X connect 16 0 17 0;
#X connect 17 0 30 0;
#X connect 18 0 55 0;
#X connect 19 0 8 1;
#X connect 20 0 21 0;
#X connect 21 0 22 0;
#X connect 22 0 23 1;
#X connect 23 0 0 0;
#X connect 24 0 25 0;
#X connect 25 0 29 0;
#X connect 26 0 31 0;
#X connect 27 0 28 0;
#X connect 28 0 2 0;
#X connect 29 0 34 3;
#X connect 30 0 34 2;
#X connect 31 0 27 0;
#X connect 32 0 33 0;
#X connect 33 0 3 0;
#X connect 34 0 0 1;
#X connect 35 0 0 0;
#X connect 36 0 23 0;
#X connect 37 0 34 0;
#X connect 37 1 36 0;
#X connect 37 2 35 0;
#X connect 38 0 1 0;
#X connect 40 0 8 0;
#X connect 41 0 47 0;
#X connect 42 0 46 0;
#X connect 43 0 48 0;
#X connect 44 0 39 0;
#X connect 49 0 12 0;
#X connect 50 0 16 0;
#X connect 51 0 24 0;
#X connect 52 0 20 0;
#X connect 53 0 18 0;
#X connect 54 0 26 0;
#X connect 54 0 32 0;
#X connect 55 0 19 0;
#X restore 311 284 pd bd-synth~;
#X obj 310 265 bng 15 250 50 0 empty empty empty 17 7 0 10 -262144
-1 -1;
#X obj 39 157 r sn;
#X obj 39 288 route s;
#X obj 39 336 pipe;
#X obj 39 311 list split 1;
#X obj 304 182 route s;
#X obj 307 235 pipe;
#X obj 307 210 list split 1;
#X obj 57 429 *~;
#X obj 321 363 *~;
#X obj 86 534 *~ 0.8;
#X obj 590 304 bng 15 250 50 0 empty empty empty 17 7 0 10 -262144
-1 -1;
#X obj 587 226 route s;
#X obj 587 274 pipe;
#X obj 587 249 list split 1;
#X obj 571 362 *~;
#N canvas 0 100 1073 797 hh-synth~ 0;
#X obj 189 157 *~;
#X obj 207 -118 bng 60 250 50 0 play-drum empty empty 17 7 0 10 -262144
-1 -1;
#X floatatom 207 225 5 0 0 0 - - -, f 5;
#X floatatom 248 226 5 0 0 0 - - -, f 5;
#X obj 196 198 unpack;
#X obj 195 174 loadbang;
#X obj 168 254 bob~;
#X obj 203 324 *~ 2;
#X floatatom 92 57 5 0 127 0 softness set-softness softness, f 5;
#X floatatom 92 67 5 0 127 0 dirt set-dirt dirt, f 5;
#X floatatom 92 77 5 0 127 0 size set-size size, f 5;
#X obj 256 -40 / 127;
#X obj 244 -8 + 5;
#X obj 256 -29 * 25;
#X obj 397 -76 loadbang;
#X obj 276 -27 / 127;
#X obj 345 198 / 127;
#X obj 345 224 + 1.05;
#X obj 308 75 / 127;
#X obj 308 87 * 8;
#X obj 308 101 + 1.05;
#X obj 299 117 *~;
#X obj 303 -17 / 127;
#X obj 303 -6 * 150;
#X obj 303 9 + 33;
#X obj 276 -1 + 25;
#X obj 345 209 * 6;
#N canvas 1144 128 754 562 envelope~ 0;
#X obj 397 859 *~;
#X obj 397 837 *~;
#X obj 317 158 inlet;
#X obj 509 239 inlet;
#X obj 559 265 inlet;
#X obj 613 295 inlet;
#X obj 397 881 outlet~;
#X obj 265 371 f;
#X obj 305 371 f;
#X obj 335 371 f;
#X obj 254 290 t b b b, f 12;
#X obj 316 495 +;
#X obj 286 455 + 4;
#X obj 254 420 t a a;
#X obj 233 725 vline~;
#X msg 180 641 0.95 \$1 4;
#X msg 555 642 0 4 0;
#X obj 260 645 pack 0.95 75 11;
#X obj 176 555 t b b a;
#X obj 380 645 pack 0 50 86;
#X obj 481 835 delay;
#X obj 349 521 +;
#X obj 519 996 outlet;
#X connect 0 0 6 0;
#X connect 1 0 0 0;
#X connect 1 0 0 1;
#X connect 2 0 10 0;
#X connect 3 0 7 1;
#X connect 4 0 8 0;
#X connect 5 0 9 0;
#X connect 7 0 13 0;
#X connect 8 0 11 1;
#X connect 8 0 17 1;
#X connect 9 0 19 1;
#X connect 9 0 21 1;
#X connect 10 0 7 0;
#X connect 10 1 8 0;
#X connect 10 2 9 0;
#X connect 10 2 16 0;
#X connect 11 0 19 2;
#X connect 11 0 21 0;
#X connect 12 0 11 0;
#X connect 12 0 17 2;
#X connect 13 0 18 0;
#X connect 13 1 12 0;
#X connect 14 0 1 0;
#X connect 14 0 1 1;
#X connect 15 0 14 0;
#X connect 16 0 14 0;
#X connect 17 0 14 0;
#X connect 18 0 19 0;
#X connect 18 0 20 0;
#X connect 18 1 17 0;
#X connect 18 2 15 0;
#X connect 19 0 14 0;
#X connect 20 0 22 0;
#X connect 21 0 20 1;
#X restore 205 50 pd envelope~;
#N canvas 960 27 960 982 transient~ 0;
#X text 387 202 transient - noise;
#X obj 344 465 *~;
#X obj 374 441 *~;
#X obj 374 419 *~;
#X obj 373 378 line~;
#X obj 371 227 inlet;
#X obj 342 515 outlet~;
#X obj 341 204 pink~;
#X msg 371 259 1 \, 0 100;
#X connect 1 0 6 0;
#X connect 2 0 1 1;
#X connect 3 0 2 0;
#X connect 3 0 2 1;
#X connect 4 0 3 0;
#X connect 4 0 3 1;
#X connect 5 0 8 0;
#X connect 7 0 1 0;
#X connect 8 0 4 0;
#X coords 0 0 1 1 175 125 0;
#X restore 299 45 pd transient~;
#X obj 190 -11 t b b b;
#X obj 215 -150 inlet;
#X obj 223 398 outlet~;
#X obj 297 -147 inlet;
#X obj 352 -147 inlet;
#X obj 397 -147 inlet;
#X obj 197 346 expr~ tanh($v1);
#X msg 397 -50 \; set-softness 7 \; set-size 22 \; set-dirt 22;
#X obj 352 -116 s set-dirt;
#X obj 289 -94 s set-softness;
#X obj 440 -116 s set-size;
#X obj 271 -61 r softness;
#X obj 291 -48 r size;
#X obj 318 -38 r size;
#X obj 372 69 r dirt;
#X obj 370 158 r dirt;
#X obj 144 57 noise~;
#X obj 201 293 hip~ 6500;
#X msg 196 186 2000 2;
#X obj 276 -16 * 50;
#X obj 194 371 *~ 0.5;
#X connect 0 0 6 0;
#X connect 1 0 29 0;
#X connect 2 0 6 1;
#X connect 3 0 6 2;
#X connect 4 0 2 0;
#X connect 4 1 3 0;
#X connect 5 0 47 0;
#X connect 6 0 46 0;
#X connect 7 0 35 0;
#X connect 11 0 13 0;
#X connect 12 0 27 1;
#X connect 13 0 12 0;
#X connect 14 0 36 0;
#X connect 15 0 48 0;
#X connect 16 0 26 0;
#X connect 17 0 7 1;
#X connect 18 0 19 0;
#X connect 19 0 20 0;
#X connect 20 0 21 1;
#X connect 21 0 0 0;
#X connect 22 0 23 0;
#X connect 23 0 24 0;
#X connect 24 0 27 3;
#X connect 25 0 27 2;
#X connect 26 0 17 0;
#X connect 27 0 0 1;
#X connect 28 0 21 0;
#X connect 29 0 27 0;
#X connect 29 1 28 0;
#X connect 30 0 1 0;
#X connect 32 0 38 0;
#X connect 33 0 37 0;
#X connect 34 0 39 0;
#X connect 35 0 49 0;
#X connect 40 0 11 0;
#X connect 41 0 15 0;
#X connect 42 0 22 0;
#X connect 43 0 18 0;
#X connect 44 0 16 0;
#X connect 45 0 0 0;
#X connect 46 0 7 0;
#X connect 47 0 4 0;
#X connect 48 0 25 0;
#X connect 49 0 31 0;
#X restore 591 323 pd hh-synth~;
#X obj 585 196 r hh;
#N canvas 340 297 793 655 gain~ 0;
#X obj 122 115 pipe;
#X obj 122 96 list split 1;
#X obj 122 73 route gain;
#X msg 122 135 \$1 20;
#X obj 122 154 line~;
#X obj 122 175 *~;
#X obj 122 195 *~;
#X obj 122 53 inlet;
#X obj 122 214 outlet~;
#X connect 0 0 3 0;
#X connect 1 0 0 0;
#X connect 1 1 0 1;
#X connect 2 0 1 0;
#X connect 3 0 4 0;
#X connect 4 0 5 0;
#X connect 4 0 5 1;
#X connect 5 0 6 0;
#X connect 5 0 6 1;
#X connect 6 0 8 0;
#X connect 7 0 2 0;
#X restore 95 350 pd gain~;
#N canvas 340 297 793 655 gain~ 0;
#X obj 122 115 pipe;
#X obj 122 96 list split 1;
#X obj 122 73 route gain;
#X msg 122 135 \$1 20;
#X obj 122 154 line~;
#X obj 122 175 *~;
#X obj 122 195 *~;
#X obj 117 45 inlet;
#X obj 122 214 outlet~;
#X connect 0 0 3 0;
#X connect 1 0 0 0;
#X connect 1 1 0 1;
#X connect 2 0 1 0;
#X connect 3 0 4 0;
#X connect 4 0 5 0;
#X connect 4 0 5 1;
#X connect 5 0 6 0;
#X connect 5 0 6 1;
#X connect 6 0 8 0;
#X connect 7 0 2 0;
#X restore 404 281 pd gain~;
#N canvas 340 297 793 655 gain~ 0;
#X obj 122 115 pipe;
#X obj 122 96 list split 1;
#X obj 122 73 route gain;
#X msg 122 135 \$1 20;
#X obj 122 154 line~;
#X obj 122 175 *~;
#X obj 122 195 *~;
#X obj 117 45 inlet;
#X obj 122 214 outlet~;
#X connect 0 0 3 0;
#X connect 1 0 0 0;
#X connect 1 1 0 1;
#X connect 2 0 1 0;
#X connect 3 0 4 0;
#X connect 4 0 5 0;
#X connect 4 0 5 1;
#X connect 5 0 6 0;
#X connect 5 0 6 1;
#X connect 6 0 8 0;
#X connect 7 0 2 0;
#X restore 670 287 pd gain~;
#X obj 166 341 pipe;
#X obj 166 322 list split 1;
#X msg 166 361 \$1 20;
#X obj 166 380 line~;
#X obj 166 299 route room;
#X obj 168 424 *~;
#X obj 458 291 pipe;
#X obj 458 272 list split 1;
#X msg 458 311 \$1 20;
#X obj 458 330 line~;
#X obj 458 249 route room;
#X obj 410 363 *~;
#X obj 166 519 *~ 0.7;
#X obj 216 520 *~ 0.7;
#X obj 201 460 rev2~ 100 90 3000 20;
#X obj 731 301 pipe;
#X obj 731 282 list split 1;
#X msg 731 321 \$1 20;
#X obj 731 340 line~;
#X obj 731 259 route room;
#X obj 683 373 *~;
#X connect 0 0 11 0;
#X connect 2 0 14 0;
#X connect 4 0 2 0;
#X connect 5 0 15 0;
#X connect 6 0 5 0;
#X connect 7 0 8 0;
#X connect 8 0 10 0;
#X connect 8 1 24 0;
#X connect 8 1 31 0;
#X connect 9 0 4 0;
#X connect 10 0 9 0;
#X connect 10 1 9 1;
#X connect 11 0 13 0;
#X connect 11 1 25 0;
#X connect 11 1 37 0;
#X connect 12 0 6 0;
#X connect 13 0 12 0;
#X connect 13 1 12 1;
#X connect 14 0 16 0;
#X connect 14 0 32 0;
#X connect 15 0 16 0;
#X connect 15 0 38 0;
#X connect 16 0 3 0;
#X connect 16 0 3 1;
#X connect 17 0 22 0;
#X connect 18 0 20 0;
#X connect 18 1 26 0;
#X connect 18 1 46 0;
#X connect 19 0 17 0;
#X connect 20 0 19 0;
#X connect 20 1 19 1;
#X connect 21 0 16 0;
#X connect 21 0 47 0;
#X connect 22 0 21 0;
#X connect 23 0 18 0;
#X connect 24 0 14 1;
#X connect 25 0 15 1;
#X connect 26 0 21 1;
#X connect 27 0 29 0;
#X connect 28 0 27 0;
#X connect 28 1 27 1;
#X connect 29 0 30 0;
#X connect 30 0 32 1;
#X connect 31 0 28 0;
#X connect 32 0 41 0;
#X connect 33 0 35 0;
#X connect 34 0 33 0;
#X connect 34 1 33 1;
#X connect 35 0 36 0;
#X connect 36 0 38 1;
#X connect 37 0 34 0;
#X connect 38 0 41 0;
#X connect 39 0 3 0;
#X connect 40 0 3 1;
#X connect 41 0 39 0;
#X connect 41 1 40 0;
#X connect 42 0 44 0;
#X connect 43 0 42 0;
#X connect 43 1 42 1;
#X connect 44 0 45 0;
#X connect 45 0 47 1;
#X connect 46 0 43 0;
#X connect 47 0 41 0;
