#N canvas 652 376 920 618 10;
#X obj 127 267 line~;
#X obj 127 120 bng 15 250 50 0 empty empty empty 0 -6 0 8 -262144 -1
-1;
#X obj 198 121 bng 15 250 50 0 empty empty empty 0 -6 0 8 -262144 -1
-1;
#X msg 137 148 stop;
#X obj 60 15 inlet;
#X obj 136 13 inlet;
#X obj 174 13 inlet;
#X msg 59 171 1;
#X obj 219 13 inlet;
#X obj 314 13 inlet;
#X msg 198 146 0;
#X obj 60 39 > 0;
#X obj 60 64 sel 1 0;
#X obj 127 303 outlet~;
#X obj 59 195 pack 1 \$1;
#X obj 127 225 pack \$3 \$2;
#X obj 127 195 f \$3;
#X obj 198 170 pack 0 \$4;
#X obj 127 171 del \$1;
#X obj 253 225 del \$4;
#X obj 253 302 outlet;
#X obj 383 317 switch~;
#X obj 441 195 loadbang;
#X obj 441 235 i 0;
#X obj 369 233 i 1;
#X obj 60 87 t b b;
#X connect 0 0 13 0;
#X connect 1 0 7 0;
#X connect 1 0 18 0;
#X connect 2 0 10 0;
#X connect 2 0 3 0;
#X connect 2 0 19 0;
#X connect 3 0 18 0;
#X connect 4 0 11 0;
#X connect 5 0 14 1;
#X connect 5 0 18 1;
#X connect 6 0 15 1;
#X connect 7 0 14 0;
#X connect 8 0 16 1;
#X connect 9 0 17 1;
#X connect 9 0 19 1;
#X connect 10 0 17 0;
#X connect 11 0 12 0;
#X connect 12 0 25 0;
#X connect 12 1 2 0;
#X connect 14 0 0 0;
#X connect 15 0 0 0;
#X connect 16 0 15 0;
#X connect 17 0 0 0;
#X connect 18 0 16 0;
#X connect 19 0 20 0;
#X connect 19 0 23 0;
#X connect 22 0 23 0;
#X connect 23 0 21 0;
#X connect 24 0 21 0;
#X connect 25 0 1 0;
#X connect 25 1 24 0;
