#N canvas 362 117 1432 963 10;
#X obj 39 222 inlet;
#X obj 127 223 inlet;
#X obj 268 223 inlet;
#X obj 63 642 outlet~;
#X obj 39 280 t b b b, f 12;
#X obj 171 414 +;
#X obj 39 339 t a a;
#X obj 63 560 vline~;
#X msg 75 527 0 4 0;
#X obj 39 414 t b b a;
#X obj 144 476 delay;
#X obj 144 508 outlet;
#X obj 39 316 f \$1;
#X obj 39 242 sel 1 0;
#X msg 10 476 1 \$1;
#X obj 58 476 pack 0 \$2 11;
#X obj 177 223 inlet;
#X text 70 185 INLETS: gate (1|0) \, attack \, hold \, decay;
#X obj 127 374 + \$2;
#X obj 92 317 f \$3;
#X connect 0 0 13 0;
#X connect 1 0 12 1;
#X connect 2 0 19 0;
#X connect 4 0 12 0;
#X connect 4 1 19 0;
#X connect 4 2 8 0;
#X connect 5 0 10 1;
#X connect 6 0 9 0;
#X connect 6 1 18 0;
#X connect 7 0 3 0;
#X connect 8 0 7 0;
#X connect 9 0 10 0;
#X connect 9 1 15 0;
#X connect 9 2 14 0;
#X connect 10 0 11 0;
#X connect 12 0 6 0;
#X connect 13 0 4 0;
#X connect 13 1 8 0;
#X connect 14 0 7 0;
#X connect 15 0 7 0;
#X connect 16 0 18 1;
#X connect 18 0 5 0;
#X connect 18 0 15 2;
#X connect 19 0 5 1;
#X connect 19 0 15 1;
