#N canvas 0 100 933 569 10;
#X obj 131 69 r \$0-messages;
#X obj 160 109 r \$0-messages;
#X obj 203 149 r \$0-messages;
#X obj 238 189 r \$0-messages;
#X obj 34 220 *~;
#X obj 34 240 *~;
#X obj 34 162 r \$0-gate;
#X obj 34 259 outlet~;
#X obj 30 15 inlet;
#X obj 30 34 s \$0-gate;
#X obj 162 12 inlet;
#X obj 162 32 s \$0-messages;
#X obj 187 253 outlet;
#X obj 133 90 dirt-param attack \$1;
#X obj 160 129 dirt-param decay \$2;
#X obj 203 169 dirt-param sustain \$3;
#X obj 238 209 dirt-param release \$4;
#X obj 34 197 adsr~ \$1 \$2 \$3 \$4;
#X connect 0 0 13 0;
#X connect 1 0 14 0;
#X connect 2 0 15 0;
#X connect 3 0 16 0;
#X connect 4 0 5 0;
#X connect 4 0 5 1;
#X connect 5 0 7 0;
#X connect 6 0 17 0;
#X connect 8 0 9 0;
#X connect 10 0 11 0;
#X connect 13 0 17 1;
#X connect 14 0 17 2;
#X connect 15 0 17 3;
#X connect 16 0 17 4;
#X connect 17 0 4 0;
#X connect 17 0 4 1;
#X connect 17 1 12 0;
