#N canvas 726 354 776 540 10;
#X text 79 12 transient - noise;
#X obj 34 275 *~;
#X obj 64 251 *~;
#X obj 64 229 *~;
#X obj 63 188 line~;
#X obj 63 37 inlet;
#X obj 34 325 outlet~;
#X obj 33 14 noise~;
#X obj 63 56 t b b;
#X obj 89 79 i 1;
#X obj 115 36 inlet;
#X obj 33 303 *~;
#X obj 63 129 pack 0 \$2, f 16;
#X obj 155 78 dirt-param transient-length \$2;
#X obj 116 183 dirt-param~ transient-level \$1;
#X connect 1 0 11 0;
#X connect 2 0 1 1;
#X connect 3 0 2 0;
#X connect 3 0 2 1;
#X connect 4 0 3 0;
#X connect 4 0 3 1;
#X connect 5 0 8 0;
#X connect 7 0 1 0;
#X connect 8 0 12 0;
#X connect 8 1 9 0;
#X connect 9 0 4 0;
#X connect 10 0 13 0;
#X connect 10 0 14 0;
#X connect 11 0 6 0;
#X connect 12 0 4 0;
#X connect 13 0 12 1;
#X connect 14 0 11 1;
