#N canvas 0 100 1193 743 10;
#X obj 5 183 blit_saw~;
#X obj 5 236 blit_pulsetrain~;
#X obj 114 268 pan~;
#X obj 114 241 sig~ 1;
#X obj 27 311 *~;
#X obj 59 312 *~;
#X obj 219 111 inlet;
#X obj 27 346 outlet~;
#X obj 35 112 inlet~;
#X obj 98 112 inlet~;
#X obj 151 111 inlet~;
#X text 25 76 inlets: frequency~ \, pulsewidth~(0-1) \, saw-square
mix~ (0-1) \, dirt control messages, f 90;
#X obj 140 151 dirt-param~ pw \$1;
#X obj 224 215 dirt-param~ oscmix \$2;
#X connect 0 1 4 0;
#X connect 1 1 5 0;
#X connect 2 0 4 1;
#X connect 2 1 5 1;
#X connect 3 0 2 0;
#X connect 4 0 7 0;
#X connect 5 0 7 0;
#X connect 6 0 12 0;
#X connect 6 0 13 0;
#X connect 8 0 0 1;
#X connect 8 0 1 1;
#X connect 9 0 1 2;
#X connect 10 0 2 1;
#X connect 12 0 1 2;
#X connect 13 0 2 1;
