#N canvas 0 100 1920 980 10;
#X obj 38 758 bob~;
#X obj 50 544 r \$0-messages;
#X obj 61 590 r \$0-messages;
#X obj 298 334 r \$0-messages;
#X obj 330 411 r \$0-messages;
#X obj 361 483 r \$0-messages;
#X obj 392 526 r \$0-messages;
#X obj 269 597 *~;
#X obj 269 617 *~;
#X obj 269 574 adsr~ 150 50 0.95 500;
#X obj 49 711 *~;
#X obj 299 403 *;
#X obj 314 379 r \$0-duration;
#X obj 269 551 r \$0-gate;
#X obj 330 481 *;
#X obj 345 455 r \$0-duration;
#X obj 38 273 inlet~;
#X obj 38 785 outlet~;
#X obj 302 277 inlet;
#X obj 302 299 s \$0-messages;
#X obj 212 271 inlet;
#X obj 212 294 s \$0-gate;
#X obj 61 610 dirt-param~ q \$2;
#X obj 616 330 r \$0-messages;
#X obj 616 390 cycles-to-ms;
#X obj 616 418 *;
#X obj 736 330 r \$0-messages;
#X obj 736 360 dirt-param legato 1;
#X obj 616 360 dirt-param delta 1;
#X obj 616 447 s \$0-duration;
#X obj 50 564 dirt-param~ cutoff \$1;
#X obj 268 786 outlet~;
#X obj 392 785 outlet;
#X obj 299 354 dirt-param fattack \$3;
#X obj 330 432 dirt-param fdecay \$4;
#X obj 361 503 dirt-param fsustain \$5;
#X obj 392 546 dirt-param frelease \$6;
#X obj 49 734 +~;
#X obj 107 275 inlet~;
#X obj 157 275 inlet~;
#X connect 0 0 17 0;
#X connect 1 0 30 0;
#X connect 2 0 22 0;
#X connect 3 0 33 0;
#X connect 4 0 34 0;
#X connect 5 0 35 0;
#X connect 6 0 36 0;
#X connect 7 0 8 0;
#X connect 7 0 8 1;
#X connect 8 0 10 1;
#X connect 8 0 31 0;
#X connect 9 0 7 0;
#X connect 9 0 7 1;
#X connect 9 1 32 0;
#X connect 10 0 37 0;
#X connect 11 0 9 1;
#X connect 12 0 11 1;
#X connect 13 0 9 0;
#X connect 14 0 9 2;
#X connect 15 0 14 1;
#X connect 16 0 0 0;
#X connect 18 0 19 0;
#X connect 20 0 21 0;
#X connect 22 0 0 2;
#X connect 23 0 28 0;
#X connect 24 0 25 0;
#X connect 25 0 29 0;
#X connect 26 0 27 0;
#X connect 27 0 25 1;
#X connect 28 0 24 0;
#X connect 30 0 10 0;
#X connect 33 0 11 0;
#X connect 34 0 14 0;
#X connect 35 0 9 3;
#X connect 36 0 9 4;
#X connect 37 0 0 1;
#X connect 38 0 37 1;
#X connect 39 0 0 2;
