#N canvas 0 100 881 688 10;
#X obj 37 928 pan~;
#X obj 58 882 r \$0-messages;
#X obj 37 824 *~;
#X obj 51 735 r \$0-messages;
#X obj 37 701 saturation~;
#X obj 51 778 *~;
#X obj 51 801 *~;
#X obj 37 670 *~;
#X obj 99 490 r \$0-messages;
#X obj 98 642 +~ 1;
#X obj 51 755 dirt-param~ gain 1;
#X obj 57 902 dirt-param~ pan 0.5;
#X obj 99 534 clip~ 0 1;
#X obj 99 557 *~;
#X obj 36 594 inlet~;
#X obj 37 947 outlet~;
#X obj 57 971 outlet~;
#X obj 258 471 inlet;
#X obj 258 500 s \$0-messages;
#X obj 99 511 dirt-param~ shape \$1;
#X obj 98 619 *~ 16;
#X connect 0 0 15 0;
#X connect 0 1 16 0;
#X connect 1 0 11 0;
#X connect 2 0 0 0;
#X connect 3 0 10 0;
#X connect 4 0 2 0;
#X connect 5 0 6 0;
#X connect 5 0 6 1;
#X connect 6 0 2 1;
#X connect 7 0 4 0;
#X connect 8 0 19 0;
#X connect 9 0 7 1;
#X connect 10 0 5 0;
#X connect 10 0 5 1;
#X connect 11 0 0 1;
#X connect 12 0 13 0;
#X connect 12 0 13 1;
#X connect 13 0 20 0;
#X connect 14 0 7 0;
#X connect 17 0 18 0;
#X connect 19 0 12 0;
#X connect 20 0 9 0;
