#N canvas 686 322 776 540 10;
#X text 136 11 transient - noise;
#X obj 34 275 *~;
#X obj 64 251 *~;
#X obj 64 229 *~;
#X obj 63 188 line~;
#X obj 63 37 inlet;
#X obj 34 325 outlet~;
#X obj 89 86 i 1;
#X obj 115 36 inlet;
#X obj 33 303 *~;
#X obj 63 129 pack 0 \$2, f 16;
#X obj 155 78 dirt-param transient-length \$2;
#X obj 116 183 dirt-param~ transient-level \$1;
#X obj 178 299 delay;
#X obj 178 251 unpack;
#X obj 178 274 b;
#X obj 178 322 i 0;
#X obj 63 56 t b b b;
#X obj 217 325 i 1;
#X obj 199 358 switch~;
#X obj 33 14 noise~;
#X connect 1 0 9 0;
#X connect 2 0 1 1;
#X connect 3 0 2 0;
#X connect 3 0 2 1;
#X connect 4 0 3 0;
#X connect 4 0 3 1;
#X connect 5 0 17 0;
#X connect 7 0 4 0;
#X connect 8 0 11 0;
#X connect 8 0 12 0;
#X connect 9 0 6 0;
#X connect 10 0 4 0;
#X connect 10 0 14 0;
#X connect 11 0 10 1;
#X connect 12 0 9 1;
#X connect 13 0 16 0;
#X connect 14 0 15 0;
#X connect 14 1 13 1;
#X connect 15 0 13 0;
#X connect 16 0 19 0;
#X connect 17 0 10 0;
#X connect 17 1 7 0;
#X connect 17 2 18 0;
#X connect 18 0 19 0;
#X connect 20 0 1 0;
