#N canvas 332 100 1432 963 10;
#X obj 39 222 inlet;
#X obj 127 223 inlet;
#X obj 268 223 inlet;
#X obj 63 642 outlet~;
#X obj 39 280 t b b b, f 12;
#X obj 171 414 +;
#X obj 39 339 t a a;
#X obj 82 596 vline~;
#X obj 39 414 t b b a;
#X obj 144 476 delay;
#X obj 144 508 outlet;
#X obj 39 316 f \$1;
#X obj 39 242 sel 1 0;
#X msg 10 476 1 \$1;
#X obj 379 520 switch~;
#X obj 437 398 loadbang;
#X obj 437 438 i 0;
#X obj 365 436 i 1;
#X obj 127 374 + 0;
#X obj 92 317 f \$2;
#X obj 76 533 pack 0 \$2 0;
#X obj 139 561 pack 0 \$2;
#X text 70 185 INLETS: gate (1|0) \, attack \, release;
#X connect 0 0 12 0;
#X connect 1 0 11 1;
#X connect 2 0 19 0;
#X connect 4 0 11 0;
#X connect 4 1 19 0;
#X connect 4 2 17 0;
#X connect 5 0 9 1;
#X connect 6 0 8 0;
#X connect 6 1 18 0;
#X connect 7 0 3 0;
#X connect 8 0 9 0;
#X connect 8 1 20 0;
#X connect 8 2 13 0;
#X connect 9 0 10 0;
#X connect 9 0 16 0;
#X connect 11 0 6 0;
#X connect 12 0 4 0;
#X connect 12 1 20 0;
#X connect 12 1 21 0;
#X connect 13 0 7 0;
#X connect 15 0 16 0;
#X connect 16 0 14 0;
#X connect 17 0 14 0;
#X connect 18 0 5 0;
#X connect 18 0 20 2;
#X connect 19 0 5 1;
#X connect 19 0 20 1;
#X connect 20 0 7 0;
#X connect 21 0 7 0;
