#N canvas 0 100 902 672 10;
#X obj 60 539 outlet;
#X obj 60 319 i 1;
#X obj 176 207 r \$0-messages;
#X obj 176 257 cycles-to-ms;
#X obj 176 285 *;
#X obj 296 207 r \$0-messages;
#X obj 114 379 i 0;
#X obj 114 321 delay 200;
#X obj 296 227 dirt-param legato 1;
#X obj 176 227 dirt-param delta 1;
#X obj 60 279 t b b b;
#X obj 50 100 inlet;
#X obj 225 82 inlet;
#X obj 225 105 s \$0-messages;
#X connect 1 0 0 0;
#X connect 2 0 9 0;
#X connect 3 0 4 0;
#X connect 4 0 7 1;
#X connect 5 0 8 0;
#X connect 6 0 0 0;
#X connect 7 0 6 0;
#X connect 8 0 4 1;
#X connect 9 0 3 0;
#X connect 10 0 1 0;
#X connect 10 1 7 0;
#X connect 11 0 10 0;
#X connect 12 0 13 0;
