#N canvas 271 100 1126 976 10;
#X obj 49 344 r \$0-messages;
#X obj 60 390 r \$0-messages;
#X obj 38 273 inlet~;
#X obj 38 465 outlet~;
#X obj 220 274 inlet;
#X obj 220 296 s \$0-messages;
#X obj 38 438 bp~;
#X obj 88 273 inlet;
#X obj 138 272 inlet;
#X obj 49 364 dirt-param cutoff \$1;
#X obj 60 410 dirt-param q \$2;
#X connect 0 0 9 0;
#X connect 1 0 10 0;
#X connect 2 0 6 0;
#X connect 4 0 5 0;
#X connect 6 0 3 0;
#X connect 7 0 6 1;
#X connect 8 0 6 2;
#X connect 9 0 6 1;
#X connect 10 0 6 2;
