#N canvas 54 331 814 705 10;
#X obj 39 298 bng 15 250 50 0 empty empty empty 17 7 0 10 -262144 -1
-1;
#X obj 38 214 route s;
#X obj 39 261 pipe;
#X obj 39 236 list split 1;
#X obj 39 670 outlet;
#X obj 111 669 outlet;
#X obj 39 190 r \$1;
#X obj 39 410 t b b;
#X obj 39 450 i 1;
#X obj 155 338 r \$0-messages;
#X obj 155 388 cycles-to-ms;
#X obj 155 416 *;
#X obj 275 338 r \$0-messages;
#X obj 93 510 i 0;
#X obj 93 452 delay 200;
#X obj 275 358 dirt-param legato 1;
#X obj 155 358 dirt-param delta 1;
#X obj 181 462 s \$0-duration;
#X obj 96 289 s \$0-messages;
#X obj 111 633 r \$0-messages;
#X connect 0 0 7 0;
#X connect 1 0 3 0;
#X connect 1 1 18 0;
#X connect 2 0 0 0;
#X connect 3 0 2 0;
#X connect 3 1 2 1;
#X connect 6 0 1 0;
#X connect 7 0 8 0;
#X connect 7 1 14 0;
#X connect 8 0 4 0;
#X connect 9 0 16 0;
#X connect 10 0 11 0;
#X connect 11 0 14 1;
#X connect 11 0 17 0;
#X connect 12 0 15 0;
#X connect 13 0 4 0;
#X connect 14 0 13 0;
#X connect 15 0 11 1;
#X connect 16 0 10 0;
#X connect 19 0 5 0;
