#N canvas 0 100 942 800 10;
#X obj 166 341 pipe;
#X obj 166 322 list split 1;
#X obj 165 277 inlet;
#X obj 166 360 outlet;
#X obj 166 299 route \$1;
#X connect 0 0 3 0;
#X connect 1 0 0 0;
#X connect 1 1 0 1;
#X connect 2 0 4 0;
#X connect 4 0 1 0;
