#N canvas 0 100 1144 972 10;
#X msg 166 386 \$1 20;
#X obj 166 425 line~;
#X obj 166 316 inlet;
#X obj 166 446 outlet~;
#X obj 166 339 dirt-param \$1 \$2;
#X connect 0 0 1 0;
#X connect 1 0 3 0;
#X connect 2 0 4 0;
#X connect 4 0 0 0;
