#N canvas 1210 136 691 448 10;
#X obj 23 27 inlet~;
#X obj 71 27 inlet~;
#X obj 23 56 *~ 0.5;
#X obj 126 287 *~;
#X obj 141 262 dirt-param~ room;
#X obj 126 306 throw~ reverb;
#X obj 126 175 *~;
#X obj 140 150 dirt-param~ delay;
#X obj 126 194 throw~ dirt_delay;
#X obj 126 103 dirt-param delaytime;
#X obj 126 122 s delaytime;
#X obj 252 122 s delayfeedback;
#X obj 252 103 dirt-param delayfeedback;
#X obj 126 28 inlet;
#X obj 126 218 dirt-param size;
#X obj 126 237 s reverb-size;
#X connect 0 0 2 0;
#X connect 1 0 2 0;
#X connect 2 0 6 0;
#X connect 2 0 3 0;
#X connect 3 0 5 0;
#X connect 4 0 3 1;
#X connect 6 0 8 0;
#X connect 7 0 6 1;
#X connect 9 0 10 0;
#X connect 12 0 11 0;
#X connect 13 0 9 0;
#X connect 13 0 12 0;
#X connect 13 0 7 0;
#X connect 13 0 4 0;
#X connect 13 0 14 0;
#X connect 14 0 15 0;
