#N canvas 0 100 867 684 10;
#X obj 125 165 makefilename orbit%sL;
#X obj 261 164 makefilename orbit%sR;
#X obj 125 184 list prepend set;
#X obj 125 204 list trim;
#X obj 261 183 list prepend set;
#X obj 261 203 list trim;
#X obj 35 57 inlet~;
#X obj 83 57 inlet~;
#X obj 149 56 inlet;
#X obj 22 243 throw~ orbit1L;
#X obj 117 244 throw~ orbit1R;
#X obj 167 136 + 1;
#X obj 150 99 dirt-param orbit 0;
#X connect 0 0 2 0;
#X connect 1 0 4 0;
#X connect 2 0 3 0;
#X connect 3 0 9 0;
#X connect 4 0 5 0;
#X connect 5 0 10 0;
#X connect 6 0 9 0;
#X connect 7 0 10 0;
#X connect 8 0 12 0;
#X connect 11 0 0 0;
#X connect 11 0 1 0;
#X connect 12 0 11 0;
