#N canvas 0 100 942 800 10;
#X obj 166 351 pipe;
#X obj 166 322 list split 1;
#X obj 166 267 inlet;
#X obj 166 380 outlet;
#X obj 166 299 route \$1;
#X obj 215 140 loadbang;
#X obj 214 258 pack 0 0;
#X obj 214 211 list \$2;
#X obj 214 234 list trim;
#X obj 216 174 del 4;
#X connect 0 0 3 0;
#X connect 1 0 0 0;
#X connect 1 1 0 1;
#X connect 2 0 4 0;
#X connect 4 0 1 0;
#X connect 5 0 9 0;
#X connect 6 0 1 0;
#X connect 7 0 8 0;
#X connect 8 0 6 0;
#X connect 9 0 7 0;
