#N canvas 338 342 787 568 10;
#N canvas 0 100 450 300 osc~ 0;
#X obj 25 166 inlet~;
#X obj 26 234 osc~;
#X obj 29 217 *~;
#X obj 26 341 outlet~;
#X obj 69 207 delread~ fb-\$0 0;
#X obj 65 269 delwrite~ fb-\$0 0;
#X obj 65 257 *~;
#X obj 61 219 *~;
#X obj 50 166 inlet~;
#X obj 75 166 inlet~;
#X obj 100 166 inlet~;
#X connect 0 0 1 0;
#X connect 0 0 7 0;
#X connect 1 0 3 0;
#X connect 1 0 6 0;
#X connect 2 0 1 0;
#X connect 4 0 7 1;
#X connect 6 0 5 0;
#X connect 7 0 1 0;
#X connect 8 0 2 0;
#X connect 9 0 2 1;
#X connect 10 0 6 1;
#X restore 104 147 pd osc~;
#X obj 104 240 *~;
#X obj 160 169 *~;
#X obj 160 192 *~;
#X obj 104 263 outlet~;
#X obj 104 59 inlet~;
#X obj 4 59 inlet~;
#X obj 364 59 inlet;
#X obj -66 59 inlet;
#X obj 154 59 inlet~;
#X obj 254 59 inlet~;
#X obj 404 59 inlet;
#X obj 444 59 inlet;
#X obj 484 59 inlet;
#X text 105 12 inlets \, fc \, modulator \, index \, feedback \, gate
\, attack \, decay \, sustain \, release, f 77;
#X obj 160 146 adsr~ \$1 \$2 \$3 \$4;
#X connect 0 0 1 0;
#X connect 1 0 4 0;
#X connect 2 0 3 0;
#X connect 2 0 3 1;
#X connect 3 0 1 1;
#X connect 5 0 0 0;
#X connect 6 0 0 1;
#X connect 7 0 15 1;
#X connect 8 0 15 0;
#X connect 9 0 0 2;
#X connect 10 0 0 3;
#X connect 11 0 15 2;
#X connect 12 0 15 3;
#X connect 13 0 15 4;
#X connect 15 0 2 0;
#X connect 15 0 2 1;
