#N canvas 0 100 1232 718 10;
#X obj 316 354 cycles-to-ms;
#X obj 246 240 cycles-to-ms;
#X obj 272 285 cycles-to-ms;
#X obj 470 76 inlet;
#X obj 470 96 s \$0-messages;
#X obj 290 104 r \$0-messages;
#X obj 365 175 r \$0-messages;
#X obj 230 77 inlet~;
#X obj 34 330 outlet~;
#X obj 54 350 outlet~;
#X obj 74 370 outlet~;
#X obj 174 326 outlet;
#X obj 194 346 outlet;
#X obj 214 366 outlet;
#X obj 234 386 outlet;
#X obj 72 279 fm.bandlimit-index~;
#X obj 113 78 inlet~;
#X obj 121 162 *~;
#X obj 137 141 dirt-param~ \$1-ratio \$2;
#X obj 164 162 dirt-param~ \$1-index \$3;
#X obj 186 185 dirt-param~ \$1-fb \$4;
#X obj 246 217 dirt-param \$1-attack \$5;
#X obj 272 262 dirt-param \$1-decay \$6;
#X obj 295 312 dirt-param \$1-sustain \$7;
#X obj 316 334 dirt-param \$1-release \$8;
#X connect 0 0 14 0;
#X connect 1 0 11 0;
#X connect 2 0 12 0;
#X connect 3 0 4 0;
#X connect 5 0 18 0;
#X connect 5 0 19 0;
#X connect 5 0 20 0;
#X connect 6 0 21 0;
#X connect 6 0 22 0;
#X connect 6 0 23 0;
#X connect 6 0 24 0;
#X connect 7 0 15 2;
#X connect 15 0 9 0;
#X connect 16 0 17 0;
#X connect 17 0 15 1;
#X connect 17 0 8 0;
#X connect 18 0 17 1;
#X connect 19 0 15 0;
#X connect 20 0 10 0;
#X connect 21 0 1 0;
#X connect 22 0 2 0;
#X connect 23 0 13 0;
#X connect 24 0 0 0;
