#N canvas 0 100 1001 854 10;
#X obj 51 123 inlet~;
#X obj 146 123 inlet~;
#X obj 283 123 inlet~;
#X text 315 329 maximum bandlimited index;
#X obj 136 357 expr~ $v1 * tanh($v2/$v1);
#X text 295 358 scaled bandlimited index;
#X obj 136 329 expr~ -($v1+$v2-16000)/2*$v2;
#X obj 131 176 *~;
#X text 156 177 modulation frequency;
#X obj 53 468 osc~;
#X obj 93 358 osc~;
#X obj 59 435 *~;
#X obj 53 542 outlet~;
#X obj 172 399 delread~ fb-\$0 0;
#X obj 131 538 delwrite~ fb-\$0 0;
#X obj 350 123 inlet~;
#X obj 131 514 *~;
#X obj 123 439 *~;
#X connect 0 0 6 0;
#X connect 0 0 7 0;
#X connect 0 0 9 0;
#X connect 0 0 17 0;
#X connect 1 0 7 1;
#X connect 2 0 4 1;
#X connect 4 0 11 1;
#X connect 6 0 4 0;
#X connect 7 0 6 1;
#X connect 7 0 10 0;
#X connect 9 0 12 0;
#X connect 9 0 16 0;
#X connect 10 0 11 0;
#X connect 11 0 9 0;
#X connect 13 0 17 1;
#X connect 15 0 16 1;
#X connect 16 0 14 0;
#X connect 17 0 9 0;
