#N canvas 0 100 960 844 10;
#X obj 79 172 +~ 129;
#X obj 79 153 *~ 128;
#X obj 79 72 osc~;
#X obj 79 192 tabread4~ \$0-transfer-function;
#X obj 79 211 hip~ 5;
#X obj 259 280 table \$0-transfer-function 259;
#X obj 79 231 outlet~;
#X obj 79 52 inlet~;
#X obj 318 220 tabwrite;
#X obj 318 146 random 1024;
#X obj 318 165 / 1024;
#X msg 318 85 259;
#X obj 318 105 until;
#X obj 384 177 f;
#X obj 422 177 + 1;
#X obj 318 125 t a b;
#X obj 318 37 loadbang;
#X obj 318 56 t b b;
#X obj 369 97 i 0;
#X obj 137 63 dirt-param~ offset;
#X obj 79 96 +~;
#X obj 79 131 *~;
#X obj 137 108 +~ 1;
#X obj 137 88 dirt-param~ dist;
#X connect 0 0 3 0;
#X connect 1 0 0 0;
#X connect 2 0 20 0;
#X connect 3 0 4 0;
#X connect 4 0 6 0;
#X connect 7 0 2 0;
#X connect 9 0 10 0;
#X connect 10 0 8 0;
#X connect 11 0 12 0;
#X connect 12 0 15 0;
#X connect 13 0 14 0;
#X connect 13 0 8 1;
#X connect 14 0 13 1;
#X connect 15 0 9 0;
#X connect 15 1 13 0;
#X connect 16 0 17 0;
#X connect 17 0 11 0;
#X connect 17 1 18 0;
#X connect 18 0 13 1;
#X connect 19 0 20 1;
#X connect 20 0 21 0;
#X connect 21 0 1 0;
#X connect 22 0 21 1;
#X connect 23 0 22 0;
