#N canvas 1102 371 758 566 10;
#X obj 119 240 cos~;
#X obj 104 285 *~;
#X obj 152 240 cos~;
#X obj 137 285 *~;
#X obj 104 19 inlet~;
#X obj 104 314 outlet~;
#X obj 137 334 outlet~;
#X obj 152 213 +~ 0.75;
#X obj 158 19 inlet~;
#X obj 142 159 *~ 0.25;
#X connect 0 0 1 1;
#X connect 1 0 5 0;
#X connect 2 0 3 1;
#X connect 3 0 6 0;
#X connect 4 0 1 0;
#X connect 4 0 3 0;
#X connect 7 0 2 0;
#X connect 8 0 9 0;
#X connect 9 0 0 0;
#X connect 9 0 7 0;
