#N canvas 367 109 1432 963 10;
#X obj 119 92 inlet;
#X obj 119 112 s \$0-gate;
#X obj 117 220 r \$0-gate;
#X obj 214 92 inlet;
#X obj 117 391 outlet~;
#X obj 206 308 outlet;
#X text 252 307 bang when done;
#X obj 149 157 dirt-param attack \$1;
#X obj 325 212 dirt-param decay \$3;
#X obj 117 270 pow~ 4;
#X obj 230 180 dirt-param hold \$2;
#X obj 117 247 ahd~ \$1 \$2 \$3, f 14;
#X connect 0 0 1 0;
#X connect 2 0 11 0;
#X connect 3 0 7 0;
#X connect 3 0 8 0;
#X connect 3 0 10 0;
#X connect 7 0 11 1;
#X connect 8 0 11 3;
#X connect 9 0 4 0;
#X connect 10 0 11 2;
#X connect 11 0 9 0;
#X connect 11 1 5 0;
