#N canvas 45 243 748 629 10;
#X obj 90 168 inlet;
#X obj 20 299 outlet~;
#X obj 22 81 inlet;
#X obj 38 246 line~;
#X obj 38 226 pack 0 20;
#X obj 89 204 dirt-param port \$1;
#X connect 0 0 5 0;
#X connect 2 0 4 0;
#X connect 3 0 1 0;
#X connect 4 0 3 0;
#X connect 5 0 4 1;
