#N canvas 459 309 799 648 10;
#X msg 47 82 listen 57120;
#X obj 47 106 netreceive -u -b 57120;
#X obj 47 134 oscparse;
#X obj 47 56 loadbang;
#N canvas 0 100 1068 765 calculate-time-until-event 0;
#X obj 101 59 inlet;
#X obj 100 264 outlet;
#X obj 101 176 t a b;
#X obj 313 215 v cps;
#X obj 100 238 expr if ($f1>0 \, 1000.0*($f1/$f2) \, 0);
#X obj 101 79 t a b;
#X obj 101 133 -;
#X obj 101 107 wrap;
#X obj 101 152 + 1;
#X obj 137 106 get-current-cycle-offset;
#X connect 0 0 5 0;
#X connect 2 0 4 0;
#X connect 2 1 3 0;
#X connect 3 0 4 1;
#X connect 4 0 1 0;
#X connect 5 0 7 0;
#X connect 5 1 9 0;
#X connect 6 0 8 0;
#X connect 7 0 6 0;
#X connect 8 0 2 0;
#X connect 9 0 6 1;
#X restore 181 328 pd calculate-time-until-event;
#N canvas 0 100 450 300 trim-message 0;
#X obj 109 103 route play2;
#X obj 109 82 list trim;
#X obj 109 58 inlet;
#X obj 109 122 outlet;
#X connect 0 0 3 0;
#X connect 1 0 0 0;
#X connect 2 0 1 0;
#X restore 47 166 pd trim-message;
#X obj 47 190 t a a;
#N canvas 0 100 848 607 schedule-sound-event 1;
#X obj 182 216 list;
#X obj 183 191 t b a;
#X obj 183 77 t a a;
#N canvas 115 223 1269 804 schedule-event 1;
#X obj 161 234 print late;
#X obj 20 33 inlet;
#X obj 124 33 inlet;
#X obj 31 236 list trim;
#X obj 161 213 sel 0;
#X obj 31 294 s;
#X obj 21 57 list split 1;
#X obj 41 124 list;
#X obj 21 92 t b a;
#X obj 31 173 list append;
#X obj 32 151 break-into-pairs-of-params;
#X obj 31 255 t a a;
#X obj 58 285 dirt-param cps;
#X obj 58 308 v cps;
#X connect 1 0 6 0;
#X connect 2 0 4 0;
#X connect 2 0 9 1;
#X connect 3 0 11 0;
#X connect 4 0 0 0;
#X connect 6 0 8 0;
#X connect 6 1 7 1;
#X connect 7 0 10 0;
#X connect 8 0 7 0;
#X connect 8 1 5 1;
#X connect 9 0 3 0;
#X connect 10 0 9 0;
#X connect 11 0 5 0;
#X connect 11 1 12 0;
#X connect 12 0 13 0;
#X restore 182 238 pd schedule-event;
#X obj 183 149 list append;
#X obj 183 168 list trim;
#X obj 183 124 route s;
#X obj 183 54 inlet;
#X obj 323 54 inlet;
#X obj 183 100 break-into-pairs-of-params;
#X connect 0 0 3 0;
#X connect 1 0 0 0;
#X connect 1 1 0 1;
#X connect 2 0 9 0;
#X connect 2 1 4 1;
#X connect 4 0 5 0;
#X connect 5 0 1 0;
#X connect 6 0 4 0;
#X connect 7 0 2 0;
#X connect 8 0 3 1;
#X connect 9 0 6 0;
#X restore 46 356 pd schedule-sound-event;
#X obj 181 279 t a a;
#N canvas 565 243 1293 807 sync-cycle-clock 0;
#X obj 50 311 v cycle-base;
#X obj 79 94 i;
#X obj 79 73 inlet;
#X obj 96 178 v cycle-base;
#X obj 68 234 >;
#X obj 51 152 t a a b;
#X obj 51 264 spigot;
#X obj 308 155 change;
#X obj 307 197 s reset-clock;
#X obj 308 176 get-current-cycle-offset;
#X connect 1 0 5 0;
#X connect 1 0 7 0;
#X connect 2 0 1 0;
#X connect 3 0 4 1;
#X connect 4 0 6 1;
#X connect 5 0 6 0;
#X connect 5 1 4 0;
#X connect 5 2 3 0;
#X connect 6 0 0 0;
#X connect 7 0 9 0;
#X connect 9 0 8 0;
#X restore 190 306 pd sync-cycle-clock;
#X obj 181 257 get-event-time-from-message;
#N canvas 0 100 1095 882 cycle-clock 1;
#X obj 35 43 v cps;
#X obj 35 14 metro 20;
#X obj 16 329 metro 1000;
#X obj 35 98 expr 1000*(1/$f1);
#X obj 16 -14 t b b b;
#X obj 16 -35 loadbang;
#X msg 99 15 0.6;
#X obj 16 352 s cycle-pulse;
#X obj 84 131 r reset-clock;
#X obj 10 54 bng 15 250 50 0 empty empty empty 17 7 0 10 -262144 -1
-1;
#X obj 70 300 -;
#X obj 85 276 line;
#X msg 84 255 \$1 \, 0 \$2;
#X obj 84 233 pack;
#X obj 84 201 spigot;
#X obj 84 151 t a a;
#X obj 117 178 > 0.01;
#X connect 0 0 3 0;
#X connect 1 0 0 0;
#X connect 2 0 7 0;
#X connect 3 0 10 0;
#X connect 3 0 13 1;
#X connect 4 0 9 0;
#X connect 4 1 1 0;
#X connect 4 2 6 0;
#X connect 5 0 4 0;
#X connect 6 0 0 0;
#X connect 8 0 15 0;
#X connect 9 0 2 0;
#X connect 10 0 2 1;
#X connect 11 0 10 1;
#X connect 12 0 11 0;
#X connect 13 0 12 0;
#X connect 14 0 13 0;
#X connect 15 0 14 0;
#X connect 15 1 16 0;
#X connect 16 0 14 1;
#X restore 213 101 pd cycle-clock;
#X obj 147 209 print;
#X connect 0 0 1 0;
#X connect 1 0 2 0;
#X connect 2 0 5 0;
#X connect 2 0 12 0;
#X connect 3 0 0 0;
#X connect 4 0 7 1;
#X connect 5 0 6 0;
#X connect 6 0 7 0;
#X connect 6 1 10 0;
#X connect 8 0 4 0;
#X connect 8 1 9 0;
#X connect 10 0 8 0;
