#N canvas 454 224 799 648 10;
#X msg 47 82 listen 57120;
#X obj 47 106 netreceive -u -b 57120;
#X obj 47 134 oscparse;
#X obj 47 56 loadbang;
#N canvas 0 100 1068 765 calculate-time-until-event 0;
#X obj 115 74 v now;
#X obj 100 52 t a b;
#X obj 100 127 -;
#X obj 100 21 inlet;
#X obj 99 304 outlet;
#X obj 99 154 t a b;
#X obj 286 185 v cps;
#X obj 99 208 expr if ($f1>0 \, 1000.0*($f1/$f2) \, 0);
#X obj 131 256 v latency;
#X obj 99 278 + 50;
#X obj 99 227 t a b;
#X connect 0 0 2 1;
#X connect 1 0 2 0;
#X connect 1 1 0 0;
#X connect 2 0 5 0;
#X connect 3 0 1 0;
#X connect 5 0 7 0;
#X connect 5 1 6 0;
#X connect 6 0 7 1;
#X connect 7 0 10 0;
#X connect 8 0 9 1;
#X connect 9 0 4 0;
#X connect 10 0 9 0;
#X connect 10 1 8 0;
#X restore 180 328 pd calculate-time-until-event;
#N canvas 0 100 450 300 trim-message 0;
#X obj 109 103 route play2;
#X obj 109 82 list trim;
#X obj 109 58 inlet;
#X obj 109 122 outlet;
#X connect 0 0 3 0;
#X connect 1 0 0 0;
#X connect 2 0 1 0;
#X restore 47 166 pd trim-message;
#X obj 47 190 t a a;
#N canvas 0 100 848 607 schedule-sound-event 0;
#X obj 182 216 list;
#X obj 183 191 t b a;
#X obj 183 77 t a a;
#N canvas 125 231 1269 804 schedule-event 0;
#X obj 161 234 print late;
#X obj 20 33 inlet;
#X obj 124 33 inlet;
#X obj 31 236 list trim;
#X obj 161 213 sel 0;
#X obj 31 294 s;
#X obj 21 57 list split 1;
#X obj 41 124 list;
#X obj 21 92 t b a;
#X obj 31 173 list append;
#X obj 32 151 break-into-pairs-of-params;
#X obj 89 293 set-cps;
#X connect 1 0 6 0;
#X connect 2 0 4 0;
#X connect 2 0 9 1;
#X connect 3 0 5 0;
#X connect 3 0 11 0;
#X connect 4 0 0 0;
#X connect 6 0 8 0;
#X connect 6 1 7 1;
#X connect 7 0 10 0;
#X connect 8 0 7 0;
#X connect 8 1 5 1;
#X connect 9 0 3 0;
#X connect 10 0 9 0;
#X restore 182 238 pd schedule-event;
#X obj 183 149 list append;
#X obj 183 168 list trim;
#X obj 183 124 route s;
#X obj 183 54 inlet;
#X obj 323 54 inlet;
#X obj 183 100 break-into-pairs-of-params;
#X connect 0 0 3 0;
#X connect 1 0 0 0;
#X connect 1 1 0 1;
#X connect 2 0 9 0;
#X connect 2 1 4 1;
#X connect 4 0 5 0;
#X connect 5 0 1 0;
#X connect 6 0 4 0;
#X connect 7 0 2 0;
#X connect 8 0 3 1;
#X connect 9 0 6 0;
#X restore 46 356 pd schedule-sound-event;
#X obj 181 279 t a a;
#N canvas 0 100 563 529 sync-cycle-clock 0;
#X obj 79 227 v cycle-base;
#X obj 79 94 i;
#X obj 79 73 inlet;
#X obj 124 146 v cycle-base;
#X obj 96 172 >;
#X obj 79 120 t a a b;
#X obj 79 202 spigot;
#X connect 1 0 5 0;
#X connect 2 0 1 0;
#X connect 3 0 4 1;
#X connect 4 0 6 1;
#X connect 5 0 6 0;
#X connect 5 1 4 0;
#X connect 5 2 3 0;
#X connect 6 0 0 0;
#X restore 189 306 pd sync-cycle-clock;
#X obj 457 141 loadbang;
#X obj 457 200 v latency;
#X obj 181 257 get-event-time-from-message;
#N canvas 0 100 891 669 cycle-clock 0;
#X obj 35 76 v cps;
#X obj 35 54 metro 20;
#X obj 16 124 metro 1000;
#X obj 35 98 expr 1000*(1/$f1);
#X msg 16 189 0 \, 1 \$1;
#X obj 16 168 f;
#X obj 16 256 +;
#X obj 16 26 t b b b;
#X obj 16 5 loadbang;
#X obj 16 279 v now;
#X obj 34 233 v cycle-base;
#X obj 16 211 line 0 1;
#X obj 16 147 t b b;
#X msg 99 55 0.6;
#X connect 0 0 3 0;
#X connect 1 0 0 0;
#X connect 2 0 12 0;
#X connect 3 0 2 1;
#X connect 3 0 5 1;
#X connect 4 0 11 0;
#X connect 5 0 4 0;
#X connect 6 0 9 0;
#X connect 7 0 2 0;
#X connect 7 1 1 0;
#X connect 7 2 13 0;
#X connect 8 0 7 0;
#X connect 10 0 6 1;
#X connect 11 0 6 0;
#X connect 12 0 5 0;
#X connect 12 1 10 0;
#X connect 13 0 0 0;
#X restore 213 101 pd cycle-clock;
#X obj 522 139 bng 15 250 50 0 empty empty empty 17 7 0 10 -262144
-1 -1;
#X obj 457 169 i 5;
#X connect 0 0 1 0;
#X connect 1 0 2 0;
#X connect 2 0 5 0;
#X connect 3 0 0 0;
#X connect 4 0 7 1;
#X connect 5 0 6 0;
#X connect 6 0 7 0;
#X connect 6 1 12 0;
#X connect 8 0 4 0;
#X connect 8 1 9 0;
#X connect 10 0 15 0;
#X connect 12 0 8 0;
#X connect 14 0 15 0;
#X connect 15 0 11 0;
