#N canvas 0 100 804 687 10;
#X obj 21 269 *~ 0.125;
#X obj 21 292 rzero~ -1;
#X obj 21 315 rzero~ -1;
#X obj 21 338 rzero~ -1;
#X obj 204 29 block~ 1024 1 16;
#X obj 21 372 outlet~;
#X obj 20 166 rpole~ 0.87467;
#X obj 20 143 *~ 0.12532;
#X obj 20 189 *~ 0.01668;
#X obj 20 212 cpole~ 0.9293 0.10812;
#X obj 20 238 cpole~ 0.9293 -0.10812;
#X obj 21 66 expr~ tanh($v1);
#X obj 21 31 inlet~;
#X connect 0 0 1 0;
#X connect 1 0 2 0;
#X connect 2 0 3 0;
#X connect 3 0 5 0;
#X connect 6 0 8 0;
#X connect 7 0 6 0;
#X connect 8 0 9 0;
#X connect 9 0 10 0;
#X connect 9 1 10 1;
#X connect 10 0 0 0;
#X connect 11 0 7 0;
#X connect 12 0 11 0;
