#N canvas 0 100 805 669 10;
#X obj 103 62 inlet~;
#X obj 103 82 snapshot~;
#X floatatom 103 101 5 0 0 0 - - -, f 5;
#X obj 178 35 loadbang;
#X obj 178 55 metro 20;
#X connect 0 0 1 0;
#X connect 1 0 2 0;
#X connect 3 0 4 0;
#X connect 4 0 1 0;
#X coords 0 -1 1 1 40 20 2 100 100;
