#N canvas 0 100 450 300 10;
#X obj 104 155 v cps;
#X obj 104 75 route cps;
#X obj 104 51 inlet;
#X obj 104 94 list trim;
#X obj 104 114 unpack;
#X obj 104 133 pipe;
#X connect 1 0 3 0;
#X connect 2 0 1 0;
#X connect 3 0 4 0;
#X connect 4 0 5 0;
#X connect 4 1 5 1;
#X connect 5 0 0 0;
