#N canvas 0 100 1469 891 10;
#X obj 112 150 pack 50;
#X obj 112 169 line;
#X obj 88 95 delwrite~ \$0-echos 250;
#X obj 111 274 delread~ \$0-echos 75;
#X obj 142 305 random 100;
#X obj 142 325 / 100;
#X obj 142 344 pack 50;
#X obj 142 364 line~;
#X obj 118 393 *~;
#X obj 92 33 inlet~;
#X obj 50 605 outlet~;
#X obj 208 597 outlet~;
#X obj 118 522 pan~;
#X obj 198 334 random 100;
#X obj 198 354 / 100;
#X obj 198 373 pack 50;
#X obj 198 393 line;
#X obj 401 61 metro 500;
#X obj 380 20 loadbang;
#X obj 266 152 pack 50;
#X obj 266 171 line;
#X obj 265 276 delread~ \$0-echos 75;
#X obj 296 307 random 100;
#X obj 296 327 / 100;
#X obj 296 346 pack 50;
#X obj 296 366 line~;
#X obj 272 395 *~;
#X obj 272 525 pan~;
#X obj 353 337 random 100;
#X obj 353 357 / 100;
#X obj 353 376 pack 50;
#X obj 353 396 line;
#X obj 419 148 pack 50;
#X obj 419 167 line;
#X obj 418 272 delread~ \$0-echos 75;
#X obj 449 303 random 100;
#X obj 449 323 / 100;
#X obj 449 342 pack 50;
#X obj 449 362 line~;
#X obj 425 391 *~;
#X obj 425 521 pan~;
#X obj 506 333 random 100;
#X obj 506 353 / 100;
#X obj 506 372 pack 50;
#X obj 506 392 line;
#X obj 112 130 random 50;
#X obj 266 132 random 50;
#X obj 419 128 random 50;
#X obj 506 415 - 0.5;
#X obj 346 425 - 0.5;
#X obj 196 425 - 0.5;
#X obj 399 627 delwrite~ \$0-echos 250;
#X obj 405 596 *~ 0.25;
#X obj 196 448 * 0.25;
#X obj 346 448 * 0.25;
#X obj 506 438 * 0.25;
#X obj 506 461 + 0.5;
#X obj 346 471 + 0.5;
#X obj 196 471 + 0.5;
#X obj 94 64 *~ 0.33;
#X obj 419 190 + 10;
#X obj 266 194 + 10;
#X obj 112 192 + 10;
#X connect 0 0 1 0;
#X connect 1 0 62 0;
#X connect 3 0 8 0;
#X connect 4 0 5 0;
#X connect 5 0 6 0;
#X connect 6 0 7 0;
#X connect 7 0 8 1;
#X connect 8 0 12 0;
#X connect 8 0 52 0;
#X connect 9 0 59 0;
#X connect 12 0 10 0;
#X connect 12 1 11 0;
#X connect 13 0 14 0;
#X connect 14 0 15 0;
#X connect 15 0 16 0;
#X connect 16 0 50 0;
#X connect 17 0 4 0;
#X connect 17 0 13 0;
#X connect 17 0 22 0;
#X connect 17 0 28 0;
#X connect 17 0 35 0;
#X connect 17 0 41 0;
#X connect 17 0 45 0;
#X connect 17 0 46 0;
#X connect 17 0 47 0;
#X connect 18 0 17 0;
#X connect 19 0 20 0;
#X connect 20 0 61 0;
#X connect 21 0 26 0;
#X connect 22 0 23 0;
#X connect 23 0 24 0;
#X connect 24 0 25 0;
#X connect 25 0 26 1;
#X connect 26 0 27 0;
#X connect 26 0 52 0;
#X connect 27 0 10 0;
#X connect 27 1 11 0;
#X connect 28 0 29 0;
#X connect 29 0 30 0;
#X connect 30 0 31 0;
#X connect 31 0 49 0;
#X connect 32 0 33 0;
#X connect 33 0 60 0;
#X connect 34 0 39 0;
#X connect 35 0 36 0;
#X connect 36 0 37 0;
#X connect 37 0 38 0;
#X connect 38 0 39 1;
#X connect 39 0 40 0;
#X connect 39 0 52 0;
#X connect 40 0 10 0;
#X connect 40 1 11 0;
#X connect 41 0 42 0;
#X connect 42 0 43 0;
#X connect 43 0 44 0;
#X connect 44 0 48 0;
#X connect 45 0 0 0;
#X connect 46 0 19 0;
#X connect 47 0 32 0;
#X connect 48 0 55 0;
#X connect 49 0 54 0;
#X connect 50 0 53 0;
#X connect 52 0 51 0;
#X connect 53 0 58 0;
#X connect 54 0 57 0;
#X connect 55 0 56 0;
#X connect 56 0 40 1;
#X connect 57 0 27 1;
#X connect 58 0 12 1;
#X connect 59 0 2 0;
#X connect 60 0 34 0;
#X connect 61 0 21 0;
#X connect 62 0 3 0;
