#N canvas 45 243 748 629 10;
#X obj 20 279 +~;
#X obj 43 201 line~;
#X obj 43 180 pack 0 20;
#X obj 124 201 line~;
#X obj 124 179 pack 0 20;
#X obj 58 233 osc~;
#X obj 43 258 *~;
#X obj 124 155 cycles-to-ms;
#X obj 43 138 *;
#X obj 125 54 inlet;
#X obj 20 46 inlet~;
#X obj 20 299 outlet~;
#X obj 42 113 dirt-param vibdepth \$1;
#X obj 124 135 dirt-param vibspeed \$2;
#X obj 194 73 mtof;
#X obj 194 24 loadbang;
#X obj 194 47 i 1;
#X connect 0 0 11 0;
#X connect 1 0 6 0;
#X connect 2 0 1 0;
#X connect 3 0 5 0;
#X connect 4 0 3 0;
#X connect 5 0 6 1;
#X connect 6 0 0 1;
#X connect 7 0 4 0;
#X connect 8 0 2 0;
#X connect 9 0 12 0;
#X connect 9 0 13 0;
#X connect 10 0 0 0;
#X connect 12 0 8 0;
#X connect 13 0 7 0;
#X connect 14 0 8 1;
#X connect 15 0 16 0;
#X connect 16 0 14 0;
